RisingSun-ThinItalic.ufo
<glyph name="exclam" format="2">
  <advance width="224"/>
  <unicode hex="0021"/>
  <outline>
    <contour>
      <point x="10" y="29" type="qcurve"/>
      <point x="9" y="22"/>
      <point x="11" y="9"/>
      <point x="19" y="0"/>
      <point x="30" y="-5"/>
      <point x="37" y="-5" type="qcurve" smooth="yes"/>
      <point x="44" y="-5"/>
      <point x="58" y="0"/>
      <point x="69" y="9"/>
      <point x="77" y="22"/>
      <point x="78" y="29" type="qcurve"/>
      <point x="80" y="36"/>
      <point x="77" y="48"/>
      <point x="70" y="57"/>
      <point x="59" y="62"/>
      <point x="52" y="62" type="qcurve" smooth="yes"/>
      <point x="45" y="62"/>
      <point x="31" y="57"/>
      <point x="20" y="48"/>
      <point x="12" y="36"/>
    </contour>
    <contour>
      <point x="91" y="200" type="line"/>
      <point x="134" y="400" type="line"/>
      <point x="201" y="717" type="line"/>
      <point x="181" y="717" type="line"/>
      <point x="114" y="400" type="line"/>
      <point x="71" y="200" type="line"/>
    </contour>
  </outline>
</glyph>
<glyph name="dollar" format="2">
  <advance width="589"/>
  <unicode hex="0024"/>
  <outline>
    <contour>
      <point x="205" y="-93" type="line"/>
      <point x="225" y="-93" type="line"/>
      <point x="244" y="0" type="line"/>
      <point x="225" y="0" type="line"/>
    </contour>
    <contour>
      <point x="245" y="4" type="line"/>
      <point x="395" y="708" type="line"/>
      <point x="375" y="706" type="line"/>
      <point x="226" y="5" type="line"/>
    </contour>
    <contour>
      <point x="374" y="702" type="line"/>
      <point x="394" y="704" type="line"/>
      <point x="418" y="815" type="line"/>
      <point x="398" y="815" type="line"/>
    </contour>
    <contour>
      <point x="577" y="630" type="line"/>
      <point x="562" y="653"/>
      <point x="525" y="685"/>
      <point x="480" y="706"/>
      <point x="426" y="715"/>
      <point x="394" y="715" type="qcurve" smooth="yes"/>
      <point x="332" y="715"/>
      <point x="229" y="684"/>
      <point x="154" y="626"/>
      <point x="113" y="543"/>
      <point x="113" y="491" type="qcurve" smooth="yes"/>
      <point x="113" y="457"/>
      <point x="140" y="410"/>
      <point x="191" y="378"/>
      <point x="265" y="356"/>
      <point x="312" y="346" type="qcurve" smooth="yes"/>
      <point x="360" y="336"/>
      <point x="432" y="311"/>
      <point x="480" y="278"/>
      <point x="504" y="233"/>
      <point x="504" y="203" type="qcurve" smooth="yes"/>
      <point x="504" y="156"/>
      <point x="468" y="85"/>
      <point x="402" y="37"/>
      <point x="308" y="12"/>
      <point x="250" y="12" type="qcurve" smooth="yes"/>
      <point x="211" y="12"/>
      <point x="146" y="24"/>
      <point x="90" y="50"/>
      <point x="43" y="90"/>
      <point x="23" y="118" type="qcurve"/>
      <point x="6" y="105" type="line"/>
      <point x="27" y="77"/>
      <point x="77" y="35"/>
      <point x="135" y="8"/>
      <point x="205" y="-5"/>
      <point x="245" y="-5" type="qcurve" smooth="yes"/>
      <point x="308" y="-5"/>
      <point x="412" y="24"/>
      <point x="485" y="79"/>
      <point x="525" y="158"/>
      <point x="525" y="208" type="qcurve" smooth="yes"/>
      <point x="525" y="244"/>
      <point x="495" y="295"/>
      <point x="440" y="330"/>
      <point x="363" y="355"/>
      <point x="316" y="365" type="qcurve" smooth="yes"/>
      <point x="270" y="376"/>
      <point x="201" y="397"/>
      <point x="156" y="426"/>
      <point x="134" y="466"/>
      <point x="134" y="495" type="qcurve" smooth="yes"/>
      <point x="134" y="537"/>
      <point x="163" y="610"/>
      <point x="225" y="665"/>
      <point x="323" y="696"/>
      <point x="392" y="696" type="qcurve" smooth="yes"/>
      <point x="422" y="696"/>
      <point x="471" y="688"/>
      <point x="512" y="670"/>
      <point x="546" y="639"/>
      <point x="561" y="616" type="qcurve"/>
    </contour>
  </outline>
</glyph>
<glyph name="percent" format="2">
  <advance width="644"/>
  <unicode hex="0025"/>
  <outline>
    <contour>
      <point x="210" y="444" type="qcurve" smooth="yes"/>
      <point x="241" y="444"/>
      <point x="300" y="470"/>
      <point x="346" y="515"/>
      <point x="374" y="574"/>
      <point x="374" y="607" type="qcurve" smooth="yes"/>
      <point x="374" y="631"/>
      <point x="359" y="672"/>
      <point x="331" y="702"/>
      <point x="292" y="720"/>
      <point x="269" y="720" type="qcurve" smooth="yes"/>
      <point x="238" y="720"/>
      <point x="179" y="694"/>
      <point x="133" y="649"/>
      <point x="105" y="590"/>
      <point x="105" y="557" type="qcurve" smooth="yes"/>
      <point x="105" y="533"/>
      <point x="120" y="492"/>
      <point x="148" y="462"/>
      <point x="186" y="444"/>
    </contour>
    <contour>
      <point x="214" y="464" type="qcurve" smooth="yes"/>
      <point x="175" y="464"/>
      <point x="125" y="519"/>
      <point x="125" y="561" type="qcurve" smooth="yes"/>
      <point x="125" y="588"/>
      <point x="148" y="638"/>
      <point x="187" y="677"/>
      <point x="237" y="700"/>
      <point x="264" y="700" type="qcurve" smooth="yes"/>
      <point x="302" y="700"/>
      <point x="354" y="645"/>
      <point x="354" y="603" type="qcurve" smooth="yes"/>
      <point x="354" y="576"/>
      <point x="330" y="526"/>
      <point x="291" y="487"/>
      <point x="241" y="464"/>
    </contour>
    <contour>
      <point x="398" y="-10" type="qcurve" smooth="yes"/>
      <point x="429" y="-10"/>
      <point x="488" y="16"/>
      <point x="534" y="61"/>
      <point x="562" y="120"/>
      <point x="562" y="153" type="qcurve" smooth="yes"/>
      <point x="562" y="177"/>
      <point x="547" y="218"/>
      <point x="519" y="248"/>
      <point x="480" y="266"/>
      <point x="457" y="266" type="qcurve" smooth="yes"/>
      <point x="426" y="266"/>
      <point x="367" y="240"/>
      <point x="321" y="195"/>
      <point x="293" y="136"/>
      <point x="293" y="103" type="qcurve" smooth="yes"/>
      <point x="293" y="79"/>
      <point x="308" y="38"/>
      <point x="336" y="7"/>
      <point x="375" y="-10"/>
    </contour>
    <contour>
      <point x="402" y="10" type="qcurve" smooth="yes"/>
      <point x="362" y="10"/>
      <point x="313" y="65"/>
      <point x="313" y="106" type="qcurve" smooth="yes"/>
      <point x="313" y="133"/>
      <point x="337" y="184"/>
      <point x="376" y="223"/>
      <point x="426" y="246"/>
      <point x="453" y="246" type="qcurve" smooth="yes"/>
      <point x="491" y="246"/>
      <point x="542" y="190"/>
      <point x="542" y="148" type="qcurve" smooth="yes"/>
      <point x="542" y="121"/>
      <point x="518" y="72"/>
      <point x="479" y="33"/>
      <point x="429" y="10"/>
    </contour>
    <contour>
      <point x="0" y="-1" type="line"/>
      <point x="325" y="334" type="line"/>
      <point x="679" y="699" type="line"/>
      <point x="666" y="711" type="line"/>
      <point x="313" y="347" type="line"/>
      <point x="-13" y="11" type="line"/>
    </contour>
  </outline>
</glyph>
<glyph name="ampersand" format="2">
  <advance width="668"/>
  <unicode hex="0026"/>
  <outline>
    <contour>
      <point x="188" y="-10" type="qcurve" smooth="yes"/>
      <point x="250" y="-10"/>
      <point x="368" y="55"/>
      <point x="468" y="170"/>
      <point x="541" y="326"/>
      <point x="558" y="416" type="qcurve"/>
      <point x="536" y="416" type="line"/>
      <point x="520" y="331"/>
      <point x="451" y="183"/>
      <point x="358" y="74"/>
      <point x="248" y="11"/>
      <point x="191" y="11" type="qcurve" smooth="yes"/>
      <point x="125" y="11"/>
      <point x="42" y="92"/>
      <point x="42" y="158" type="qcurve" smooth="yes"/>
      <point x="42" y="192"/>
      <point x="66" y="254"/>
      <point x="117" y="314"/>
      <point x="197" y="373"/>
      <point x="252" y="403" type="qcurve"/>
      <point x="239" y="418" type="line"/>
      <point x="179" y="385"/>
      <point x="95" y="322"/>
      <point x="43" y="257"/>
      <point x="20" y="191"/>
      <point x="20" y="156" type="qcurve" smooth="yes"/>
      <point x="20" y="119"/>
      <point x="45" y="58"/>
      <point x="89" y="14"/>
      <point x="151" y="-10"/>
    </contour>
    <contour>
      <point x="507" y="0" type="line"/>
      <point x="536" y="0" type="line"/>
      <point x="246" y="415" type="line" smooth="yes"/>
      <point x="230" y="438"/>
      <point x="206" y="478"/>
      <point x="191" y="512"/>
      <point x="184" y="542"/>
      <point x="184" y="555" type="qcurve" smooth="yes"/>
      <point x="184" y="584"/>
      <point x="213" y="636"/>
      <point x="261" y="677"/>
      <point x="323" y="701"/>
      <point x="357" y="701" type="qcurve" smooth="yes"/>
      <point x="408" y="701"/>
      <point x="485" y="649"/>
      <point x="505" y="602" type="qcurve"/>
      <point x="519" y="614" type="line"/>
      <point x="508" y="639"/>
      <point x="476" y="678"/>
      <point x="435" y="705"/>
      <point x="387" y="719"/>
      <point x="360" y="719" type="qcurve" smooth="yes"/>
      <point x="321" y="719"/>
      <point x="250" y="692"/>
      <point x="196" y="646"/>
      <point x="164" y="587"/>
      <point x="164" y="554" type="qcurve" smooth="yes"/>
      <point x="164" y="538"/>
      <point x="173" y="503"/>
      <point x="194" y="459"/>
      <point x="229" y="404"/>
      <point x="254" y="367" type="qcurve" smooth="yes"/>
    </contour>
  </outline>
</glyph>
<glyph name="parenleft" format="2">
  <advance width="228"/>
  <unicode hex="0028"/>
  <outline>
    <contour>
      <point x="49" y="256" type="qcurve" smooth="yes"/>
      <point x="49" y="223"/>
      <point x="56" y="151"/>
      <point x="71" y="79"/>
      <point x="93" y="7"/>
      <point x="108" y="-26" type="qcurve"/>
      <point x="126" y="-14" type="line"/>
      <point x="112" y="18"/>
      <point x="90" y="89"/>
      <point x="76" y="162"/>
      <point x="69" y="233"/>
      <point x="69" y="264" type="qcurve" smooth="yes"/>
      <point x="69" y="323"/>
      <point x="109" y="448"/>
      <point x="171" y="566"/>
      <point x="246" y="673"/>
      <point x="281" y="714" type="qcurve"/>
      <point x="268" y="726" type="line"/>
      <point x="223" y="669"/>
      <point x="144" y="558"/>
      <point x="84" y="444"/>
      <point x="49" y="323"/>
    </contour>
  </outline>
</glyph>
<glyph name="parenright" format="2">
  <advance width="228"/>
  <unicode hex="0029"/>
  <outline>
    <contour>
      <point x="198" y="433" type="qcurve" smooth="yes"/>
      <point x="198" y="508"/>
      <point x="165" y="659"/>
      <point x="141" y="726" type="qcurve"/>
      <point x="123" y="714" type="line"/>
      <point x="134" y="688"/>
      <point x="154" y="618"/>
      <point x="169" y="541"/>
      <point x="177" y="461"/>
      <point x="177" y="424" type="qcurve" smooth="yes"/>
      <point x="177" y="371"/>
      <point x="147" y="261"/>
      <point x="92" y="150"/>
      <point x="15" y="39"/>
      <point x="-32" y="-14" type="qcurve"/>
      <point x="-19" y="-26" type="line"/>
      <point x="33" y="34"/>
      <point x="114" y="148"/>
      <point x="169" y="261"/>
      <point x="198" y="374"/>
    </contour>
  </outline>
</glyph>
<glyph name="comma" format="2">
  <advance width="268"/>
  <unicode hex="002C"/>
  <outline>
    <contour>
      <point x="-53" y="-165" type="line"/>
      <point x="84" y="94" type="line"/>
      <point x="50" y="100" type="line"/>
      <point x="-75" y="-160" type="line"/>
    </contour>
  </outline>
</glyph>
<glyph name="period" format="2">
  <advance width="268"/>
  <unicode hex="002E"/>
  <outline>
    <contour>
      <point x="42" y="29" type="qcurve" smooth="yes"/>
      <point x="39" y="15"/>
      <point x="55" y="-5"/>
      <point x="69" y="-5" type="qcurve" smooth="yes"/>
      <point x="83" y="-5"/>
      <point x="107" y="15"/>
      <point x="110" y="29" type="qcurve" smooth="yes"/>
      <point x="113" y="43"/>
      <point x="98" y="62"/>
      <point x="83" y="62" type="qcurve" smooth="yes"/>
      <point x="69" y="62"/>
      <point x="45" y="43"/>
    </contour>
  </outline>
</glyph>
<glyph name="zero.tnum" format="2">
  <advance width="586"/>
  <unicode hex="0030"/>
  <outline>
    <contour>
      <point x="224" y="-10" type="qcurve" smooth="yes"/>
      <point x="290" y="-10"/>
      <point x="406" y="70"/>
      <point x="451" y="134" type="qcurve" smooth="yes"/>
      <point x="496" y="197"/>
      <point x="546" y="352"/>
      <point x="546" y="427" type="qcurve" smooth="yes"/>
      <point x="546" y="478"/>
      <point x="525" y="576"/>
      <point x="504" y="618" type="qcurve" smooth="yes"/>
      <point x="482" y="660"/>
      <point x="412" y="710"/>
      <point x="363" y="710" type="qcurve" smooth="yes"/>
      <point x="297" y="710"/>
      <point x="182" y="629"/>
      <point x="137" y="566" type="qcurve" smooth="yes"/>
      <point x="92" y="502"/>
      <point x="41" y="347"/>
      <point x="41" y="272" type="qcurve" smooth="yes"/>
      <point x="41" y="221"/>
      <point x="62" y="122"/>
      <point x="84" y="81" type="qcurve" smooth="yes"/>
      <point x="106" y="40"/>
      <point x="176" y="-10"/>
    </contour>
    <contour>
      <point x="229" y="10" type="qcurve" smooth="yes"/>
      <point x="184" y="10"/>
      <point x="122" y="52"/>
      <point x="102" y="87" type="qcurve" smooth="yes"/>
      <point x="82" y="122"/>
      <point x="63" y="214"/>
      <point x="63" y="263" type="qcurve" smooth="yes"/>
      <point x="63" y="329"/>
      <point x="107" y="478"/>
      <point x="147" y="542" type="qcurve" smooth="yes"/>
      <point x="186" y="606"/>
      <point x="293" y="690"/>
      <point x="359" y="690" type="qcurve" smooth="yes"/>
      <point x="401" y="690"/>
      <point x="464" y="645"/>
      <point x="485" y="607" type="qcurve" smooth="yes"/>
      <point x="505" y="569"/>
      <point x="526" y="475"/>
      <point x="526" y="424" type="qcurve" smooth="yes"/>
      <point x="526" y="361"/>
      <point x="482" y="217"/>
      <point x="443" y="154" type="qcurve" smooth="yes"/>
      <point x="403" y="91"/>
      <point x="295" y="10"/>
    </contour>
  </outline>
</glyph>
<glyph name="one.tnum" format="2">
  <advance width="586"/>
  <unicode hex="0031"/>
  <outline>
    <contour>
      <point x="-24" y="-1" type="line"/>
      <point x="487" y="-1" type="line"/>
      <point x="491" y="19" type="line"/>
      <point x="248" y="19" type="line"/>
      <point x="382" y="720" type="line"/>
      <point x="363" y="720" type="line"/>
      <point x="362" y="719"/>
      <point x="332" y="687"/>
      <point x="309" y="669" type="qcurve" smooth="yes"/>
      <point x="286" y="651"/>
      <point x="233" y="621"/>
      <point x="211" y="621" type="qcurve"/>
      <point x="207" y="600" type="line"/>
      <point x="224" y="600"/>
      <point x="268" y="618"/>
      <point x="290" y="632" type="qcurve" smooth="yes"/>
      <point x="311" y="646"/>
      <point x="347" y="675"/>
      <point x="356" y="687" type="qcurve"/>
      <point x="228" y="19" type="line"/>
      <point x="-21" y="19" type="line"/>
    </contour>
  </outline>
</glyph>
<glyph name="two.tnum" format="2">
  <advance width="586"/>
  <unicode hex="0032"/>
  <outline>
    <contour>
      <point x="30" y="-2" type="qcurve"/>
      <point x="445" y="-2" type="line"/>
      <point x="449" y="18" type="line"/>
      <point x="52" y="18" type="line"/>
      <point x="57" y="47"/>
      <point x="80" y="122"/>
      <point x="131" y="199"/>
      <point x="216" y="272"/>
      <point x="283" y="299" type="qcurve" smooth="yes"/>
      <point x="321" y="315"/>
      <point x="417" y="348"/>
      <point x="500" y="405"/>
      <point x="556" y="491"/>
      <point x="556" y="559" type="qcurve" smooth="yes"/>
      <point x="556" y="590"/>
      <point x="537" y="648"/>
      <point x="499" y="692"/>
      <point x="440" y="719"/>
      <point x="399" y="719" type="qcurve" smooth="yes"/>
      <point x="344" y="719"/>
      <point x="256" y="680"/>
      <point x="193" y="632"/>
      <point x="159" y="592"/>
      <point x="159" y="591" type="qcurve"/>
      <point x="173" y="581" type="line"/>
      <point x="186" y="596"/>
      <point x="224" y="636"/>
      <point x="280" y="672"/>
      <point x="350" y="697"/>
      <point x="392" y="697" type="qcurve" smooth="yes"/>
      <point x="429" y="697"/>
      <point x="484" y="673"/>
      <point x="518" y="634"/>
      <point x="536" y="583"/>
      <point x="536" y="555" type="qcurve" smooth="yes"/>
      <point x="536" y="494"/>
      <point x="486" y="416"/>
      <point x="410" y="366"/>
      <point x="320" y="334"/>
      <point x="279" y="317" type="qcurve" smooth="yes"/>
      <point x="234" y="299"/>
      <point x="151" y="246"/>
      <point x="85" y="170"/>
      <point x="40" y="67"/>
    </contour>
  </outline>
</glyph>
<glyph name="three" format="2">
  <advance width="586"/>
  <unicode hex="0033"/>
  <outline>
    <contour>
      <point x="219" y="-12" type="qcurve" smooth="yes"/>
      <point x="273" y="-12"/>
      <point x="370" y="23"/>
      <point x="443" y="86"/>
      <point x="486" y="171"/>
      <point x="486" y="222" type="qcurve" smooth="yes"/>
      <point x="486" y="281"/>
      <point x="421" y="363"/>
      <point x="362" y="371" type="qcurve"/>
      <point x="411" y="376"/>
      <point x="481" y="410"/>
      <point x="527" y="463"/>
      <point x="549" y="528"/>
      <point x="549" y="565" type="qcurve" smooth="yes"/>
      <point x="549" y="597"/>
      <point x="526" y="652"/>
      <point x="481" y="692"/>
      <point x="420" y="714"/>
      <point x="383" y="714" type="qcurve" smooth="yes"/>
      <point x="348" y="714"/>
      <point x="279" y="696"/>
      <point x="219" y="663"/>
      <point x="170" y="614"/>
      <point x="153" y="585" type="qcurve"/>
      <point x="170" y="578" type="line"/>
      <point x="202" y="629"/>
      <point x="313" y="691"/>
      <point x="379" y="691" type="qcurve" smooth="yes"/>
      <point x="446" y="691"/>
      <point x="529" y="617"/>
      <point x="529" y="557" type="qcurve" smooth="yes"/>
      <point x="529" y="517"/>
      <point x="498" y="455"/>
      <point x="441" y="410"/>
      <point x="358" y="385"/>
      <point x="306" y="385" type="qcurve" smooth="yes"/>
      <point x="230" y="385" type="line"/>
      <point x="227" y="362" type="line"/>
      <point x="301" y="362" type="line" smooth="yes"/>
      <point x="381" y="362"/>
      <point x="466" y="287"/>
      <point x="466" y="223" type="qcurve" smooth="yes"/>
      <point x="466" y="176"/>
      <point x="430" y="100"/>
      <point x="365" y="43"/>
      <point x="278" y="11"/>
      <point x="225" y="11" type="qcurve" smooth="yes"/>
      <point x="154" y="11"/>
      <point x="61" y="74"/>
      <point x="57" y="126" type="qcurve"/>
      <point x="37" y="119" type="line"/>
      <point x="46" y="60"/>
      <point x="142" y="-12"/>
    </contour>
  </outline>
</glyph>
<glyph name="four.tnum" format="2">
  <advance width="586"/>
  <unicode hex="0034"/>
  <outline>
    <contour>
      <point x="386" y="0" type="line"/>
      <point x="428" y="211" type="line"/>
      <point x="510" y="211" type="line"/>
      <point x="513" y="231" type="line"/>
      <point x="432" y="231" type="line"/>
      <point x="529" y="710" type="line"/>
      <point x="520" y="710" type="line"/>
      <point x="62" y="228" type="line"/>
      <point x="57" y="211" type="line"/>
      <point x="409" y="211" type="line"/>
      <point x="367" y="0" type="line"/>
    </contour>
    <contour>
      <point x="89" y="231" type="line"/>
      <point x="503" y="673" type="line"/>
      <point x="413" y="231" type="line"/>
    </contour>
  </outline>
</glyph>
<glyph name="five" format="2">
  <advance width="586"/>
  <unicode hex="0035"/>
  <outline>
    <contour>
      <point x="214" y="-12" type="curve" smooth="yes"/>
      <point x="362" y="-12"/>
      <point x="482" y="118"/>
      <point x="482" y="263" type="curve" smooth="yes"/>
      <point x="482" y="364"/>
      <point x="419" y="445"/>
      <point x="313" y="445" type="curve" smooth="yes"/>
      <point x="242" y="445"/>
      <point x="176" y="413"/>
      <point x="126" y="363" type="curve"/>
      <point x="251" y="690" type="line"/>
      <point x="545" y="690" type="line"/>
      <point x="548" y="710" type="line"/>
      <point x="241" y="710" type="line"/>
      <point x="90" y="325" type="line"/>
      <point x="113" y="325" type="line"/>
      <point x="162" y="382"/>
      <point x="231" y="423"/>
      <point x="308" y="423" type="curve" smooth="yes"/>
      <point x="403" y="423"/>
      <point x="462" y="350"/>
      <point x="462" y="258" type="curve" smooth="yes"/>
      <point x="462" y="126"/>
      <point x="351" y="10"/>
      <point x="218" y="10" type="curve" smooth="yes"/>
      <point x="138" y="10"/>
      <point x="78" y="58"/>
      <point x="59" y="136" type="curve"/>
      <point x="39" y="131" type="line"/>
      <point x="58" y="42"/>
      <point x="123" y="-12"/>
    </contour>
  </outline>
</glyph>
<glyph name="seven.tnum" format="2">
  <advance width="586"/>
  <unicode hex="0037"/>
  <outline>
    <contour>
      <point x="112" y="0" type="line"/>
      <point x="135" y="0" type="line"/>
      <point x="614" y="710" type="line"/>
      <point x="122" y="710" type="line"/>
      <point x="117" y="690" type="line"/>
      <point x="577" y="690" type="line"/>
    </contour>
  </outline>
</glyph>
<glyph name="eight" format="2">
  <advance width="586"/>
  <unicode hex="0038"/>
  <outline>
    <contour>
      <point x="492" y="220" type="curve" smooth="yes"/>
      <point x="492" y="297"/>
      <point x="447" y="357"/>
      <point x="375" y="381" type="curve"/>
      <point x="456" y="409"/>
      <point x="540" y="476"/>
      <point x="540" y="569" type="curve" smooth="yes"/>
      <point x="540" y="659"/>
      <point x="459" y="710"/>
      <point x="376" y="710" type="curve" smooth="yes"/>
      <point x="265" y="710"/>
      <point x="144" y="636"/>
      <point x="144" y="515" type="curve" smooth="yes"/>
      <point x="144" y="450"/>
      <point x="182" y="406"/>
      <point x="240" y="381" type="curve"/>
      <point x="142" y="355"/>
      <point x="46" y="266"/>
      <point x="46" y="159" type="curve" smooth="yes"/>
      <point x="46" y="55"/>
      <point x="124" y="-7"/>
      <point x="224" y="-7" type="curve" smooth="yes"/>
      <point x="352" y="-7"/>
      <point x="492" y="80"/>
    </contour>
    <contour>
      <point x="472" y="219" type="curve" smooth="yes"/>
      <point x="472" y="100"/>
      <point x="344" y="10"/>
      <point x="233" y="10" type="curve" smooth="yes"/>
      <point x="147" y="10"/>
      <point x="66" y="69"/>
      <point x="66" y="161" type="curve" smooth="yes"/>
      <point x="66" y="280"/>
      <point x="192" y="371"/>
      <point x="304" y="371" type="curve" smooth="yes"/>
      <point x="390" y="371"/>
      <point x="472" y="310"/>
    </contour>
    <contour>
      <point x="164" y="517" type="curve" smooth="yes"/>
      <point x="164" y="624"/>
      <point x="272" y="690"/>
      <point x="370" y="690" type="curve" smooth="yes"/>
      <point x="444" y="690"/>
      <point x="520" y="647"/>
      <point x="520" y="565" type="curve" smooth="yes"/>
      <point x="520" y="460"/>
      <point x="405" y="391"/>
      <point x="310" y="391" type="curve" smooth="yes"/>
      <point x="237" y="391"/>
      <point x="164" y="437"/>
    </contour>
  </outline>
</glyph>
<glyph name="nine.tnum" format="2">
  <advance width="586"/>
  <unicode hex="0039"/>
  <outline>
    <contour>
      <point x="207" y="-9" type="curve" smooth="yes"/>
      <point x="116" y="-9"/>
      <point x="56" y="48"/>
      <point x="48" y="138" type="curve"/>
      <point x="68" y="145" type="line"/>
      <point x="75" y="65"/>
      <point x="131" y="13"/>
      <point x="211" y="13" type="curve" smooth="yes"/>
      <point x="392" y="13"/>
      <point x="486" y="252"/>
      <point x="512" y="400" type="curve"/>
      <point x="466" y="300"/>
      <point x="366" y="231"/>
      <point x="255" y="231" type="curve" smooth="yes"/>
      <point x="144" y="231"/>
      <point x="77" y="326"/>
      <point x="77" y="430" type="curve" smooth="yes"/>
      <point x="77" y="579"/>
      <point x="207" y="718"/>
      <point x="358" y="718" type="curve" smooth="yes"/>
      <point x="482" y="718"/>
      <point x="539" y="619"/>
      <point x="539" y="506" type="curve" smooth="yes"/>
      <point x="539" y="314"/>
      <point x="443" y="-9"/>
    </contour>
    <contour>
      <point x="262" y="253" type="curve" smooth="yes"/>
      <point x="394" y="253"/>
      <point x="517" y="381"/>
      <point x="517" y="512" type="curve" smooth="yes"/>
      <point x="517" y="609"/>
      <point x="455" y="696"/>
      <point x="352" y="696" type="curve" smooth="yes"/>
      <point x="220" y="696"/>
      <point x="98" y="569"/>
      <point x="98" y="438" type="curve" smooth="yes"/>
      <point x="98" y="343"/>
      <point x="160" y="253"/>
    </contour>
  </outline>
</glyph>
<glyph name="question" format="2">
  <advance width="453"/>
  <unicode hex="003F"/>
  <outline>
    <contour>
      <point x="168" y="179" type="line"/>
      <point x="173" y="204"/>
      <point x="178" y="228"/>
      <point x="184" y="253" type="curve" smooth="yes"/>
      <point x="211" y="367"/>
      <point x="432" y="341"/>
      <point x="472" y="532" type="curve" smooth="yes"/>
      <point x="495" y="642"/>
      <point x="437" y="719"/>
      <point x="329" y="719" type="curve" smooth="yes"/>
      <point x="245" y="719"/>
      <point x="149" y="670"/>
      <point x="97" y="590" type="curve"/>
      <point x="113" y="582" type="line"/>
      <point x="163" y="655"/>
      <point x="247" y="699"/>
      <point x="325" y="699" type="curve" smooth="yes"/>
      <point x="422" y="699"/>
      <point x="474" y="635"/>
      <point x="453" y="535" type="curve" smooth="yes"/>
      <point x="415" y="354"/>
      <point x="197" y="385"/>
      <point x="165" y="253" type="curve" smooth="yes"/>
      <point x="159" y="228"/>
      <point x="154" y="204"/>
      <point x="149" y="179" type="curve"/>
    </contour>
    <contour>
      <point x="95" y="29" type="curve" smooth="yes"/>
      <point x="91" y="10"/>
      <point x="102" y="-5"/>
      <point x="121" y="-5" type="curve" smooth="yes"/>
      <point x="140" y="-5"/>
      <point x="157" y="10"/>
      <point x="161" y="29" type="curve" smooth="yes"/>
      <point x="165" y="48"/>
      <point x="154" y="62"/>
      <point x="135" y="62" type="curve" smooth="yes"/>
      <point x="116" y="62"/>
      <point x="99" y="48"/>
    </contour>
  </outline>
</glyph>
<glyph name="D" format="2">
  <advance width="684"/>
  <unicode hex="0044"/>
  <outline>
    <contour>
      <point x="33" y="0" type="line"/>
      <point x="250" y="0" type="line" smooth="yes"/>
      <point x="337" y="0"/>
      <point x="485" y="67"/>
      <point x="593" y="184"/>
      <point x="653" y="346"/>
      <point x="653" y="440" type="qcurve" smooth="yes"/>
      <point x="653" y="497"/>
      <point x="623" y="595"/>
      <point x="561" y="668"/>
      <point x="466" y="710"/>
      <point x="401" y="710" type="qcurve" smooth="yes"/>
      <point x="184" y="710" type="line"/>
    </contour>
    <contour>
      <point x="57" y="20" type="line"/>
      <point x="200" y="690" type="line"/>
      <point x="397" y="690" type="line" smooth="yes"/>
      <point x="456" y="690"/>
      <point x="544" y="652"/>
      <point x="603" y="585"/>
      <point x="633" y="491"/>
      <point x="633" y="435" type="qcurve" smooth="yes"/>
      <point x="633" y="353"/>
      <point x="581" y="203"/>
      <point x="484" y="88"/>
      <point x="343" y="20"/>
      <point x="254" y="20" type="qcurve" smooth="yes"/>
    </contour>
  </outline>
</glyph>
<glyph name="I" format="2">
  <advance width="214"/>
  <unicode hex="0049"/>
  <outline>
    <contour>
      <point x="33" y="0" type="line"/>
      <point x="53" y="0" type="line"/>
      <point x="204" y="709" type="line"/>
      <point x="184" y="709" type="line"/>
    </contour>
  </outline>
</glyph>
<glyph name="J" format="2">
  <advance width="503"/>
  <unicode hex="004A"/>
  <outline>
    <contour>
      <point x="14" y="102" type="line"/>
      <point x="23" y="83"/>
      <point x="52" y="50"/>
      <point x="87" y="27"/>
      <point x="128" y="14"/>
      <point x="149" y="14" type="qcurve" smooth="yes"/>
      <point x="194" y="14"/>
      <point x="268" y="46"/>
      <point x="323" y="101"/>
      <point x="360" y="175"/>
      <point x="368" y="217" type="qcurve" smooth="yes"/>
      <point x="465" y="710" type="line"/>
      <point x="485" y="710" type="line"/>
      <point x="386" y="207" type="line" smooth="yes"/>
      <point x="377" y="161"/>
      <point x="336" y="83"/>
      <point x="275" y="27"/>
      <point x="194" y="-5"/>
      <point x="145" y="-5" type="qcurve" smooth="yes"/>
      <point x="122" y="-5"/>
      <point x="77" y="10"/>
      <point x="37" y="36"/>
      <point x="5" y="72"/>
      <point x="-4" y="93" type="qcurve"/>
    </contour>
  </outline>
</glyph>
<glyph name="P" format="2">
  <advance width="595"/>
  <unicode hex="0050"/>
  <outline>
    <contour>
      <point x="33" y="0" type="line"/>
      <point x="53" y="0" type="line"/>
      <point x="112" y="279" type="line"/>
      <point x="374" y="279" type="line" smooth="yes"/>
      <point x="421" y="279"/>
      <point x="506" y="324"/>
      <point x="570" y="396"/>
      <point x="608" y="488"/>
      <point x="608" y="534" type="qcurve" smooth="yes"/>
      <point x="608" y="567"/>
      <point x="587" y="631"/>
      <point x="548" y="680"/>
      <point x="490" y="710"/>
      <point x="452" y="710" type="qcurve" smooth="yes"/>
      <point x="184" y="710" type="line"/>
    </contour>
    <contour>
      <point x="117" y="299" type="line"/>
      <point x="200" y="690" type="line"/>
      <point x="454" y="690" type="line" smooth="yes"/>
      <point x="484" y="690"/>
      <point x="534" y="665"/>
      <point x="569" y="623"/>
      <point x="588" y="567"/>
      <point x="588" y="536" type="qcurve" smooth="yes"/>
      <point x="588" y="495"/>
      <point x="556" y="411"/>
      <point x="499" y="342"/>
      <point x="422" y="299"/>
      <point x="378" y="299" type="qcurve" smooth="yes"/>
    </contour>
  </outline>
</glyph>
<glyph name="Q" format="2">
  <advance width="726"/>
  <unicode hex="0051"/>
  <outline>
    <contour>
      <point x="305" y="-5" type="qcurve" smooth="yes"/>
      <point x="385" y="-5"/>
      <point x="527" y="64"/>
      <point x="634" y="182"/>
      <point x="697" y="338"/>
      <point x="697" y="424" type="qcurve" smooth="yes"/>
      <point x="697" y="480"/>
      <point x="668" y="584"/>
      <point x="606" y="666"/>
      <point x="510" y="715"/>
      <point x="443" y="715" type="qcurve" smooth="yes"/>
      <point x="364" y="715"/>
      <point x="222" y="645"/>
      <point x="115" y="527"/>
      <point x="52" y="371"/>
      <point x="52" y="284" type="qcurve" smooth="yes"/>
      <point x="52" y="228"/>
      <point x="81" y="124"/>
      <point x="143" y="43"/>
      <point x="238" y="-5"/>
    </contour>
    <contour>
      <point x="308" y="15" type="qcurve" smooth="yes"/>
      <point x="246" y="15"/>
      <point x="156" y="59"/>
      <point x="99" y="134"/>
      <point x="72" y="232"/>
      <point x="72" y="285" type="qcurve" smooth="yes"/>
      <point x="72" y="363"/>
      <point x="129" y="511"/>
      <point x="229" y="626"/>
      <point x="363" y="695"/>
      <point x="441" y="695" type="qcurve" smooth="yes"/>
      <point x="503" y="695"/>
      <point x="593" y="650"/>
      <point x="650" y="575"/>
      <point x="677" y="477"/>
      <point x="677" y="424" type="qcurve" smooth="yes"/>
      <point x="677" y="346"/>
      <point x="620" y="199"/>
      <point x="521" y="85"/>
      <point x="386" y="15"/>
    </contour>
    <contour>
      <point x="620" y="-7" type="line"/>
      <point x="636" y="7" type="line"/>
      <point x="407" y="285" type="line"/>
      <point x="391" y="271" type="line"/>
    </contour>
  </outline>
</glyph>
<glyph name="R" format="2">
  <advance width="616"/>
  <unicode hex="0052"/>
  <outline>
    <contour>
      <point x="53" y="0" type="line"/>
      <point x="112" y="279" type="line"/>
      <point x="362" y="279" type="line"/>
      <point x="473" y="0" type="line"/>
      <point x="497" y="0" type="line"/>
      <point x="386" y="279" type="line"/>
      <point x="431" y="282"/>
      <point x="512" y="328"/>
      <point x="572" y="399"/>
      <point x="608" y="487"/>
      <point x="608" y="533" type="qcurve" smooth="yes"/>
      <point x="608" y="567"/>
      <point x="588" y="631"/>
      <point x="550" y="680"/>
      <point x="494" y="710"/>
      <point x="459" y="710" type="qcurve" smooth="yes"/>
      <point x="184" y="710" type="line"/>
      <point x="33" y="0" type="line"/>
    </contour>
    <contour>
      <point x="117" y="299" type="line"/>
      <point x="200" y="690" type="line"/>
      <point x="454" y="690" type="line" smooth="yes"/>
      <point x="484" y="690"/>
      <point x="534" y="664"/>
      <point x="569" y="620"/>
      <point x="588" y="562"/>
      <point x="588" y="530" type="qcurve" smooth="yes"/>
      <point x="588" y="490"/>
      <point x="555" y="407"/>
      <point x="498" y="341"/>
      <point x="422" y="299"/>
      <point x="378" y="299" type="qcurve" smooth="yes"/>
    </contour>
  </outline>
</glyph>
<glyph name="S" format="2">
  <advance width="579"/>
  <unicode hex="0053"/>
  <outline>
    <contour>
      <point x="244" y="-5" type="qcurve" smooth="yes"/>
      <point x="303" y="-5"/>
      <point x="403" y="20"/>
      <point x="477" y="71"/>
      <point x="518" y="149"/>
      <point x="518" y="201" type="qcurve" smooth="yes"/>
      <point x="518" y="241"/>
      <point x="493" y="292"/>
      <point x="441" y="327"/>
      <point x="362" y="352"/>
      <point x="309" y="365" type="qcurve" smooth="yes"/>
      <point x="262" y="377"/>
      <point x="193" y="397"/>
      <point x="148" y="425"/>
      <point x="127" y="466"/>
      <point x="127" y="498" type="qcurve" smooth="yes"/>
      <point x="127" y="538"/>
      <point x="160" y="610"/>
      <point x="224" y="664"/>
      <point x="318" y="696"/>
      <point x="380" y="696" type="qcurve" smooth="yes"/>
      <point x="410" y="696"/>
      <point x="459" y="688"/>
      <point x="502" y="669"/>
      <point x="538" y="638"/>
      <point x="554" y="616" type="qcurve"/>
      <point x="570" y="630" type="line"/>
      <point x="554" y="652"/>
      <point x="515" y="684"/>
      <point x="468" y="705"/>
      <point x="412" y="715"/>
      <point x="378" y="715" type="qcurve" smooth="yes"/>
      <point x="317" y="715"/>
      <point x="217" y="683"/>
      <point x="145" y="625"/>
      <point x="106" y="545"/>
      <point x="106" y="496" type="qcurve" smooth="yes"/>
      <point x="106" y="457"/>
      <point x="132" y="409"/>
      <point x="183" y="378"/>
      <point x="257" y="358"/>
      <point x="305" y="346" type="qcurve" smooth="yes"/>
      <point x="353" y="334"/>
      <point x="425" y="311"/>
      <point x="473" y="280"/>
      <point x="497" y="234"/>
      <point x="497" y="199" type="qcurve" smooth="yes"/>
      <point x="497" y="155"/>
      <point x="461" y="86"/>
      <point x="396" y="38"/>
      <point x="304" y="13"/>
      <point x="248" y="13" type="qcurve" smooth="yes"/>
      <point x="206" y="13"/>
      <point x="139" y="27"/>
      <point x="83" y="54"/>
      <point x="36" y="93"/>
      <point x="15" y="118" type="qcurve"/>
      <point x="-1" y="105" type="line"/>
      <point x="23" y="77"/>
      <point x="74" y="35"/>
      <point x="133" y="8"/>
      <point x="202" y="-5"/>
    </contour>
  </outline>
</glyph>
<glyph name="U" format="2">
  <advance width="723"/>
  <unicode hex="0055"/>
  <outline>
    <contour>
      <point x="298" y="-5" type="qcurve" smooth="yes"/>
      <point x="376" y="-5"/>
      <point x="494" y="54"/>
      <point x="579" y="153"/>
      <point x="635" y="283"/>
      <point x="650" y="355" type="qcurve" smooth="yes"/>
      <point x="725" y="710" type="line"/>
      <point x="705" y="710" type="line"/>
      <point x="630" y="355" type="line" smooth="yes"/>
      <point x="617" y="294"/>
      <point x="567" y="172"/>
      <point x="487" y="75"/>
      <point x="374" y="15"/>
      <point x="298" y="15" type="qcurve" smooth="yes"/>
      <point x="242" y="15"/>
      <point x="167" y="48"/>
      <point x="122" y="106"/>
      <point x="103" y="184"/>
      <point x="103" y="228" type="qcurve" smooth="yes"/>
      <point x="103" y="260"/>
      <point x="111" y="323"/>
      <point x="118" y="355" type="qcurve" smooth="yes"/>
      <point x="193" y="710" type="line"/>
      <point x="173" y="710" type="line"/>
      <point x="98" y="355" type="line" smooth="yes"/>
      <point x="91" y="322"/>
      <point x="83" y="257"/>
      <point x="83" y="225" type="qcurve" smooth="yes"/>
      <point x="83" y="178"/>
      <point x="105" y="94"/>
      <point x="155" y="31"/>
      <point x="237" y="-5"/>
    </contour>
  </outline>
</glyph>
<glyph name="b" format="2">
  <advance width="576"/>
  <unicode hex="0062"/>
  <outline>
    <contour>
      <point x="231" y="-10" type="qcurve" smooth="yes"/>
      <point x="287" y="-10"/>
      <point x="394" y="44"/>
      <point x="478" y="134"/>
      <point x="529" y="250"/>
      <point x="529" y="313" type="qcurve" smooth="yes"/>
      <point x="529" y="352"/>
      <point x="507" y="429"/>
      <point x="462" y="489"/>
      <point x="395" y="527"/>
      <point x="349" y="527" type="qcurve" smooth="yes"/>
      <point x="285" y="527"/>
      <point x="172" y="455"/>
      <point x="122" y="398" type="qcurve"/>
      <point x="192" y="730" type="line"/>
      <point x="172" y="730" type="line"/>
      <point x="17" y="0" type="line"/>
      <point x="37" y="0" type="line"/>
      <point x="60" y="108" type="line"/>
      <point x="69" y="85"/>
      <point x="100" y="42"/>
      <point x="143" y="9"/>
      <point x="198" y="-10"/>
    </contour>
    <contour>
      <point x="233" y="10" type="qcurve" smooth="yes"/>
      <point x="202" y="10"/>
      <point x="147" y="28"/>
      <point x="103" y="62"/>
      <point x="73" y="111"/>
      <point x="68" y="141" type="qcurve"/>
      <point x="114" y="366" type="line"/>
      <point x="138" y="394"/>
      <point x="190" y="445"/>
      <point x="246" y="484"/>
      <point x="308" y="507"/>
      <point x="342" y="507" type="qcurve" smooth="yes"/>
      <point x="382" y="507"/>
      <point x="444" y="474"/>
      <point x="486" y="420"/>
      <point x="508" y="350"/>
      <point x="508" y="312" type="qcurve" smooth="yes"/>
      <point x="508" y="255"/>
      <point x="462" y="147"/>
      <point x="386" y="62"/>
      <point x="286" y="10"/>
    </contour>
  </outline>
</glyph>
<glyph name="e" format="2">
  <advance width="521"/>
  <unicode hex="0065"/>
  <outline>
    <contour>
      <point x="220" y="-10" type="qcurve" smooth="yes"/>
      <point x="254" y="-10"/>
      <point x="320" y="9"/>
      <point x="379" y="43"/>
      <point x="428" y="92"/>
      <point x="445" y="122" type="qcurve"/>
      <point x="426" y="128" type="line"/>
      <point x="411" y="101"/>
      <point x="366" y="57"/>
      <point x="312" y="27"/>
      <point x="254" y="10"/>
      <point x="227" y="10" type="qcurve" smooth="yes"/>
      <point x="184" y="10"/>
      <point x="118" y="42"/>
      <point x="74" y="97"/>
      <point x="52" y="170"/>
      <point x="52" y="211" type="qcurve" smooth="yes"/>
      <point x="52" y="267"/>
      <point x="95" y="373"/>
      <point x="170" y="456"/>
      <point x="271" y="507"/>
      <point x="328" y="507" type="qcurve" smooth="yes"/>
      <point x="350" y="507"/>
      <point x="398" y="494"/>
      <point x="439" y="465"/>
      <point x="465" y="421"/>
      <point x="465" y="391" type="qcurve" smooth="yes"/>
      <point x="465" y="364"/>
      <point x="440" y="319"/>
      <point x="384" y="286"/>
      <point x="293" y="268"/>
      <point x="227" y="268" type="qcurve" smooth="yes"/>
      <point x="189" y="268"/>
      <point x="108" y="271"/>
      <point x="57" y="274" type="qcurve"/>
      <point x="37" y="255" type="line"/>
      <point x="94" y="251"/>
      <point x="182" y="248"/>
      <point x="224" y="248" type="qcurve" smooth="yes"/>
      <point x="357" y="248"/>
      <point x="486" y="320"/>
      <point x="486" y="390" type="qcurve" smooth="yes"/>
      <point x="486" y="424"/>
      <point x="457" y="475"/>
      <point x="413" y="510"/>
      <point x="359" y="527"/>
      <point x="333" y="527" type="qcurve" smooth="yes"/>
      <point x="269" y="527"/>
      <point x="158" y="472"/>
      <point x="77" y="383"/>
      <point x="31" y="269"/>
      <point x="31" y="210" type="qcurve" smooth="yes"/>
      <point x="31" y="165"/>
      <point x="57" y="85"/>
      <point x="105" y="25"/>
      <point x="175" y="-10"/>
    </contour>
  </outline>
</glyph>
<glyph name="f" format="2">
  <advance width="292"/>
  <unicode hex="0066"/>
  <outline>
    <contour>
      <point x="-12" y="-213" type="line"/>
      <point x="8" y="-213" type="line"/>
      <point x="159" y="499" type="line"/>
      <point x="306" y="499" type="line"/>
      <point x="310" y="519" type="line"/>
      <point x="164" y="519" type="line"/>
      <point x="168" y="540" type="line" smooth="yes"/>
      <point x="185" y="628"/>
      <point x="264" y="721"/>
      <point x="318" y="721" type="qcurve" smooth="yes"/>
      <point x="340" y="721"/>
      <point x="377" y="706"/>
      <point x="386" y="694" type="qcurve"/>
      <point x="404" y="706" type="line"/>
      <point x="394" y="721"/>
      <point x="348" y="740"/>
      <point x="321" y="740" type="qcurve" smooth="yes"/>
      <point x="290" y="740"/>
      <point x="236" y="713"/>
      <point x="191" y="662"/>
      <point x="157" y="587"/>
      <point x="148" y="540" type="qcurve" smooth="yes"/>
      <point x="144" y="519" type="line"/>
      <point x="72" y="519" type="line"/>
      <point x="68" y="499" type="line"/>
      <point x="139" y="499" type="line"/>
    </contour>
  </outline>
</glyph>
<glyph name="k" format="2">
  <advance width="521"/>
  <unicode hex="006B"/>
  <outline>
    <contour>
      <point x="381" y="0" type="line"/>
      <point x="405" y="0" type="line"/>
      <point x="285" y="242" type="line"/>
      <point x="390" y="261"/>
      <point x="511" y="360"/>
      <point x="511" y="426" type="qcurve" smooth="yes"/>
      <point x="511" y="476"/>
      <point x="445" y="531"/>
      <point x="385" y="531" type="qcurve" smooth="yes"/>
      <point x="349" y="531"/>
      <point x="276" y="505"/>
      <point x="203" y="454"/>
      <point x="132" y="376"/>
      <point x="99" y="325" type="qcurve"/>
      <point x="81" y="281" type="line"/>
      <point x="123" y="341"/>
      <point x="202" y="428"/>
      <point x="276" y="485"/>
      <point x="347" y="512"/>
      <point x="382" y="512" type="qcurve" smooth="yes"/>
      <point x="433" y="512"/>
      <point x="489" y="465"/>
      <point x="489" y="423" type="qcurve" smooth="yes"/>
      <point x="489" y="363"/>
      <point x="370" y="277"/>
      <point x="257" y="255" type="qcurve"/>
    </contour>
    <contour>
      <point x="17" y="0" type="line"/>
      <point x="37" y="0" type="line"/>
      <point x="192" y="730" type="line"/>
      <point x="172" y="730" type="line"/>
    </contour>
  </outline>
</glyph>
<glyph name="l" format="2">
  <advance width="224"/>
  <unicode hex="006C"/>
  <outline>
    <contour>
      <point x="96" y="-5" type="qcurve" smooth="yes"/>
      <point x="110" y="-5"/>
      <point x="151" y="2"/>
      <point x="165" y="7" type="qcurve"/>
      <point x="162" y="23" type="line"/>
      <point x="149" y="19"/>
      <point x="119" y="14"/>
      <point x="108" y="14" type="qcurve" smooth="yes"/>
      <point x="83" y="14"/>
      <point x="56" y="38"/>
      <point x="56" y="61" type="qcurve" smooth="yes"/>
      <point x="56" y="65"/>
      <point x="57" y="72"/>
      <point x="58" y="77" type="qcurve" smooth="yes"/>
      <point x="197" y="730" type="line"/>
      <point x="177" y="730" type="line"/>
      <point x="38" y="77" type="line"/>
      <point x="36" y="71"/>
      <point x="36" y="61"/>
      <point x="36" y="56" type="qcurve" smooth="yes"/>
      <point x="36" y="28"/>
      <point x="68" y="-5"/>
    </contour>
  </outline>
</glyph>
<glyph name="m" format="2">
  <advance width="866"/>
  <unicode hex="006D"/>
  <outline>
    <contour>
      <point x="17" y="0" type="line"/>
      <point x="37" y="0" type="line"/>
      <point x="107" y="328" type="line"/>
      <point x="126" y="368"/>
      <point x="178" y="434"/>
      <point x="238" y="481"/>
      <point x="305" y="507"/>
      <point x="339" y="507" type="qcurve" smooth="yes"/>
      <point x="389" y="507"/>
      <point x="436" y="451"/>
      <point x="436" y="393" type="qcurve" smooth="yes"/>
      <point x="436" y="372"/>
      <point x="430" y="320"/>
      <point x="423" y="289" type="qcurve" smooth="yes"/>
      <point x="362" y="0" type="line"/>
      <point x="382" y="0" type="line"/>
      <point x="451" y="327" type="line"/>
      <point x="470" y="367"/>
      <point x="521" y="433"/>
      <point x="581" y="481"/>
      <point x="648" y="507"/>
      <point x="682" y="507" type="qcurve" smooth="yes"/>
      <point x="732" y="507"/>
      <point x="780" y="450"/>
      <point x="780" y="390" type="qcurve" smooth="yes"/>
      <point x="780" y="369"/>
      <point x="774" y="318"/>
      <point x="768" y="289" type="qcurve" smooth="yes"/>
      <point x="707" y="0" type="line"/>
      <point x="727" y="0" type="line"/>
      <point x="788" y="289" type="line" smooth="yes"/>
      <point x="795" y="320"/>
      <point x="801" y="374"/>
      <point x="801" y="396" type="qcurve" smooth="yes"/>
      <point x="801" y="429"/>
      <point x="787" y="478"/>
      <point x="759" y="511"/>
      <point x="717" y="527"/>
      <point x="688" y="527" type="qcurve" smooth="yes"/>
      <point x="656" y="527"/>
      <point x="590" y="507"/>
      <point x="529" y="467"/>
      <point x="476" y="408"/>
      <point x="457" y="370" type="qcurve"/>
      <point x="460" y="407"/>
      <point x="447" y="465"/>
      <point x="417" y="506"/>
      <point x="370" y="527"/>
      <point x="340" y="527" type="qcurve" smooth="yes"/>
      <point x="281" y="527"/>
      <point x="166" y="453"/>
      <point x="119" y="385" type="qcurve"/>
      <point x="147" y="519" type="line"/>
      <point x="127" y="519" type="line"/>
    </contour>
  </outline>
</glyph>
<glyph name="n" format="2">
  <advance width="540"/>
  <unicode hex="006E"/>
  <outline>
    <contour>
      <point x="17" y="0" type="line"/>
      <point x="37" y="0" type="line"/>
      <point x="107" y="328" type="line"/>
      <point x="125" y="366"/>
      <point x="183" y="432"/>
      <point x="252" y="480"/>
      <point x="327" y="507"/>
      <point x="362" y="507" type="qcurve" smooth="yes"/>
      <point x="410" y="507"/>
      <point x="455" y="453"/>
      <point x="455" y="396" type="qcurve" smooth="yes"/>
      <point x="455" y="374"/>
      <point x="449" y="321"/>
      <point x="442" y="289" type="qcurve" smooth="yes"/>
      <point x="381" y="0" type="line"/>
      <point x="401" y="0" type="line"/>
      <point x="462" y="289" type="line" smooth="yes"/>
      <point x="469" y="321"/>
      <point x="476" y="377"/>
      <point x="476" y="401" type="qcurve" smooth="yes"/>
      <point x="476" y="433"/>
      <point x="462" y="481"/>
      <point x="435" y="512"/>
      <point x="394" y="527"/>
      <point x="366" y="527" type="qcurve" smooth="yes"/>
      <point x="333" y="527"/>
      <point x="264" y="506"/>
      <point x="199" y="469"/>
      <point x="141" y="417"/>
      <point x="119" y="385" type="qcurve"/>
      <point x="147" y="519" type="line"/>
      <point x="127" y="519" type="line"/>
    </contour>
  </outline>
</glyph>
<glyph name="o" format="2">
  <advance width="561"/>
  <unicode hex="006F"/>
  <outline>
    <contour>
      <point x="219" y="-10" type="qcurve" smooth="yes"/>
      <point x="276" y="-10"/>
      <point x="383" y="40"/>
      <point x="464" y="127"/>
      <point x="513" y="243"/>
      <point x="513" y="310" type="qcurve" smooth="yes"/>
      <point x="513" y="355"/>
      <point x="489" y="434"/>
      <point x="442" y="493"/>
      <point x="372" y="527"/>
      <point x="325" y="527" type="qcurve" smooth="yes"/>
      <point x="269" y="527"/>
      <point x="163" y="477"/>
      <point x="80" y="390"/>
      <point x="30" y="273"/>
      <point x="30" y="205" type="qcurve" smooth="yes"/>
      <point x="30" y="161"/>
      <point x="53" y="83"/>
      <point x="100" y="24"/>
      <point x="171" y="-10"/>
    </contour>
    <contour>
      <point x="222" y="10" type="qcurve" smooth="yes"/>
      <point x="179" y="10"/>
      <point x="114" y="41"/>
      <point x="71" y="95"/>
      <point x="50" y="167"/>
      <point x="50" y="208" type="qcurve" smooth="yes"/>
      <point x="50" y="271"/>
      <point x="96" y="380"/>
      <point x="172" y="461"/>
      <point x="269" y="507"/>
      <point x="321" y="507" type="qcurve" smooth="yes"/>
      <point x="364" y="507"/>
      <point x="429" y="475"/>
      <point x="472" y="420"/>
      <point x="493" y="347"/>
      <point x="493" y="306" type="qcurve" smooth="yes"/>
      <point x="493" y="244"/>
      <point x="447" y="136"/>
      <point x="372" y="56"/>
      <point x="274" y="10"/>
    </contour>
  </outline>
</glyph>
<glyph name="r" format="2">
  <advance width="306"/>
  <unicode hex="0072"/>
  <outline>
    <contour>
      <point x="348" y="520" type="line"/>
      <point x="343" y="524"/>
      <point x="325" y="527"/>
      <point x="310" y="527" type="curve" smooth="yes"/>
      <point x="253" y="527"/>
      <point x="175" y="470"/>
      <point x="117" y="385" type="curve"/>
      <point x="146" y="519" type="line"/>
      <point x="127" y="519" type="line"/>
      <point x="16" y="0" type="line"/>
      <point x="35" y="0" type="line"/>
      <point x="105" y="328" type="line"/>
      <point x="128" y="377"/>
      <point x="157" y="413"/>
      <point x="195" y="449" type="curve" smooth="yes"/>
      <point x="234" y="486"/>
      <point x="273" y="510"/>
      <point x="299" y="510" type="curve" smooth="yes"/>
      <point x="310" y="510"/>
      <point x="322" y="508"/>
      <point x="336" y="502" type="curve"/>
    </contour>
  </outline>
</glyph>
<glyph name="s" format="2">
  <advance width="450"/>
  <unicode hex="0073"/>
  <outline>
    <contour>
      <point x="159" y="-10" type="qcurve" smooth="yes"/>
      <point x="206" y="-10"/>
      <point x="286" y="12"/>
      <point x="344" y="56"/>
      <point x="377" y="120"/>
      <point x="377" y="162" type="qcurve" smooth="yes"/>
      <point x="377" y="188"/>
      <point x="354" y="223"/>
      <point x="311" y="249"/>
      <point x="250" y="267"/>
      <point x="213" y="277" type="qcurve" smooth="yes"/>
      <point x="183" y="285"/>
      <point x="138" y="299"/>
      <point x="108" y="317"/>
      <point x="93" y="343"/>
      <point x="93" y="362" type="qcurve" smooth="yes"/>
      <point x="93" y="401"/>
      <point x="126" y="456"/>
      <point x="178" y="491"/>
      <point x="242" y="507"/>
      <point x="273" y="507" type="qcurve" smooth="yes"/>
      <point x="321" y="507"/>
      <point x="396" y="475"/>
      <point x="407" y="444" type="qcurve"/>
      <point x="426" y="452" type="line"/>
      <point x="416" y="484"/>
      <point x="341" y="527"/>
      <point x="281" y="527" type="qcurve" smooth="yes"/>
      <point x="239" y="527"/>
      <point x="164" y="506"/>
      <point x="106" y="464"/>
      <point x="72" y="400"/>
      <point x="72" y="356" type="qcurve" smooth="yes"/>
      <point x="72" y="333"/>
      <point x="90" y="302"/>
      <point x="125" y="281"/>
      <point x="175" y="265"/>
      <point x="208" y="257" type="qcurve" smooth="yes"/>
      <point x="243" y="248"/>
      <point x="298" y="230"/>
      <point x="336" y="208"/>
      <point x="356" y="177"/>
      <point x="356" y="155" type="qcurve" smooth="yes"/>
      <point x="356" y="122"/>
      <point x="326" y="68"/>
      <point x="274" y="31"/>
      <point x="204" y="10"/>
      <point x="163" y="10" type="qcurve" smooth="yes"/>
      <point x="110" y="10"/>
      <point x="35" y="48"/>
      <point x="5" y="87" type="qcurve"/>
      <point x="-12" y="74" type="line"/>
      <point x="16" y="31"/>
      <point x="102" y="-10"/>
    </contour>
  </outline>
</glyph>
<glyph name="t" format="2">
  <advance width="281"/>
  <unicode hex="0074"/>
  <outline>
    <contour>
      <point x="48" y="58" type="qcurve" smooth="yes"/>
      <point x="48" y="30"/>
      <point x="88" y="-5"/>
      <point x="119" y="-5" type="qcurve" smooth="yes"/>
      <point x="139" y="-5"/>
      <point x="173" y="4"/>
      <point x="200" y="14"/>
      <point x="216" y="24"/>
      <point x="216" y="24" type="qcurve"/>
      <point x="209" y="40" type="line"/>
      <point x="208" y="39"/>
      <point x="193" y="31"/>
      <point x="170" y="22"/>
      <point x="140" y="15"/>
      <point x="124" y="15" type="qcurve" smooth="yes"/>
      <point x="101" y="15"/>
      <point x="69" y="41"/>
      <point x="69" y="66" type="qcurve" smooth="yes"/>
      <point x="69" y="73"/>
      <point x="74" y="98"/>
      <point x="80" y="126" type="qcurve" smooth="yes"/>
      <point x="160" y="499" type="line"/>
      <point x="279" y="499" type="line"/>
      <point x="283" y="519" type="line"/>
      <point x="165" y="519" type="line"/>
      <point x="203" y="700" type="line"/>
      <point x="183" y="700" type="line"/>
      <point x="145" y="519" type="line"/>
      <point x="73" y="519" type="line"/>
      <point x="69" y="499" type="line"/>
      <point x="140" y="499" type="line"/>
      <point x="50" y="75" type="line" smooth="yes"/>
      <point x="49" y="70"/>
      <point x="48" y="62"/>
    </contour>
  </outline>
</glyph>
<glyph name="u" format="2">
  <advance width="549"/>
  <unicode hex="0075"/>
  <outline>
    <contour>
      <point x="171" y="-10" type="qcurve" smooth="yes"/>
      <point x="203" y="-10"/>
      <point x="270" y="11"/>
      <point x="334" y="48"/>
      <point x="390" y="101"/>
      <point x="412" y="132" type="qcurve"/>
      <point x="384" y="0" type="line"/>
      <point x="404" y="0" type="line"/>
      <point x="515" y="519" type="line"/>
      <point x="495" y="519" type="line"/>
      <point x="424" y="189" type="line"/>
      <point x="408" y="155"/>
      <point x="354" y="90"/>
      <point x="288" y="40"/>
      <point x="213" y="10"/>
      <point x="175" y="10" type="qcurve" smooth="yes"/>
      <point x="114" y="10"/>
      <point x="67" y="76"/>
      <point x="67" y="128" type="qcurve" smooth="yes"/>
      <point x="67" y="151"/>
      <point x="74" y="201"/>
      <point x="80" y="228" type="qcurve" smooth="yes"/>
      <point x="142" y="519" type="line"/>
      <point x="122" y="519" type="line"/>
      <point x="60" y="228" type="line" smooth="yes"/>
      <point x="54" y="202"/>
      <point x="47" y="149"/>
      <point x="47" y="124" type="qcurve" smooth="yes"/>
      <point x="47" y="96"/>
      <point x="59" y="47"/>
      <point x="87" y="11"/>
      <point x="135" y="-10"/>
    </contour>
  </outline>
</glyph>
<glyph name="v" format="2">
  <advance width="451"/>
  <unicode hex="0076"/>
  <outline>
    <contour>
      <point x="147" y="0" type="line"/>
      <point x="170" y="0" type="line"/>
      <point x="456" y="519" type="line"/>
      <point x="431" y="519" type="line"/>
      <point x="163" y="28" type="line"/>
      <point x="85" y="519" type="line"/>
      <point x="64" y="519" type="line"/>
    </contour>
  </outline>
</glyph>
<glyph name="y" format="2">
  <advance width="487"/>
  <unicode hex="0079"/>
  <outline>
    <contour>
      <point x="172" y="0" type="line"/>
      <point x="156" y="-27"/>
      <point x="124" y="-80"/>
      <point x="91" y="-133"/>
      <point x="59" y="-186"/>
      <point x="43" y="-213" type="qcurve"/>
      <point x="61" y="-213" type="line"/>
      <point x="519" y="519" type="line"/>
      <point x="498" y="519" type="line"/>
      <point x="187" y="25" type="line"/>
      <point x="75" y="519" type="line"/>
      <point x="54" y="519" type="line"/>
    </contour>
  </outline>
</glyph>
<glyph name="braceleft" format="2">
  <advance width="217"/>
  <unicode hex="007B"/>
  <outline>
    <contour>
      <point x="256" y="720" type="line"/>
      <point x="260" y="740" type="line"/>
      <point x="210" y="740" type="line" smooth="yes"/>
      <point x="205" y="740"/>
      <point x="186" y="730"/>
      <point x="182" y="710" type="qcurve" smooth="yes"/>
      <point x="119" y="416" type="line"/>
      <point x="118" y="413"/>
      <point x="114" y="398"/>
      <point x="105" y="383"/>
      <point x="91" y="371"/>
      <point x="81" y="371" type="qcurve"/>
      <point x="77" y="351" type="line"/>
      <point x="89" y="349"/>
      <point x="98" y="332"/>
      <point x="98" y="321" type="qcurve" smooth="yes"/>
      <point x="98" y="316"/>
      <point x="97" y="308"/>
      <point x="96" y="304" type="qcurve"/>
      <point x="31" y="-1" type="line"/>
      <point x="30" y="-4"/>
      <point x="30" y="-10"/>
      <point x="30" y="-12" type="qcurve" smooth="yes"/>
      <point x="30" y="-23"/>
      <point x="40" y="-31"/>
      <point x="46" y="-31" type="qcurve" smooth="yes"/>
      <point x="96" y="-31" type="line"/>
      <point x="101" y="-11" type="line"/>
      <point x="48" y="-11" type="line"/>
      <point x="115" y="304" type="line"/>
      <point x="115" y="306"/>
      <point x="117" y="318"/>
      <point x="117" y="326" type="qcurve" smooth="yes"/>
      <point x="117" y="335"/>
      <point x="113" y="353"/>
      <point x="107" y="360" type="qcurve"/>
      <point x="125" y="374"/>
      <point x="138" y="411"/>
      <point x="139" y="416" type="qcurve" smooth="yes"/>
      <point x="204" y="720" type="line"/>
    </contour>
  </outline>
</glyph>
<glyph name="braceright" format="2">
  <advance width="218"/>
  <unicode hex="007D"/>
  <outline>
    <contour>
      <point x="192" y="720" type="line"/>
      <point x="127" y="416" type="line"/>
      <point x="126" y="414"/>
      <point x="125" y="402"/>
      <point x="125" y="394" type="qcurve" smooth="yes"/>
      <point x="125" y="386"/>
      <point x="129" y="368"/>
      <point x="135" y="360" type="qcurve"/>
      <point x="118" y="346"/>
      <point x="104" y="309"/>
      <point x="103" y="304" type="qcurve" smooth="yes"/>
      <point x="36" y="-11" type="line"/>
      <point x="-16" y="-11" type="line"/>
      <point x="-20" y="-31" type="line"/>
      <point x="30" y="-31" type="line" smooth="yes"/>
      <point x="38" y="-31"/>
      <point x="55" y="-18"/>
      <point x="59" y="-1" type="qcurve" smooth="yes"/>
      <point x="123" y="304" type="line" smooth="yes"/>
      <point x="126" y="319"/>
      <point x="145" y="349"/>
      <point x="162" y="351" type="qcurve"/>
      <point x="166" y="371" type="line"/>
      <point x="153" y="371"/>
      <point x="145" y="389"/>
      <point x="145" y="399" type="qcurve" smooth="yes"/>
      <point x="145" y="404"/>
      <point x="146" y="414"/>
      <point x="147" y="416" type="qcurve"/>
      <point x="210" y="710" type="line"/>
      <point x="211" y="712"/>
      <point x="211" y="717"/>
      <point x="211" y="719" type="qcurve" smooth="yes"/>
      <point x="211" y="733"/>
      <point x="197" y="740"/>
      <point x="194" y="740" type="qcurve" smooth="yes"/>
      <point x="144" y="740" type="line"/>
      <point x="140" y="720" type="line"/>
    </contour>
  </outline>
</glyph>
<glyph name="asciitilde" format="2">
  <advance width="442"/>
  <unicode hex="007E"/>
  <outline>
    <contour>
      <point x="56" y="251" type="qcurve"/>
      <point x="76" y="251" type="line"/>
      <point x="76" y="252"/>
      <point x="84" y="271"/>
      <point x="101" y="294"/>
      <point x="125" y="312"/>
      <point x="140" y="312" type="qcurve" smooth="yes"/>
      <point x="156" y="312"/>
      <point x="189" y="293"/>
      <point x="225" y="270"/>
      <point x="265" y="251"/>
      <point x="289" y="251" type="qcurve" smooth="yes"/>
      <point x="315" y="251"/>
      <point x="349" y="274"/>
      <point x="370" y="301"/>
      <point x="379" y="324"/>
      <point x="379" y="324" type="qcurve"/>
      <point x="359" y="325" type="line"/>
      <point x="359" y="323"/>
      <point x="351" y="306"/>
      <point x="333" y="286"/>
      <point x="307" y="271"/>
      <point x="289" y="271" type="qcurve" smooth="yes"/>
      <point x="269" y="271"/>
      <point x="233" y="290"/>
      <point x="197" y="313"/>
      <point x="160" y="332"/>
      <point x="140" y="332" type="qcurve" smooth="yes"/>
      <point x="118" y="332"/>
      <point x="86" y="308"/>
      <point x="65" y="278"/>
      <point x="56" y="253"/>
    </contour>
  </outline>
</glyph>
<glyph name="exclamdown" format="2">
  <advance width="224"/>
  <unicode hex="00A1"/>
  <outline>
    <contour>
      <point x="215" y="490" type="qcurve"/>
      <point x="216" y="497"/>
      <point x="213" y="510"/>
      <point x="205" y="519"/>
      <point x="194" y="524"/>
      <point x="187" y="524" type="qcurve" smooth="yes"/>
      <point x="180" y="524"/>
      <point x="166" y="519"/>
      <point x="155" y="510"/>
      <point x="148" y="497"/>
      <point x="146" y="490" type="qcurve"/>
      <point x="145" y="483"/>
      <point x="147" y="471"/>
      <point x="154" y="462"/>
      <point x="165" y="457"/>
      <point x="172" y="457" type="qcurve" smooth="yes"/>
      <point x="179" y="457"/>
      <point x="193" y="462"/>
      <point x="204" y="471"/>
      <point x="213" y="483"/>
    </contour>
    <contour>
      <point x="133" y="319" type="line"/>
      <point x="90" y="119" type="line"/>
      <point x="23" y="-198" type="line"/>
      <point x="43" y="-198" type="line"/>
      <point x="110" y="119" type="line"/>
      <point x="153" y="319" type="line"/>
    </contour>
  </outline>
</glyph>
<glyph name="sterling" format="2">
  <advance width="446"/>
  <unicode hex="00A3"/>
  <outline>
    <contour>
      <point x="60" y="346" type="line"/>
      <point x="351" y="346" type="line"/>
      <point x="356" y="366" type="line"/>
      <point x="64" y="366" type="line"/>
    </contour>
    <contour>
      <point x="2" y="-7" type="line"/>
      <point x="23" y="-2"/>
      <point x="74" y="5"/>
      <point x="94" y="5" type="qcurve" smooth="yes"/>
      <point x="115" y="5"/>
      <point x="149" y="-1"/>
      <point x="181" y="-9"/>
      <point x="215" y="-15"/>
      <point x="236" y="-15" type="qcurve" smooth="yes"/>
      <point x="261" y="-15"/>
      <point x="312" y="-4"/>
      <point x="341" y="7" type="qcurve"/>
      <point x="339" y="26" type="line"/>
      <point x="307" y="15"/>
      <point x="261" y="5"/>
      <point x="241" y="5" type="qcurve" smooth="yes"/>
      <point x="223" y="5"/>
      <point x="192" y="11"/>
      <point x="161" y="19"/>
      <point x="127" y="25"/>
      <point x="105" y="25" type="qcurve" smooth="yes"/>
      <point x="88" y="25"/>
      <point x="52" y="21"/>
      <point x="36" y="18" type="qcurve"/>
      <point x="91" y="69"/>
      <point x="156" y="142"/>
      <point x="191" y="201"/>
      <point x="201" y="255"/>
      <point x="201" y="286" type="qcurve" smooth="yes"/>
      <point x="201" y="322"/>
      <point x="185" y="384"/>
      <point x="167" y="441"/>
      <point x="151" y="497"/>
      <point x="151" y="525" type="qcurve" smooth="yes"/>
      <point x="151" y="560"/>
      <point x="180" y="621"/>
      <point x="227" y="668"/>
      <point x="286" y="695"/>
      <point x="317" y="695" type="qcurve" smooth="yes"/>
      <point x="359" y="695"/>
      <point x="422" y="643"/>
      <point x="436" y="598" type="qcurve"/>
      <point x="455" y="610" type="line"/>
      <point x="441" y="658"/>
      <point x="371" y="715"/>
      <point x="323" y="715" type="qcurve" smooth="yes"/>
      <point x="287" y="715"/>
      <point x="217" y="683"/>
      <point x="163" y="630"/>
      <point x="129" y="559"/>
      <point x="129" y="520" type="qcurve" smooth="yes"/>
      <point x="129" y="491"/>
      <point x="145" y="436"/>
      <point x="164" y="379"/>
      <point x="180" y="318"/>
      <point x="180" y="283" type="qcurve" smooth="yes"/>
      <point x="180" y="251"/>
      <point x="170" y="201"/>
      <point x="132" y="143"/>
      <point x="59" y="67"/>
      <point x="-4" y="10" type="qcurve"/>
    </contour>
  </outline>
</glyph>
<glyph name="section" format="2">
  <advance width="468"/>
  <unicode hex="00A7"/>
  <outline>
    <contour>
      <point x="346" y="181" type="qcurve"/>
      <point x="358" y="192"/>
      <point x="380" y="220"/>
      <point x="396" y="253"/>
      <point x="405" y="289"/>
      <point x="405" y="307" type="qcurve" smooth="yes"/>
      <point x="405" y="339"/>
      <point x="379" y="384"/>
      <point x="337" y="413"/>
      <point x="282" y="426"/>
      <point x="252" y="426" type="qcurve" smooth="yes"/>
      <point x="192" y="426"/>
      <point x="119" y="472"/>
      <point x="119" y="528" type="qcurve" smooth="yes"/>
      <point x="119" y="567"/>
      <point x="155" y="629"/>
      <point x="210" y="672"/>
      <point x="276" y="695"/>
      <point x="307" y="695" type="qcurve" smooth="yes"/>
      <point x="325" y="695"/>
      <point x="365" y="690"/>
      <point x="401" y="676"/>
      <point x="428" y="652"/>
      <point x="433" y="632" type="qcurve"/>
      <point x="453" y="640" type="line"/>
      <point x="445" y="658"/>
      <point x="422" y="686"/>
      <point x="389" y="705"/>
      <point x="343" y="715"/>
      <point x="311" y="715" type="qcurve" smooth="yes"/>
      <point x="278" y="715"/>
      <point x="203" y="690"/>
      <point x="140" y="642"/>
      <point x="98" y="571"/>
      <point x="98" y="525" type="qcurve" smooth="yes"/>
      <point x="98" y="496"/>
      <point x="116" y="447"/>
      <point x="133" y="435" type="qcurve"/>
      <point x="123" y="425"/>
      <point x="103" y="398"/>
      <point x="87" y="366"/>
      <point x="78" y="330"/>
      <point x="78" y="312" type="qcurve" smooth="yes"/>
      <point x="78" y="281"/>
      <point x="102" y="235"/>
      <point x="142" y="205"/>
      <point x="196" y="191"/>
      <point x="227" y="190" type="qcurve" smooth="yes"/>
      <point x="251" y="189"/>
      <point x="297" y="182"/>
      <point x="334" y="162"/>
      <point x="357" y="127"/>
      <point x="357" y="99" type="qcurve" smooth="yes"/>
      <point x="357" y="60"/>
      <point x="321" y="-2"/>
      <point x="265" y="-45"/>
      <point x="198" y="-68"/>
      <point x="167" y="-68" type="qcurve" smooth="yes"/>
      <point x="119" y="-68"/>
      <point x="50" y="-31"/>
      <point x="20" y="7" type="qcurve"/>
      <point x="2" y="-6" type="line"/>
      <point x="14" y="-23"/>
      <point x="45" y="-53"/>
      <point x="83" y="-75"/>
      <point x="132" y="-88"/>
      <point x="162" y="-88" type="qcurve" smooth="yes"/>
      <point x="196" y="-88"/>
      <point x="272" y="-63"/>
      <point x="337" y="-14"/>
      <point x="379" y="59"/>
      <point x="379" y="106" type="qcurve" smooth="yes"/>
      <point x="379" y="131"/>
      <point x="363" y="170"/>
    </contour>
    <contour>
      <point x="98" y="312" type="qcurve" smooth="yes"/>
      <point x="98" y="347"/>
      <point x="129" y="408"/>
      <point x="150" y="425" type="qcurve"/>
      <point x="170" y="415"/>
      <point x="220" y="406"/>
      <point x="248" y="406" type="qcurve" smooth="yes"/>
      <point x="272" y="406"/>
      <point x="320" y="396"/>
      <point x="360" y="372"/>
      <point x="385" y="332"/>
      <point x="385" y="303" type="qcurve" smooth="yes"/>
      <point x="385" y="271"/>
      <point x="352" y="208"/>
      <point x="328" y="190" type="qcurve"/>
      <point x="303" y="202"/>
      <point x="224" y="207"/>
      <point x="151" y="224"/>
      <point x="98" y="265"/>
    </contour>
  </outline>
</glyph>
<glyph name="copyright" format="2">
  <advance width="836"/>
  <unicode hex="00A9"/>
  <outline>
    <contour>
      <point x="429" y="-7" type="qcurve" smooth="yes"/>
      <point x="507" y="-7"/>
      <point x="639" y="48"/>
      <point x="735" y="145"/>
      <point x="790" y="277"/>
      <point x="790" y="355" type="qcurve" smooth="yes"/>
      <point x="790" y="432"/>
      <point x="735" y="564"/>
      <point x="639" y="660"/>
      <point x="507" y="715"/>
      <point x="429" y="715" type="qcurve" smooth="yes"/>
      <point x="351" y="715"/>
      <point x="219" y="660"/>
      <point x="123" y="564"/>
      <point x="68" y="432"/>
      <point x="68" y="355" type="qcurve" smooth="yes"/>
      <point x="68" y="277"/>
      <point x="123" y="145"/>
      <point x="219" y="48"/>
      <point x="351" y="-7"/>
    </contour>
    <contour>
      <point x="430" y="13" type="qcurve" smooth="yes"/>
      <point x="356" y="13"/>
      <point x="231" y="65"/>
      <point x="140" y="156"/>
      <point x="89" y="281"/>
      <point x="89" y="354" type="qcurve" smooth="yes"/>
      <point x="89" y="428"/>
      <point x="140" y="552"/>
      <point x="232" y="644"/>
      <point x="357" y="695"/>
      <point x="430" y="695" type="qcurve" smooth="yes"/>
      <point x="503" y="695"/>
      <point x="627" y="644"/>
      <point x="718" y="552"/>
      <point x="769" y="426"/>
      <point x="769" y="352" type="qcurve" smooth="yes"/>
      <point x="769" y="277"/>
      <point x="717" y="152"/>
      <point x="625" y="62"/>
      <point x="502" y="13"/>
    </contour>
    <contour>
      <point x="436" y="127" type="qcurve" smooth="yes"/>
      <point x="471" y="127"/>
      <point x="531" y="150"/>
      <point x="576" y="183"/>
      <point x="604" y="220"/>
      <point x="608" y="233" type="qcurve"/>
      <point x="589" y="238" type="line"/>
      <point x="580" y="217"/>
      <point x="545" y="183"/>
      <point x="502" y="160"/>
      <point x="454" y="147"/>
      <point x="432" y="147" type="qcurve" smooth="yes"/>
      <point x="400" y="147"/>
      <point x="331" y="175"/>
      <point x="274" y="228"/>
      <point x="237" y="305"/>
      <point x="237" y="355" type="qcurve" smooth="yes"/>
      <point x="237" y="391"/>
      <point x="260" y="466"/>
      <point x="306" y="527"/>
      <point x="379" y="566"/>
      <point x="428" y="566" type="qcurve" smooth="yes"/>
      <point x="445" y="566"/>
      <point x="487" y="560"/>
      <point x="530" y="541"/>
      <point x="567" y="507"/>
      <point x="579" y="480" type="qcurve"/>
      <point x="598" y="487" type="line"/>
      <point x="578" y="538"/>
      <point x="484" y="586"/>
      <point x="428" y="586" type="qcurve" smooth="yes"/>
      <point x="373" y="586"/>
      <point x="293" y="544"/>
      <point x="242" y="477"/>
      <point x="217" y="395"/>
      <point x="217" y="355" type="qcurve" smooth="yes"/>
      <point x="217" y="301"/>
      <point x="257" y="216"/>
      <point x="320" y="157"/>
      <point x="398" y="127"/>
    </contour>
  </outline>
</glyph>
<glyph name="ordfeminine" format="2">
  <advance width="404"/>
  <unicode hex="00AA"/>
  <outline>
    <contour>
      <point x="171" y="351" type="qcurve" smooth="yes"/>
      <point x="214" y="351"/>
      <point x="296" y="385"/>
      <point x="326" y="416" type="qcurve"/>
      <point x="316" y="356" type="line"/>
      <point x="342" y="356" type="line"/>
      <point x="342" y="357"/>
      <point x="344" y="371"/>
      <point x="347" y="387"/>
      <point x="350" y="401"/>
      <point x="350" y="402" type="qcurve"/>
      <point x="386" y="573" type="line" smooth="yes"/>
      <point x="388" y="583"/>
      <point x="390" y="602"/>
      <point x="390" y="611" type="qcurve" smooth="yes"/>
      <point x="390" y="658"/>
      <point x="334" y="709"/>
      <point x="282" y="709" type="qcurve" smooth="yes"/>
      <point x="253" y="709"/>
      <point x="186" y="686"/>
      <point x="148" y="663" type="qcurve"/>
      <point x="156" y="643" type="line"/>
      <point x="190" y="663"/>
      <point x="250" y="684"/>
      <point x="275" y="684" type="qcurve" smooth="yes"/>
      <point x="316" y="684"/>
      <point x="360" y="641"/>
      <point x="360" y="604" type="qcurve" smooth="yes"/>
      <point x="360" y="597"/>
      <point x="359" y="584"/>
      <point x="357" y="576" type="qcurve"/>
      <point x="350" y="541" type="line"/>
      <point x="329" y="550"/>
      <point x="274" y="560"/>
      <point x="245" y="560" type="qcurve" smooth="yes"/>
      <point x="211" y="560"/>
      <point x="150" y="542"/>
      <point x="105" y="511"/>
      <point x="79" y="467"/>
      <point x="79" y="440" type="qcurve" smooth="yes"/>
      <point x="79" y="402"/>
      <point x="129" y="351"/>
    </contour>
    <contour>
      <point x="182" y="377" type="qcurve" smooth="yes"/>
      <point x="149" y="377"/>
      <point x="109" y="416"/>
      <point x="109" y="445" type="qcurve" smooth="yes"/>
      <point x="109" y="488"/>
      <point x="186" y="537"/>
      <point x="244" y="537" type="qcurve" smooth="yes"/>
      <point x="272" y="537"/>
      <point x="322" y="529"/>
      <point x="345" y="518" type="qcurve"/>
      <point x="332" y="457" type="line" smooth="yes"/>
      <point x="328" y="440"/>
      <point x="298" y="411"/>
      <point x="255" y="389"/>
      <point x="205" y="377"/>
    </contour>
  </outline>
</glyph>
<glyph name="degree" format="2">
  <advance width="245"/>
  <unicode hex="00B0"/>
  <outline>
    <contour>
      <point x="180" y="586" type="qcurve" smooth="yes"/>
      <point x="196" y="586"/>
      <point x="226" y="599"/>
      <point x="249" y="622"/>
      <point x="263" y="651"/>
      <point x="263" y="667" type="qcurve" smooth="yes"/>
      <point x="263" y="691"/>
      <point x="233" y="724"/>
      <point x="210" y="724" type="qcurve" smooth="yes"/>
      <point x="193" y="724"/>
      <point x="163" y="709"/>
      <point x="140" y="685"/>
      <point x="127" y="655"/>
      <point x="127" y="640" type="qcurve" smooth="yes"/>
      <point x="127" y="617"/>
      <point x="157" y="586"/>
    </contour>
    <contour>
      <point x="185" y="606" type="qcurve" smooth="yes"/>
      <point x="168" y="606"/>
      <point x="150" y="629"/>
      <point x="150" y="646" type="qcurve" smooth="yes"/>
      <point x="150" y="669"/>
      <point x="183" y="701"/>
      <point x="205" y="701" type="qcurve" smooth="yes"/>
      <point x="222" y="701"/>
      <point x="243" y="684"/>
      <point x="243" y="664" type="qcurve" smooth="yes"/>
      <point x="243" y="640"/>
      <point x="204" y="606"/>
    </contour>
  </outline>
</glyph>
<glyph name="twosuperior" format="2">
  <advance width="354"/>
  <unicode hex="00B2"/>
  <outline>
    <contour>
      <point x="338" y="423" type="line"/>
      <point x="342" y="442" type="line"/>
      <point x="96" y="442" type="line"/>
      <point x="99" y="457"/>
      <point x="112" y="495"/>
      <point x="142" y="533"/>
      <point x="193" y="570"/>
      <point x="233" y="583" type="qcurve" smooth="yes"/>
      <point x="257" y="591"/>
      <point x="314" y="609"/>
      <point x="365" y="639"/>
      <point x="399" y="686"/>
      <point x="399" y="722" type="qcurve" smooth="yes"/>
      <point x="399" y="758"/>
      <point x="350" y="811"/>
      <point x="294" y="811" type="qcurve" smooth="yes"/>
      <point x="260" y="811"/>
      <point x="204" y="791"/>
      <point x="164" y="767"/>
      <point x="142" y="746"/>
      <point x="140" y="744" type="qcurve"/>
      <point x="153" y="729" type="line"/>
      <point x="161" y="737"/>
      <point x="187" y="759"/>
      <point x="222" y="779"/>
      <point x="266" y="792"/>
      <point x="292" y="792" type="qcurve" smooth="yes"/>
      <point x="340" y="792"/>
      <point x="380" y="748"/>
      <point x="380" y="719" type="qcurve" smooth="yes"/>
      <point x="380" y="689"/>
      <point x="349" y="649"/>
      <point x="303" y="623"/>
      <point x="247" y="605"/>
      <point x="221" y="596" type="qcurve" smooth="yes"/>
      <point x="192" y="586"/>
      <point x="142" y="557"/>
      <point x="103" y="516"/>
      <point x="75" y="460"/>
      <point x="67" y="423" type="qcurve"/>
    </contour>
  </outline>
</glyph>
<glyph name="threesuperior" format="2">
  <advance width="363"/>
  <unicode hex="00B3"/>
  <outline>
    <contour>
      <point x="205" y="418" type="qcurve" smooth="yes"/>
      <point x="237" y="418"/>
      <point x="297" y="436"/>
      <point x="342" y="467"/>
      <point x="369" y="511"/>
      <point x="369" y="536" type="qcurve" smooth="yes"/>
      <point x="369" y="566"/>
      <point x="328" y="611"/>
      <point x="292" y="618" type="qcurve"/>
      <point x="345" y="629"/>
      <point x="397" y="682"/>
      <point x="397" y="720" type="qcurve" smooth="yes"/>
      <point x="397" y="759"/>
      <point x="334" y="811"/>
      <point x="281" y="811" type="qcurve" smooth="yes"/>
      <point x="259" y="811"/>
      <point x="217" y="802"/>
      <point x="180" y="784"/>
      <point x="150" y="760"/>
      <point x="140" y="745" type="qcurve"/>
      <point x="152" y="733" type="line"/>
      <point x="169" y="759"/>
      <point x="237" y="793"/>
      <point x="277" y="793" type="qcurve" smooth="yes"/>
      <point x="322" y="793"/>
      <point x="376" y="751"/>
      <point x="376" y="717" type="qcurve" smooth="yes"/>
      <point x="376" y="695"/>
      <point x="356" y="662"/>
      <point x="319" y="639"/>
      <point x="264" y="627"/>
      <point x="229" y="627" type="qcurve" smooth="yes"/>
      <point x="208" y="627" type="line"/>
      <point x="204" y="609" type="line"/>
      <point x="225" y="609" type="line" smooth="yes"/>
      <point x="283" y="609"/>
      <point x="349" y="569"/>
      <point x="349" y="534" type="qcurve" smooth="yes"/>
      <point x="349" y="513"/>
      <point x="326" y="478"/>
      <point x="288" y="452"/>
      <point x="237" y="437"/>
      <point x="209" y="437" type="qcurve" smooth="yes"/>
      <point x="184" y="437"/>
      <point x="143" y="448"/>
      <point x="116" y="469"/>
      <point x="101" y="501"/>
      <point x="101" y="521" type="qcurve"/>
      <point x="84" y="514" type="line"/>
      <point x="84" y="472"/>
      <point x="145" y="418"/>
    </contour>
  </outline>
</glyph>
<glyph name="micro" format="2">
  <advance width="580"/>
  <unicode hex="00B5"/>
  <outline>
    <contour>
      <point x="-19" y="-212" type="line"/>
      <point x="1" y="-212" type="line"/>
      <point x="66" y="94" type="line"/>
      <point x="73" y="42"/>
      <point x="131" y="-10"/>
      <point x="183" y="-10" type="qcurve" smooth="yes"/>
      <point x="216" y="-10"/>
      <point x="283" y="10"/>
      <point x="347" y="47"/>
      <point x="405" y="99"/>
      <point x="428" y="132" type="qcurve"/>
      <point x="406" y="0" type="line"/>
      <point x="420" y="0" type="line"/>
      <point x="530" y="519" type="line"/>
      <point x="509" y="519" type="line"/>
      <point x="439" y="189" type="line"/>
      <point x="420" y="150"/>
      <point x="363" y="84"/>
      <point x="296" y="37"/>
      <point x="223" y="10"/>
      <point x="187" y="10" type="qcurve" smooth="yes"/>
      <point x="134" y="10"/>
      <point x="83" y="70"/>
      <point x="83" y="131" type="qcurve" smooth="yes"/>
      <point x="83" y="151"/>
      <point x="89" y="200"/>
      <point x="95" y="228" type="qcurve" smooth="yes"/>
      <point x="157" y="519" type="line"/>
      <point x="136" y="519" type="line"/>
    </contour>
  </outline>
</glyph>
<glyph name="paragraph" format="2">
  <advance width="541"/>
  <unicode hex="00B6"/>
  <outline>
    <contour>
      <point x="64" y="433" type="qcurve" smooth="yes"/>
      <point x="64" y="390"/>
      <point x="94" y="323"/>
      <point x="151" y="275"/>
      <point x="234" y="249"/>
      <point x="288" y="248" type="qcurve"/>
      <point x="218" y="-80" type="line"/>
      <point x="238" y="-80" type="line"/>
      <point x="308" y="248" type="line"/>
      <point x="394" y="248" type="line"/>
      <point x="324" y="-80" type="line"/>
      <point x="344" y="-80" type="line"/>
      <point x="508" y="690" type="line"/>
      <point x="574" y="690" type="line"/>
      <point x="579" y="710" type="line"/>
      <point x="387" y="710" type="line" smooth="yes"/>
      <point x="314" y="710"/>
      <point x="194" y="670"/>
      <point x="110" y="597"/>
      <point x="64" y="495"/>
    </contour>
    <contour>
      <point x="84" y="438" type="qcurve" smooth="yes"/>
      <point x="84" y="494"/>
      <point x="124" y="587"/>
      <point x="200" y="653"/>
      <point x="311" y="690"/>
      <point x="382" y="690" type="qcurve"/>
      <point x="292" y="268" type="line"/>
      <point x="249" y="270"/>
      <point x="173" y="291"/>
      <point x="117" y="332"/>
      <point x="84" y="395"/>
    </contour>
    <contour>
      <point x="398" y="268" type="line"/>
      <point x="312" y="268" type="line"/>
      <point x="402" y="690" type="line"/>
      <point x="488" y="690" type="line"/>
    </contour>
  </outline>
</glyph>
<glyph name="onehalf" format="2">
  <advance width="714"/>
  <unicode hex="00BD"/>
  <outline>
    <contour>
      <point x="159" y="361" type="line"/>
      <point x="238" y="731" type="line"/>
      <point x="218" y="731" type="line"/>
      <point x="217" y="730"/>
      <point x="196" y="713"/>
      <point x="166" y="693"/>
      <point x="130" y="677"/>
      <point x="115" y="677" type="qcurve"/>
      <point x="111" y="658" type="line"/>
      <point x="123" y="658"/>
      <point x="153" y="668"/>
      <point x="182" y="682"/>
      <point x="207" y="699"/>
      <point x="213" y="705" type="qcurve"/>
      <point x="140" y="361" type="line"/>
      <point x="61" y="361" type="line"/>
      <point x="57" y="342" type="line"/>
      <point x="229" y="342" type="line"/>
      <point x="233" y="361" type="line"/>
    </contour>
    <contour>
      <point x="-22" y="-1" type="line"/>
      <point x="294" y="325" type="line"/>
      <point x="657" y="699" type="line"/>
      <point x="644" y="711" type="line"/>
      <point x="283" y="339" type="line"/>
      <point x="-35" y="11" type="line"/>
    </contour>
    <contour>
      <point x="608" y="0" type="line"/>
      <point x="612" y="19" type="line"/>
      <point x="366" y="19" type="line"/>
      <point x="369" y="34"/>
      <point x="382" y="72"/>
      <point x="412" y="110"/>
      <point x="463" y="147"/>
      <point x="503" y="160" type="qcurve" smooth="yes"/>
      <point x="527" y="168"/>
      <point x="584" y="186"/>
      <point x="635" y="216"/>
      <point x="669" y="263"/>
      <point x="669" y="299" type="qcurve" smooth="yes"/>
      <point x="669" y="335"/>
      <point x="620" y="388"/>
      <point x="564" y="388" type="qcurve" smooth="yes"/>
      <point x="530" y="388"/>
      <point x="474" y="368"/>
      <point x="434" y="344"/>
      <point x="412" y="323"/>
      <point x="410" y="321" type="qcurve"/>
      <point x="423" y="306" type="line"/>
      <point x="431" y="314"/>
      <point x="457" y="336"/>
      <point x="492" y="356"/>
      <point x="536" y="369"/>
      <point x="562" y="369" type="qcurve" smooth="yes"/>
      <point x="610" y="369"/>
      <point x="650" y="325"/>
      <point x="650" y="296" type="qcurve" smooth="yes"/>
      <point x="650" y="266"/>
      <point x="619" y="226"/>
      <point x="573" y="200"/>
      <point x="517" y="182"/>
      <point x="491" y="173" type="qcurve" smooth="yes"/>
      <point x="462" y="163"/>
      <point x="412" y="134"/>
      <point x="373" y="93"/>
      <point x="345" y="37"/>
      <point x="337" y="0" type="qcurve"/>
    </contour>
  </outline>
</glyph>
<glyph name="questiondown" format="2">
  <advance width="453"/>
  <unicode hex="00BF"/>
  <outline>
    <contour>
      <point x="279" y="340" type="line"/>
      <point x="246" y="293"/>
      <point x="213" y="265"/>
      <point x="166" y="232" type="curve" smooth="yes"/>
      <point x="126" y="203"/>
      <point x="86" y="178"/>
      <point x="48" y="139" type="curve" smooth="yes"/>
      <point x="14" y="103"/>
      <point x="-13" y="56"/>
      <point x="-28" y="-13" type="curve"/>
      <point x="-31" y="-29"/>
      <point x="-33" y="-44"/>
      <point x="-33" y="-59" type="curve" smooth="yes"/>
      <point x="-33" y="-144"/>
      <point x="23" y="-200"/>
      <point x="115" y="-200" type="curve" smooth="yes"/>
      <point x="199" y="-200"/>
      <point x="295" y="-151"/>
      <point x="347" y="-71" type="curve"/>
      <point x="331" y="-63" type="line"/>
      <point x="281" y="-136"/>
      <point x="197" y="-180"/>
      <point x="119" y="-180" type="curve" smooth="yes"/>
      <point x="36" y="-180"/>
      <point x="-14" y="-134"/>
      <point x="-14" y="-59" type="curve" smooth="yes"/>
      <point x="-14" y="-46"/>
      <point x="-13" y="-31"/>
      <point x="-9" y="-16" type="curve"/>
      <point x="18" y="110"/>
      <point x="82" y="153"/>
      <point x="186" y="225" type="curve" smooth="yes"/>
      <point x="234" y="258"/>
      <point x="280" y="302"/>
      <point x="285" y="327" type="curve"/>
      <point x="286" y="331"/>
      <point x="286" y="336"/>
      <point x="285" y="340" type="curve"/>
    </contour>
    <contour>
      <point x="349" y="490" type="curve" smooth="yes"/>
      <point x="353" y="509"/>
      <point x="342" y="524"/>
      <point x="323" y="524" type="curve" smooth="yes"/>
      <point x="304" y="524"/>
      <point x="287" y="509"/>
      <point x="283" y="490" type="curve" smooth="yes"/>
      <point x="279" y="471"/>
      <point x="290" y="457"/>
      <point x="309" y="457" type="curve" smooth="yes"/>
      <point x="328" y="457"/>
      <point x="345" y="471"/>
    </contour>
  </outline>
</glyph>
<glyph name="Idieresis" format="2">
  <advance width="214"/>
  <unicode hex="00CF"/>
  <outline>
    <contour>
      <point x="33" y="0" type="line"/>
      <point x="53" y="0" type="line"/>
      <point x="204" y="709" type="line"/>
      <point x="184" y="709" type="line"/>
    </contour>
    <contour>
      <point x="139" y="880" type="qcurve" smooth="yes"/>
      <point x="136" y="866"/>
      <point x="150" y="846"/>
      <point x="164" y="846" type="qcurve" smooth="yes"/>
      <point x="178" y="846"/>
      <point x="201" y="866"/>
      <point x="204" y="880" type="qcurve" smooth="yes"/>
      <point x="207" y="894"/>
      <point x="192" y="913"/>
      <point x="178" y="913" type="qcurve" smooth="yes"/>
      <point x="164" y="913"/>
      <point x="142" y="894"/>
    </contour>
    <contour>
      <point x="248" y="880" type="qcurve" smooth="yes"/>
      <point x="245" y="866"/>
      <point x="260" y="846"/>
      <point x="274" y="846" type="qcurve" smooth="yes"/>
      <point x="288" y="846"/>
      <point x="310" y="866"/>
      <point x="313" y="880" type="qcurve" smooth="yes"/>
      <point x="316" y="894"/>
      <point x="302" y="913"/>
      <point x="288" y="913" type="qcurve" smooth="yes"/>
      <point x="274" y="913"/>
      <point x="251" y="894"/>
    </contour>
  </outline>
</glyph>
<glyph name="Thorn" format="2">
  <advance width="574"/>
  <unicode hex="00DE"/>
  <outline>
    <contour>
      <point x="33" y="0" type="line"/>
      <point x="53" y="0" type="line"/>
      <point x="80" y="129" type="line"/>
      <point x="323" y="129" type="line" smooth="yes"/>
      <point x="370" y="129"/>
      <point x="455" y="174"/>
      <point x="519" y="246"/>
      <point x="557" y="337"/>
      <point x="557" y="383" type="qcurve" smooth="yes"/>
      <point x="557" y="417"/>
      <point x="537" y="481"/>
      <point x="499" y="530"/>
      <point x="443" y="560"/>
      <point x="408" y="560" type="qcurve" smooth="yes"/>
      <point x="172" y="560" type="line"/>
      <point x="204" y="710" type="line"/>
      <point x="184" y="710" type="line"/>
    </contour>
    <contour>
      <point x="85" y="149" type="line"/>
      <point x="168" y="540" type="line"/>
      <point x="403" y="540" type="line" smooth="yes"/>
      <point x="433" y="540"/>
      <point x="483" y="514"/>
      <point x="518" y="470"/>
      <point x="537" y="412"/>
      <point x="537" y="380" type="qcurve" smooth="yes"/>
      <point x="537" y="340"/>
      <point x="505" y="258"/>
      <point x="448" y="191"/>
      <point x="371" y="149"/>
      <point x="327" y="149" type="qcurve" smooth="yes"/>
    </contour>
  </outline>
</glyph>
<glyph name="germandbls" format="2">
  <advance width="523"/>
  <unicode hex="00DF"/>
  <outline>
    <contour>
      <point x="155" y="-6" type="line"/>
      <point x="229" y="-3"/>
      <point x="343" y="34"/>
      <point x="421" y="98"/>
      <point x="462" y="189"/>
      <point x="462" y="245" type="qcurve" smooth="yes"/>
      <point x="462" y="306"/>
      <point x="398" y="390"/>
      <point x="335" y="404" type="qcurve"/>
      <point x="364" y="410"/>
      <point x="418" y="444"/>
      <point x="460" y="492"/>
      <point x="485" y="552"/>
      <point x="485" y="583" type="qcurve" smooth="yes"/>
      <point x="485" y="640"/>
      <point x="408" y="714"/>
      <point x="344" y="714" type="qcurve" smooth="yes"/>
      <point x="305" y="714"/>
      <point x="234" y="685"/>
      <point x="176" y="631"/>
      <point x="135" y="555"/>
      <point x="125" y="509" type="qcurve" smooth="yes"/>
      <point x="17" y="0" type="line"/>
      <point x="37" y="0" type="line"/>
      <point x="145" y="509" type="line" smooth="yes"/>
      <point x="154" y="551"/>
      <point x="190" y="619"/>
      <point x="241" y="668"/>
      <point x="304" y="694"/>
      <point x="339" y="694" type="qcurve" smooth="yes"/>
      <point x="396" y="694"/>
      <point x="464" y="627"/>
      <point x="464" y="576" type="qcurve" smooth="yes"/>
      <point x="464" y="542"/>
      <point x="435" y="483"/>
      <point x="385" y="439"/>
      <point x="321" y="413"/>
      <point x="285" y="413" type="qcurve" smooth="yes"/>
      <point x="270" y="413" type="line"/>
      <point x="266" y="393" type="line"/>
      <point x="282" y="393" type="line" smooth="yes"/>
      <point x="319" y="393"/>
      <point x="378" y="371"/>
      <point x="419" y="331"/>
      <point x="441" y="275"/>
      <point x="441" y="240" type="qcurve" smooth="yes"/>
      <point x="441" y="188"/>
      <point x="403" y="105"/>
      <point x="330" y="47"/>
      <point x="225" y="14"/>
      <point x="159" y="13" type="qcurve"/>
    </contour>
  </outline>
</glyph>
<glyph name="ae" format="2">
  <advance width="932"/>
  <unicode hex="00E6"/>
  <outline>
    <contour>
      <point x="214" y="-10" type="qcurve" smooth="yes"/>
      <point x="279" y="-10"/>
      <point x="398" y="62"/>
      <point x="441" y="119" type="qcurve"/>
      <point x="415" y="0" type="line"/>
      <point x="435" y="0" type="line"/>
      <point x="460" y="119" type="line"/>
      <point x="490" y="268" type="line"/>
      <point x="519" y="396" type="line"/>
      <point x="545" y="517" type="line"/>
      <point x="525" y="517" type="line"/>
      <point x="500" y="397" type="line"/>
      <point x="482" y="453"/>
      <point x="395" y="527"/>
      <point x="328" y="527" type="qcurve" smooth="yes"/>
      <point x="273" y="527"/>
      <point x="166" y="474"/>
      <point x="82" y="386"/>
      <point x="30" y="270"/>
      <point x="30" y="208" type="qcurve" smooth="yes"/>
      <point x="30" y="166"/>
      <point x="55" y="87"/>
      <point x="102" y="26"/>
      <point x="170" y="-10"/>
    </contour>
    <contour>
      <point x="219" y="10" type="qcurve" smooth="yes"/>
      <point x="179" y="10"/>
      <point x="117" y="42"/>
      <point x="73" y="97"/>
      <point x="50" y="170"/>
      <point x="50" y="210" type="qcurve" smooth="yes"/>
      <point x="50" y="261"/>
      <point x="94" y="367"/>
      <point x="169" y="453"/>
      <point x="269" y="507"/>
      <point x="324" y="507" type="qcurve" smooth="yes"/>
      <point x="358" y="507"/>
      <point x="415" y="483"/>
      <point x="458" y="441"/>
      <point x="485" y="384"/>
      <point x="490" y="351" type="qcurve"/>
      <point x="451" y="167" type="line"/>
      <point x="433" y="135"/>
      <point x="383" y="78"/>
      <point x="323" y="35"/>
      <point x="255" y="10"/>
    </contour>
    <contour>
      <point x="631" y="-10" type="qcurve" smooth="yes"/>
      <point x="665" y="-10"/>
      <point x="731" y="9"/>
      <point x="790" y="43"/>
      <point x="839" y="92"/>
      <point x="856" y="122" type="qcurve"/>
      <point x="837" y="128" type="line"/>
      <point x="822" y="101"/>
      <point x="777" y="57"/>
      <point x="723" y="27"/>
      <point x="665" y="10"/>
      <point x="638" y="10" type="qcurve" smooth="yes"/>
      <point x="595" y="10"/>
      <point x="539" y="42"/>
      <point x="506" y="97"/>
      <point x="493" y="170"/>
      <point x="493" y="211" type="qcurve" smooth="yes"/>
      <point x="493" y="267"/>
      <point x="527" y="373"/>
      <point x="590" y="456"/>
      <point x="682" y="507"/>
      <point x="739" y="507" type="qcurve" smooth="yes"/>
      <point x="761" y="507"/>
      <point x="809" y="494"/>
      <point x="850" y="465"/>
      <point x="876" y="421"/>
      <point x="876" y="391" type="qcurve" smooth="yes"/>
      <point x="876" y="364"/>
      <point x="851" y="319"/>
      <point x="795" y="286"/>
      <point x="704" y="268"/>
      <point x="638" y="268" type="qcurve" smooth="yes"/>
      <point x="600" y="268"/>
      <point x="527" y="271"/>
      <point x="498" y="274" type="qcurve"/>
      <point x="483" y="255" type="line"/>
      <point x="518" y="251"/>
      <point x="593" y="248"/>
      <point x="635" y="248" type="qcurve" smooth="yes"/>
      <point x="768" y="248"/>
      <point x="897" y="320"/>
      <point x="897" y="390" type="qcurve" smooth="yes"/>
      <point x="897" y="424"/>
      <point x="868" y="475"/>
      <point x="824" y="510"/>
      <point x="770" y="527"/>
      <point x="744" y="527" type="qcurve" smooth="yes"/>
      <point x="680" y="527"/>
      <point x="578" y="472"/>
      <point x="509" y="383"/>
      <point x="472" y="269"/>
      <point x="472" y="210" type="qcurve" smooth="yes"/>
      <point x="472" y="165"/>
      <point x="488" y="85"/>
      <point x="526" y="25"/>
      <point x="586" y="-10"/>
    </contour>
  </outline>
</glyph>
<glyph name="idieresis" format="2">
  <advance width="188"/>
  <unicode hex="00EF"/>
  <outline>
    <contour>
      <point x="86" y="689" type="qcurve" smooth="yes"/>
      <point x="83" y="675"/>
      <point x="99" y="655"/>
      <point x="113" y="655" type="qcurve" smooth="yes"/>
      <point x="127" y="655"/>
      <point x="151" y="675"/>
      <point x="154" y="689" type="qcurve" smooth="yes"/>
      <point x="157" y="703"/>
      <point x="141" y="722"/>
      <point x="127" y="722" type="qcurve" smooth="yes"/>
      <point x="113" y="722"/>
      <point x="89" y="703"/>
    </contour>
    <contour>
      <point x="200" y="689" type="qcurve" smooth="yes"/>
      <point x="197" y="675"/>
      <point x="213" y="655"/>
      <point x="227" y="655" type="qcurve" smooth="yes"/>
      <point x="241" y="655"/>
      <point x="265" y="675"/>
      <point x="268" y="689" type="qcurve" smooth="yes"/>
      <point x="271" y="703"/>
      <point x="255" y="722"/>
      <point x="241" y="722" type="qcurve" smooth="yes"/>
      <point x="227" y="722"/>
      <point x="203" y="703"/>
    </contour>
    <contour>
      <point x="17" y="0" type="line"/>
      <point x="37" y="0" type="line"/>
      <point x="147" y="519" type="line"/>
      <point x="127" y="519" type="line"/>
    </contour>
  </outline>
</glyph>
<glyph name="eth" format="2">
  <advance width="568"/>
  <unicode hex="00F0"/>
  <outline>
    <contour>
      <point x="524" y="369" type="qcurve" smooth="yes"/>
      <point x="524" y="414"/>
      <point x="506" y="508"/>
      <point x="461" y="600"/>
      <point x="386" y="689"/>
      <point x="330" y="730" type="qcurve"/>
      <point x="301" y="730" type="line"/>
      <point x="363" y="687"/>
      <point x="442" y="600"/>
      <point x="488" y="515"/>
      <point x="506" y="431"/>
      <point x="506" y="390" type="qcurve" smooth="yes"/>
      <point x="506" y="374"/>
      <point x="505" y="345"/>
      <point x="503" y="330" type="qcurve"/>
      <point x="492" y="394"/>
      <point x="393" y="475"/>
      <point x="319" y="475" type="qcurve" smooth="yes"/>
      <point x="265" y="475"/>
      <point x="160" y="428"/>
      <point x="78" y="350"/>
      <point x="27" y="247"/>
      <point x="27" y="190" type="qcurve" smooth="yes"/>
      <point x="27" y="149"/>
      <point x="54" y="76"/>
      <point x="104" y="22"/>
      <point x="174" y="-10"/>
      <point x="216" y="-10" type="qcurve" smooth="yes"/>
      <point x="271" y="-10"/>
      <point x="381" y="42"/>
      <point x="469" y="140"/>
      <point x="524" y="281"/>
    </contour>
    <contour>
      <point x="47" y="192" type="qcurve" smooth="yes"/>
      <point x="47" y="244"/>
      <point x="94" y="339"/>
      <point x="169" y="412"/>
      <point x="266" y="455"/>
      <point x="315" y="455" type="qcurve" smooth="yes"/>
      <point x="353" y="455"/>
      <point x="418" y="428"/>
      <point x="464" y="380"/>
      <point x="490" y="316"/>
      <point x="490" y="280" type="qcurve" smooth="yes"/>
      <point x="490" y="229"/>
      <point x="443" y="131"/>
      <point x="366" y="56"/>
      <point x="269" y="10"/>
      <point x="219" y="10" type="qcurve" smooth="yes"/>
      <point x="181" y="10"/>
      <point x="117" y="38"/>
      <point x="72" y="88"/>
      <point x="47" y="154"/>
    </contour>
    <contour>
      <point x="527" y="713" type="line"/>
      <point x="415" y="645" type="line"/>
      <point x="410" y="642" type="line"/>
      <point x="275" y="561" type="line"/>
      <point x="282" y="547" type="line"/>
      <point x="420" y="630" type="line"/>
      <point x="425" y="633" type="line"/>
      <point x="534" y="699" type="line"/>
    </contour>
  </outline>
</glyph>
<glyph name="oslash" format="2">
  <advance width="561"/>
  <unicode hex="00F8"/>
  <outline>
    <contour>
      <point x="215" y="-10" type="qcurve" smooth="yes"/>
      <point x="271" y="-10"/>
      <point x="378" y="43"/>
      <point x="462" y="131"/>
      <point x="513" y="246"/>
      <point x="513" y="308" type="qcurve" smooth="yes"/>
      <point x="513" y="353"/>
      <point x="486" y="433"/>
      <point x="438" y="493"/>
      <point x="370" y="527"/>
      <point x="329" y="527" type="qcurve" smooth="yes"/>
      <point x="274" y="527"/>
      <point x="167" y="475"/>
      <point x="82" y="386"/>
      <point x="30" y="270"/>
      <point x="30" y="207" type="qcurve" smooth="yes"/>
      <point x="30" y="162"/>
      <point x="56" y="83"/>
      <point x="105" y="24"/>
      <point x="173" y="-10"/>
    </contour>
    <contour>
      <point x="218" y="10" type="qcurve" smooth="yes"/>
      <point x="181" y="10"/>
      <point x="119" y="41"/>
      <point x="74" y="95"/>
      <point x="50" y="168"/>
      <point x="50" y="209" type="qcurve" smooth="yes"/>
      <point x="50" y="268"/>
      <point x="98" y="375"/>
      <point x="176" y="458"/>
      <point x="275" y="507"/>
      <point x="325" y="507" type="qcurve" smooth="yes"/>
      <point x="362" y="507"/>
      <point x="424" y="475"/>
      <point x="468" y="420"/>
      <point x="493" y="347"/>
      <point x="493" y="305" type="qcurve" smooth="yes"/>
      <point x="493" y="247"/>
      <point x="445" y="140"/>
      <point x="367" y="59"/>
      <point x="268" y="10"/>
    </contour>
    <contour>
      <point x="55" y="0" type="line"/>
      <point x="79" y="0" type="line"/>
      <point x="109" y="38" type="line"/>
      <point x="95" y="51" type="line"/>
    </contour>
    <contour>
      <point x="109" y="38" type="line"/>
      <point x="450" y="466" type="line"/>
      <point x="435" y="479" type="line"/>
      <point x="96" y="51" type="line"/>
    </contour>
    <contour>
      <point x="450" y="466" type="line"/>
      <point x="492" y="519" type="line"/>
      <point x="467" y="519" type="line"/>
      <point x="435" y="479" type="line"/>
    </contour>
  </outline>
</glyph>
<glyph name="Dcroat" format="2">
  <advance width="691"/>
  <unicode hex="0110"/>
  <outline>
    <contour>
      <point x="47" y="347" type="line"/>
      <point x="316" y="347" type="line"/>
      <point x="320" y="367" type="line"/>
      <point x="51" y="367" type="line"/>
    </contour>
    <contour>
      <point x="40" y="0" type="line"/>
      <point x="257" y="0" type="line" smooth="yes"/>
      <point x="344" y="0"/>
      <point x="492" y="67"/>
      <point x="600" y="184"/>
      <point x="660" y="346"/>
      <point x="660" y="440" type="qcurve" smooth="yes"/>
      <point x="660" y="497"/>
      <point x="630" y="595"/>
      <point x="568" y="668"/>
      <point x="473" y="710"/>
      <point x="408" y="710" type="qcurve" smooth="yes"/>
      <point x="191" y="710" type="line"/>
    </contour>
    <contour>
      <point x="64" y="20" type="line"/>
      <point x="207" y="690" type="line"/>
      <point x="404" y="690" type="line" smooth="yes"/>
      <point x="463" y="690"/>
      <point x="551" y="652"/>
      <point x="610" y="585"/>
      <point x="640" y="491"/>
      <point x="640" y="435" type="qcurve" smooth="yes"/>
      <point x="640" y="353"/>
      <point x="588" y="203"/>
      <point x="491" y="88"/>
      <point x="350" y="20"/>
      <point x="261" y="20" type="qcurve" smooth="yes"/>
    </contour>
  </outline>
</glyph>
<glyph name="dcroat" format="2">
  <advance width="579"/>
  <unicode hex="0111"/>
  <outline>
    <contour>
      <point x="429" y="633" type="line"/>
      <point x="639" y="633" type="line"/>
      <point x="643" y="653" type="line"/>
      <point x="433" y="653" type="line"/>
    </contour>
    <contour>
      <point x="218" y="-10" type="qcurve" smooth="yes"/>
      <point x="246" y="-10"/>
      <point x="305" y="7"/>
      <point x="362" y="39"/>
      <point x="414" y="82"/>
      <point x="435" y="108" type="qcurve"/>
      <point x="412" y="0" type="line"/>
      <point x="432" y="0" type="line"/>
      <point x="587" y="730" type="line"/>
      <point x="567" y="730" type="line"/>
      <point x="497" y="398" type="line"/>
      <point x="485" y="424"/>
      <point x="453" y="471"/>
      <point x="411" y="506"/>
      <point x="357" y="527"/>
      <point x="323" y="527" type="qcurve" smooth="yes"/>
      <point x="266" y="527"/>
      <point x="161" y="473"/>
      <point x="80" y="384"/>
      <point x="31" y="271"/>
      <point x="31" y="211" type="qcurve" smooth="yes"/>
      <point x="31" y="168"/>
      <point x="56" y="89"/>
      <point x="104" y="27"/>
      <point x="174" y="-10"/>
    </contour>
    <contour>
      <point x="222" y="10" type="qcurve" smooth="yes"/>
      <point x="183" y="10"/>
      <point x="120" y="43"/>
      <point x="75" y="98"/>
      <point x="51" y="172"/>
      <point x="51" y="213" type="qcurve" smooth="yes"/>
      <point x="51" y="265"/>
      <point x="93" y="370"/>
      <point x="166" y="454"/>
      <point x="264" y="507"/>
      <point x="319" y="507" type="qcurve" smooth="yes"/>
      <point x="349" y="507"/>
      <point x="407" y="483"/>
      <point x="453" y="442"/>
      <point x="485" y="387"/>
      <point x="488" y="356" type="qcurve"/>
      <point x="448" y="169" type="line" smooth="yes"/>
      <point x="441" y="137"/>
      <point x="390" y="79"/>
      <point x="323" y="36"/>
      <point x="251" y="10"/>
    </contour>
  </outline>
</glyph>
<glyph name="hbar" format="2">
  <advance width="540"/>
  <unicode hex="0127"/>
  <outline>
    <contour>
      <point x="82" y="633" type="line"/>
      <point x="291" y="633" type="line"/>
      <point x="295" y="653" type="line"/>
      <point x="86" y="653" type="line"/>
    </contour>
    <contour>
      <point x="17" y="0" type="line"/>
      <point x="37" y="0" type="line"/>
      <point x="107" y="328" type="line"/>
      <point x="125" y="366"/>
      <point x="180" y="431"/>
      <point x="246" y="479"/>
      <point x="318" y="507"/>
      <point x="352" y="507" type="qcurve" smooth="yes"/>
      <point x="403" y="507"/>
      <point x="454" y="445"/>
      <point x="454" y="384" type="qcurve" smooth="yes"/>
      <point x="454" y="364"/>
      <point x="447" y="316"/>
      <point x="442" y="289" type="qcurve"/>
      <point x="381" y="0" type="line"/>
      <point x="401" y="0" type="line"/>
      <point x="462" y="289" type="line" smooth="yes"/>
      <point x="468" y="317"/>
      <point x="474" y="367"/>
      <point x="474" y="388" type="qcurve" smooth="yes"/>
      <point x="474" y="423"/>
      <point x="459" y="475"/>
      <point x="429" y="509"/>
      <point x="385" y="527"/>
      <point x="356" y="527" type="qcurve" smooth="yes"/>
      <point x="324" y="527"/>
      <point x="259" y="507"/>
      <point x="197" y="470"/>
      <point x="141" y="417"/>
      <point x="119" y="385" type="qcurve"/>
      <point x="192" y="730" type="line"/>
      <point x="172" y="730" type="line"/>
    </contour>
  </outline>
</glyph>
<glyph name="Lslash" format="2">
  <advance width="560"/>
  <unicode hex="0141"/>
  <outline>
    <contour>
      <point x="28" y="221" type="line"/>
      <point x="360" y="506" type="line"/>
      <point x="350" y="521" type="line"/>
      <point x="18" y="236" type="line"/>
    </contour>
    <contour>
      <point x="33" y="0" type="line"/>
      <point x="476" y="0" type="line"/>
      <point x="480" y="20" type="line"/>
      <point x="57" y="20" type="line"/>
      <point x="204" y="710" type="line"/>
      <point x="184" y="710" type="line"/>
    </contour>
  </outline>
</glyph>
<glyph name="lslash" format="2">
  <advance width="238"/>
  <unicode hex="0142"/>
  <outline>
    <contour>
      <point x="32" y="304" type="line"/>
      <point x="266" y="504" type="line"/>
      <point x="254" y="518" type="line"/>
      <point x="21" y="318" type="line"/>
    </contour>
    <contour>
      <point x="111" y="-5" type="qcurve" smooth="yes"/>
      <point x="125" y="-5"/>
      <point x="166" y="2"/>
      <point x="180" y="7" type="qcurve"/>
      <point x="177" y="23" type="line"/>
      <point x="163" y="19"/>
      <point x="134" y="14"/>
      <point x="123" y="14" type="qcurve" smooth="yes"/>
      <point x="98" y="14"/>
      <point x="71" y="38"/>
      <point x="71" y="61" type="qcurve" smooth="yes"/>
      <point x="71" y="65"/>
      <point x="72" y="72"/>
      <point x="73" y="77" type="qcurve" smooth="yes"/>
      <point x="212" y="730" type="line"/>
      <point x="192" y="730" type="line"/>
      <point x="53" y="77" type="line"/>
      <point x="51" y="71"/>
      <point x="51" y="60"/>
      <point x="51" y="55" type="qcurve" smooth="yes"/>
      <point x="51" y="27"/>
      <point x="82" y="-5"/>
    </contour>
  </outline>
</glyph>
<glyph name="eng" format="2">
  <advance width="540"/>
  <unicode hex="014B"/>
  <outline>
    <contour>
      <point x="238" y="-170" type="qcurve" smooth="yes"/>
      <point x="260" y="-170"/>
      <point x="309" y="-150"/>
      <point x="353" y="-114"/>
      <point x="387" y="-65"/>
      <point x="393" y="-36" type="qcurve" smooth="yes"/>
      <point x="462" y="289" type="line" smooth="yes"/>
      <point x="469" y="321"/>
      <point x="476" y="377"/>
      <point x="476" y="401" type="qcurve" smooth="yes"/>
      <point x="476" y="433"/>
      <point x="462" y="481"/>
      <point x="435" y="512"/>
      <point x="394" y="527"/>
      <point x="366" y="527" type="qcurve" smooth="yes"/>
      <point x="333" y="527"/>
      <point x="264" y="506"/>
      <point x="199" y="469"/>
      <point x="141" y="417"/>
      <point x="119" y="385" type="qcurve"/>
      <point x="147" y="519" type="line"/>
      <point x="127" y="519" type="line"/>
      <point x="17" y="0" type="line"/>
      <point x="37" y="0" type="line"/>
      <point x="107" y="328" type="line"/>
      <point x="125" y="366"/>
      <point x="183" y="432"/>
      <point x="252" y="480"/>
      <point x="327" y="507"/>
      <point x="362" y="507" type="qcurve" smooth="yes"/>
      <point x="410" y="507"/>
      <point x="455" y="453"/>
      <point x="455" y="396" type="qcurve" smooth="yes"/>
      <point x="455" y="374"/>
      <point x="449" y="321"/>
      <point x="442" y="289" type="qcurve" smooth="yes"/>
      <point x="373" y="-36" type="line" smooth="yes"/>
      <point x="368" y="-60"/>
      <point x="340" y="-102"/>
      <point x="303" y="-132"/>
      <point x="261" y="-150"/>
      <point x="241" y="-150" type="qcurve" smooth="yes"/>
      <point x="221" y="-150"/>
      <point x="182" y="-140"/>
      <point x="168" y="-124" type="qcurve"/>
      <point x="150" y="-136" type="line"/>
      <point x="164" y="-156"/>
      <point x="210" y="-170"/>
    </contour>
  </outline>
</glyph>
<glyph name="OE" format="2">
  <advance width="1149"/>
  <unicode hex="0152"/>
  <outline>
    <contour>
      <point x="301" y="-5" type="qcurve" smooth="yes"/>
      <point x="352" y="-5"/>
      <point x="451" y="32"/>
      <point x="541" y="97"/>
      <point x="616" y="184"/>
      <point x="643" y="234" type="qcurve"/>
      <point x="593" y="0" type="line"/>
      <point x="1036" y="0" type="line"/>
      <point x="1040" y="20" type="line"/>
      <point x="618" y="20" type="line"/>
      <point x="688" y="353" type="line"/>
      <point x="1051" y="353" type="line"/>
      <point x="1056" y="373" type="line"/>
      <point x="693" y="373" type="line"/>
      <point x="760" y="690" type="line"/>
      <point x="1174" y="690" type="line"/>
      <point x="1179" y="710" type="line"/>
      <point x="744" y="710" type="line"/>
      <point x="694" y="475" type="line"/>
      <point x="689" y="524"/>
      <point x="652" y="611"/>
      <point x="591" y="677"/>
      <point x="506" y="715"/>
      <point x="452" y="715" type="qcurve" smooth="yes"/>
      <point x="376" y="715"/>
      <point x="232" y="643"/>
      <point x="120" y="523"/>
      <point x="52" y="369"/>
      <point x="52" y="288" type="qcurve" smooth="yes"/>
      <point x="52" y="231"/>
      <point x="85" y="125"/>
      <point x="149" y="44"/>
      <point x="241" y="-5"/>
    </contour>
    <contour>
      <point x="303" y="15" type="qcurve" smooth="yes"/>
      <point x="249" y="15"/>
      <point x="163" y="60"/>
      <point x="103" y="135"/>
      <point x="72" y="235"/>
      <point x="72" y="290" type="qcurve" smooth="yes"/>
      <point x="72" y="363"/>
      <point x="133" y="508"/>
      <point x="237" y="623"/>
      <point x="373" y="695"/>
      <point x="448" y="695" type="qcurve" smooth="yes"/>
      <point x="501" y="695"/>
      <point x="586" y="650"/>
      <point x="645" y="574"/>
      <point x="677" y="474"/>
      <point x="677" y="419" type="qcurve" smooth="yes"/>
      <point x="677" y="347"/>
      <point x="616" y="203"/>
      <point x="514" y="87"/>
      <point x="378" y="15"/>
    </contour>
  </outline>
</glyph>
<glyph name="tbar" format="2">
  <advance width="283"/>
  <unicode hex="0167"/>
  <outline>
    <contour>
      <point x="26" y="319" type="line"/>
      <point x="236" y="319" type="line"/>
      <point x="240" y="339" type="line"/>
      <point x="30" y="339" type="line"/>
    </contour>
    <contour>
      <point x="48" y="58" type="qcurve" smooth="yes"/>
      <point x="48" y="30"/>
      <point x="88" y="-5"/>
      <point x="119" y="-5" type="qcurve" smooth="yes"/>
      <point x="139" y="-5"/>
      <point x="173" y="4"/>
      <point x="200" y="14"/>
      <point x="216" y="24"/>
      <point x="216" y="24" type="qcurve"/>
      <point x="209" y="40" type="line"/>
      <point x="208" y="39"/>
      <point x="193" y="31"/>
      <point x="170" y="22"/>
      <point x="140" y="15"/>
      <point x="124" y="15" type="qcurve" smooth="yes"/>
      <point x="101" y="15"/>
      <point x="69" y="41"/>
      <point x="69" y="66" type="qcurve" smooth="yes"/>
      <point x="69" y="73"/>
      <point x="74" y="98"/>
      <point x="80" y="126" type="qcurve" smooth="yes"/>
      <point x="160" y="499" type="line"/>
      <point x="279" y="499" type="line"/>
      <point x="283" y="519" type="line"/>
      <point x="165" y="519" type="line"/>
      <point x="203" y="700" type="line"/>
      <point x="183" y="700" type="line"/>
      <point x="145" y="519" type="line"/>
      <point x="73" y="519" type="line"/>
      <point x="69" y="499" type="line"/>
      <point x="140" y="499" type="line"/>
      <point x="50" y="75" type="line" smooth="yes"/>
      <point x="49" y="70"/>
      <point x="48" y="62"/>
    </contour>
  </outline>
</glyph>
<glyph name="uni018F" format="2">
  <advance width="707"/>
  <unicode hex="018F"/>
  <outline>
    <contour>
      <point x="281" y="-10" type="qcurve" smooth="yes"/>
      <point x="355" y="-10"/>
      <point x="497" y="59"/>
      <point x="608" y="176"/>
      <point x="676" y="332"/>
      <point x="676" y="419" type="qcurve" smooth="yes"/>
      <point x="676" y="481"/>
      <point x="641" y="588"/>
      <point x="576" y="669"/>
      <point x="484" y="715"/>
      <point x="428" y="715" type="qcurve" smooth="yes"/>
      <point x="386" y="715"/>
      <point x="300" y="690"/>
      <point x="221" y="645"/>
      <point x="156" y="584"/>
      <point x="135" y="548" type="qcurve"/>
      <point x="153" y="539" type="line"/>
      <point x="174" y="574"/>
      <point x="236" y="632"/>
      <point x="308" y="672"/>
      <point x="386" y="694"/>
      <point x="424" y="694" type="qcurve" smooth="yes"/>
      <point x="475" y="694"/>
      <point x="560" y="654"/>
      <point x="620" y="583"/>
      <point x="653" y="485"/>
      <point x="653" y="427" type="qcurve" smooth="yes"/>
      <point x="653" y="410"/>
      <point x="650" y="379"/>
      <point x="648" y="362" type="qcurve"/>
      <point x="45" y="362" type="line"/>
      <point x="38" y="336"/>
      <point x="32" y="286"/>
      <point x="32" y="262" type="qcurve" smooth="yes"/>
      <point x="32" y="202"/>
      <point x="68" y="102"/>
      <point x="133" y="30"/>
      <point x="225" y="-10"/>
    </contour>
    <contour>
      <point x="281" y="12" type="qcurve" smooth="yes"/>
      <point x="222" y="12"/>
      <point x="137" y="56"/>
      <point x="81" y="127"/>
      <point x="55" y="218"/>
      <point x="55" y="266" type="qcurve" smooth="yes"/>
      <point x="55" y="285"/>
      <point x="59" y="322"/>
      <point x="63" y="340" type="qcurve"/>
      <point x="643" y="340" type="line"/>
      <point x="630" y="271"/>
      <point x="560" y="151"/>
      <point x="462" y="62"/>
      <point x="344" y="12"/>
    </contour>
  </outline>
</glyph>
<glyph name="florin" format="2">
  <advance width="487"/>
  <unicode hex="0192"/>
  <outline>
    <contour>
      <point x="26" y="-170" type="qcurve" smooth="yes"/>
      <point x="48" y="-170"/>
      <point x="97" y="-150"/>
      <point x="141" y="-114"/>
      <point x="175" y="-65"/>
      <point x="181" y="-36" type="qcurve" smooth="yes"/>
      <point x="282" y="438" type="line"/>
      <point x="429" y="438" type="line"/>
      <point x="433" y="458" type="line"/>
      <point x="287" y="458" type="line"/>
      <point x="304" y="540" type="line" smooth="yes"/>
      <point x="322" y="628"/>
      <point x="400" y="721"/>
      <point x="454" y="721" type="qcurve" smooth="yes"/>
      <point x="476" y="721"/>
      <point x="513" y="706"/>
      <point x="522" y="694" type="qcurve"/>
      <point x="540" y="706" type="line"/>
      <point x="530" y="721"/>
      <point x="484" y="740"/>
      <point x="457" y="740" type="qcurve" smooth="yes"/>
      <point x="426" y="740"/>
      <point x="372" y="713"/>
      <point x="327" y="662"/>
      <point x="294" y="587"/>
      <point x="284" y="540" type="qcurve" smooth="yes"/>
      <point x="267" y="458" type="line"/>
      <point x="195" y="458" type="line"/>
      <point x="191" y="438" type="line"/>
      <point x="262" y="438" type="line"/>
      <point x="161" y="-36" type="line" smooth="yes"/>
      <point x="156" y="-60"/>
      <point x="128" y="-102"/>
      <point x="91" y="-132"/>
      <point x="49" y="-150"/>
      <point x="29" y="-150" type="qcurve" smooth="yes"/>
      <point x="9" y="-150"/>
      <point x="-30" y="-140"/>
      <point x="-44" y="-124" type="qcurve"/>
      <point x="-62" y="-136" type="line"/>
      <point x="-48" y="-156"/>
      <point x="-2" y="-170"/>
    </contour>
  </outline>
</glyph>
<glyph name="Aringacute" format="2">
  <advance width="647"/>
  <unicode hex="01FA"/>
  <outline>
    <contour>
      <point x="-39" y="0" type="line"/>
      <point x="-17" y="0" type="line"/>
      <point x="142" y="254" type="line"/>
      <point x="493" y="254" type="line"/>
      <point x="544" y="0" type="line"/>
      <point x="566" y="0" type="line"/>
      <point x="424" y="710" type="line"/>
      <point x="406" y="710" type="line"/>
    </contour>
    <contour>
      <point x="154" y="274" type="line"/>
      <point x="409" y="681" type="line"/>
      <point x="489" y="274" type="line"/>
    </contour>
    <contour>
      <point x="587" y="967" type="line"/>
      <point x="553" y="967" type="line"/>
      <point x="426" y="807" type="line"/>
      <point x="445" y="807" type="line"/>
    </contour>
    <contour>
      <point x="372" y="754" type="qcurve" smooth="yes"/>
      <point x="372" y="734"/>
      <point x="395" y="708"/>
      <point x="415" y="708" type="qcurve" smooth="yes"/>
      <point x="441" y="708"/>
      <point x="483" y="748"/>
      <point x="483" y="776" type="qcurve" smooth="yes"/>
      <point x="483" y="796"/>
      <point x="460" y="822"/>
      <point x="440" y="822" type="qcurve" smooth="yes"/>
      <point x="414" y="822"/>
      <point x="372" y="782"/>
    </contour>
    <contour>
      <point x="436" y="806" type="qcurve" smooth="yes"/>
      <point x="450" y="806"/>
      <point x="468" y="788"/>
      <point x="468" y="773" type="qcurve" smooth="yes"/>
      <point x="468" y="752"/>
      <point x="435" y="724"/>
      <point x="419" y="724" type="qcurve" smooth="yes"/>
      <point x="405" y="724"/>
      <point x="388" y="743"/>
      <point x="388" y="757" type="qcurve" smooth="yes"/>
      <point x="388" y="779"/>
      <point x="418" y="806"/>
    </contour>
  </outline>
</glyph>
<glyph name="dotlessj" format="2">
  <advance width="182"/>
  <unicode hex="0237"/>
  <outline>
    <contour>
      <point x="-126" y="-170" type="qcurve" smooth="yes"/>
      <point x="-104" y="-170"/>
      <point x="-55" y="-150"/>
      <point x="-11" y="-114"/>
      <point x="23" y="-65"/>
      <point x="29" y="-36" type="qcurve" smooth="yes"/>
      <point x="147" y="519" type="line"/>
      <point x="127" y="519" type="line"/>
      <point x="9" y="-36" type="line" smooth="yes"/>
      <point x="4" y="-60"/>
      <point x="-24" y="-102"/>
      <point x="-61" y="-132"/>
      <point x="-104" y="-150"/>
      <point x="-123" y="-150" type="qcurve" smooth="yes"/>
      <point x="-143" y="-150"/>
      <point x="-182" y="-140"/>
      <point x="-196" y="-124" type="qcurve"/>
      <point x="-214" y="-136" type="line"/>
      <point x="-200" y="-156"/>
      <point x="-154" y="-170"/>
    </contour>
  </outline>
</glyph>
<glyph name="schwa" format="2">
  <advance width="548"/>
  <unicode hex="0259"/>
  <outline>
    <contour>
      <point x="203" y="-10" type="qcurve" smooth="yes"/>
      <point x="259" y="-10"/>
      <point x="365" y="41"/>
      <point x="448" y="128"/>
      <point x="499" y="243"/>
      <point x="499" y="306" type="qcurve" smooth="yes"/>
      <point x="499" y="352"/>
      <point x="472" y="433"/>
      <point x="423" y="493"/>
      <point x="355" y="527"/>
      <point x="313" y="527" type="qcurve" smooth="yes"/>
      <point x="281" y="527"/>
      <point x="215" y="508"/>
      <point x="155" y="475"/>
      <point x="106" y="430"/>
      <point x="91" y="403" type="qcurve"/>
      <point x="108" y="398" type="line"/>
      <point x="123" y="422"/>
      <point x="168" y="462"/>
      <point x="221" y="491"/>
      <point x="280" y="507"/>
      <point x="308" y="507" type="qcurve" smooth="yes"/>
      <point x="346" y="507"/>
      <point x="409" y="478"/>
      <point x="454" y="425"/>
      <point x="479" y="353"/>
      <point x="479" y="311" type="qcurve" smooth="yes"/>
      <point x="479" y="300"/>
      <point x="478" y="280"/>
      <point x="476" y="269" type="qcurve"/>
      <point x="25" y="269" type="line"/>
      <point x="19" y="252"/>
      <point x="16" y="212"/>
      <point x="16" y="195" type="qcurve" smooth="yes"/>
      <point x="16" y="151"/>
      <point x="43" y="76"/>
      <point x="92" y="21"/>
      <point x="161" y="-10"/>
    </contour>
    <contour>
      <point x="207" y="10" type="qcurve" smooth="yes"/>
      <point x="168" y="10"/>
      <point x="106" y="38"/>
      <point x="62" y="88"/>
      <point x="38" y="158"/>
      <point x="38" y="201" type="qcurve" smooth="yes"/>
      <point x="38" y="212"/>
      <point x="40" y="236"/>
      <point x="42" y="249" type="qcurve"/>
      <point x="471" y="249" type="line"/>
      <point x="458" y="198"/>
      <point x="405" y="110"/>
      <point x="334" y="46"/>
      <point x="251" y="10"/>
    </contour>
  </outline>
</glyph>
<glyph name="uni02BC" format="2">
  <advance width="173"/>
  <unicode hex="02BC"/>
  <outline>
    <contour>
      <point x="227" y="730" type="line"/>
      <point x="193" y="730" type="line"/>
      <point x="66" y="570" type="line"/>
      <point x="85" y="570" type="line"/>
    </contour>
  </outline>
</glyph>
<glyph name="uni02BE" format="2">
  <advance width="140"/>
  <unicode hex="02BE"/>
  <outline>
    <contour>
      <point x="118" y="606" type="line"/>
      <point x="131" y="606"/>
      <point x="156" y="621"/>
      <point x="175" y="647"/>
      <point x="187" y="681"/>
      <point x="187" y="700" type="qcurve" smooth="yes"/>
      <point x="187" y="724"/>
      <point x="167" y="756"/>
      <point x="150" y="756" type="qcurve"/>
      <point x="145" y="735" type="line"/>
      <point x="157" y="735"/>
      <point x="172" y="714"/>
      <point x="172" y="696" type="qcurve" smooth="yes"/>
      <point x="172" y="666"/>
      <point x="138" y="627"/>
      <point x="122" y="627" type="qcurve"/>
    </contour>
  </outline>
</glyph>
<glyph name="uni02BF" format="2">
  <advance width="139"/>
  <unicode hex="02BF"/>
  <outline>
    <contour>
      <point x="173" y="627" type="line"/>
      <point x="161" y="627"/>
      <point x="147" y="650"/>
      <point x="147" y="667" type="qcurve" smooth="yes"/>
      <point x="147" y="696"/>
      <point x="178" y="735"/>
      <point x="196" y="735" type="qcurve"/>
      <point x="201" y="756" type="line"/>
      <point x="188" y="756"/>
      <point x="164" y="741"/>
      <point x="144" y="715"/>
      <point x="132" y="681"/>
      <point x="132" y="662" type="qcurve" smooth="yes"/>
      <point x="132" y="638"/>
      <point x="152" y="606"/>
      <point x="169" y="606" type="qcurve"/>
    </contour>
  </outline>
</glyph>
<glyph name="hungarumlaut" format="2">
  <advance width="298"/>
  <unicode hex="02DD"/>
  <outline>
    <contour>
      <point x="225" y="730" type="line"/>
      <point x="191" y="730" type="line"/>
      <point x="88" y="615" type="line"/>
      <point x="107" y="615" type="line"/>
    </contour>
    <contour>
      <point x="325" y="730" type="line"/>
      <point x="291" y="730" type="line"/>
      <point x="188" y="615" type="line"/>
      <point x="207" y="615" type="line"/>
    </contour>
  </outline>
</glyph>
<glyph name="gravecomb" format="2">
  <advance width="198"/>
  <unicode hex="0300"/>
  <anchor x="121" y="519" name="_top"/>
  <outline>
    <contour>
      <point x="36" y="760" type="line"/>
      <point x="127" y="600" type="line"/>
      <point x="146" y="600" type="line"/>
      <point x="70" y="760" type="line"/>
    </contour>
  </outline>
</glyph>
<glyph name="acutecomb" format="2">
  <advance width="198"/>
  <unicode hex="0301"/>
  <anchor x="9" y="519" name="_top"/>
  <outline>
    <contour>
      <point x="196" y="760" type="line"/>
      <point x="162" y="760" type="line"/>
      <point x="18" y="600" type="line"/>
      <point x="37" y="600" type="line"/>
    </contour>
  </outline>
</glyph>
<glyph name="circumflexcomb" format="2">
  <advance width="302"/>
  <unicode hex="0302"/>
  <outline>
    <contour>
      <point x="62" y="600" type="line"/>
      <point x="81" y="600" type="line"/>
      <point x="217" y="700" type="line"/>
      <point x="309" y="600" type="line"/>
      <point x="328" y="600" type="line"/>
      <point x="239" y="720" type="line"/>
      <point x="203" y="720" type="line"/>
    </contour>
  </outline>
</glyph>
<glyph name="tildecomb" format="2">
  <advance width="364"/>
  <unicode hex="0303"/>
  <outline>
    <contour>
      <point x="323" y="633" type="qcurve" smooth="yes"/>
      <point x="349" y="633"/>
      <point x="383" y="651"/>
      <point x="404" y="675"/>
      <point x="413" y="697"/>
      <point x="414" y="700" type="qcurve"/>
      <point x="395" y="700" type="line"/>
      <point x="395" y="699"/>
      <point x="389" y="683"/>
      <point x="374" y="666"/>
      <point x="349" y="652"/>
      <point x="329" y="652" type="qcurve" smooth="yes"/>
      <point x="311" y="652"/>
      <point x="285" y="664"/>
      <point x="262" y="678"/>
      <point x="236" y="690"/>
      <point x="218" y="690" type="qcurve" smooth="yes"/>
      <point x="194" y="690"/>
      <point x="163" y="671"/>
      <point x="143" y="647"/>
      <point x="134" y="625"/>
      <point x="134" y="623" type="qcurve"/>
      <point x="153" y="623" type="line"/>
      <point x="154" y="625"/>
      <point x="161" y="641"/>
      <point x="175" y="658"/>
      <point x="197" y="671"/>
      <point x="212" y="671" type="qcurve" smooth="yes"/>
      <point x="227" y="671"/>
      <point x="249" y="659"/>
      <point x="273" y="645"/>
      <point x="302" y="633"/>
    </contour>
  </outline>
</glyph>
<glyph name="uni0304" format="2">
  <advance width="366"/>
  <unicode hex="0304"/>
  <outline>
    <contour>
      <point x="407" y="686" type="line"/>
      <point x="411" y="706" type="line"/>
      <point x="145" y="706" type="line"/>
      <point x="141" y="686" type="line"/>
    </contour>
  </outline>
</glyph>
<glyph name="uni0306" format="2">
  <advance width="242"/>
  <unicode hex="0306"/>
  <outline>
    <contour>
      <point x="208" y="670" type="qcurve" smooth="yes"/>
      <point x="191" y="670"/>
      <point x="168" y="699"/>
      <point x="168" y="719" type="qcurve" smooth="yes"/>
      <point x="168" y="721"/>
      <point x="168" y="727"/>
      <point x="169" y="730" type="qcurve"/>
      <point x="150" y="730" type="line"/>
      <point x="149" y="726"/>
      <point x="148" y="719"/>
      <point x="148" y="715" type="qcurve" smooth="yes"/>
      <point x="148" y="689"/>
      <point x="180" y="653"/>
      <point x="205" y="653" type="qcurve" smooth="yes"/>
      <point x="219" y="653"/>
      <point x="247" y="666"/>
      <point x="271" y="687"/>
      <point x="289" y="715"/>
      <point x="292" y="730" type="qcurve"/>
      <point x="274" y="730" type="line"/>
      <point x="266" y="705"/>
      <point x="228" y="670"/>
    </contour>
  </outline>
</glyph>
<glyph name="uni0307" format="2">
  <advance width="120"/>
  <unicode hex="0307"/>
  <outline>
    <contour>
      <point x="95" y="689" type="qcurve"/>
      <point x="92" y="675"/>
      <point x="108" y="655"/>
      <point x="122" y="655" type="qcurve" smooth="yes"/>
      <point x="129" y="655"/>
      <point x="143" y="660"/>
      <point x="154" y="669"/>
      <point x="162" y="682"/>
      <point x="163" y="689" type="qcurve"/>
      <point x="166" y="703"/>
      <point x="150" y="722"/>
      <point x="136" y="722" type="qcurve" smooth="yes"/>
      <point x="129" y="722"/>
      <point x="115" y="717"/>
      <point x="104" y="708"/>
      <point x="97" y="696"/>
    </contour>
  </outline>
</glyph>
<glyph name="uni0308" format="2">
  <advance width="236"/>
  <unicode hex="0308"/>
  <outline>
    <contour>
      <point x="92" y="655" type="qcurve" smooth="yes"/>
      <point x="99" y="655"/>
      <point x="113" y="660"/>
      <point x="124" y="669"/>
      <point x="132" y="682"/>
      <point x="133" y="689" type="qcurve"/>
      <point x="136" y="703"/>
      <point x="120" y="722"/>
      <point x="106" y="722" type="qcurve" smooth="yes"/>
      <point x="99" y="722"/>
      <point x="85" y="717"/>
      <point x="74" y="708"/>
      <point x="67" y="696"/>
      <point x="65" y="689" type="qcurve"/>
      <point x="62" y="675"/>
      <point x="78" y="655"/>
    </contour>
    <contour>
      <point x="266" y="655" type="qcurve" smooth="yes"/>
      <point x="273" y="655"/>
      <point x="287" y="660"/>
      <point x="298" y="669"/>
      <point x="306" y="682"/>
      <point x="307" y="689" type="qcurve"/>
      <point x="310" y="703"/>
      <point x="294" y="722"/>
      <point x="280" y="722" type="qcurve" smooth="yes"/>
      <point x="273" y="722"/>
      <point x="259" y="717"/>
      <point x="248" y="708"/>
      <point x="241" y="696"/>
      <point x="239" y="689" type="qcurve"/>
      <point x="236" y="675"/>
      <point x="252" y="655"/>
    </contour>
  </outline>
</glyph>
<glyph name="hookabovecomb" format="2">
  <advance width="216"/>
  <unicode hex="0309"/>
  <outline>
    <contour>
      <point x="150" y="682" type="line"/>
      <point x="170" y="695"/>
      <point x="194" y="707"/>
      <point x="208" y="707" type="qcurve" smooth="yes"/>
      <point x="230" y="707"/>
      <point x="240" y="684"/>
      <point x="234" y="668" type="qcurve"/>
      <point x="229" y="656"/>
      <point x="201" y="630"/>
      <point x="178" y="612" type="qcurve"/>
      <point x="186" y="601" type="line"/>
      <point x="211" y="621"/>
      <point x="245" y="649"/>
      <point x="252" y="668" type="qcurve"/>
      <point x="263" y="695"/>
      <point x="241" y="725"/>
      <point x="217" y="725" type="qcurve" smooth="yes"/>
      <point x="197" y="725"/>
      <point x="165" y="709"/>
      <point x="143" y="695" type="qcurve"/>
    </contour>
  </outline>
</glyph>
<glyph name="ringcomb" format="2">
  <advance width="209"/>
  <unicode hex="030A"/>
  <outline>
    <contour>
      <point x="137" y="662" type="qcurve" smooth="yes"/>
      <point x="137" y="642"/>
      <point x="160" y="616"/>
      <point x="180" y="616" type="qcurve" smooth="yes"/>
      <point x="206" y="616"/>
      <point x="248" y="656"/>
      <point x="248" y="684" type="qcurve" smooth="yes"/>
      <point x="248" y="704"/>
      <point x="225" y="730"/>
      <point x="205" y="730" type="qcurve" smooth="yes"/>
      <point x="179" y="730"/>
      <point x="137" y="690"/>
    </contour>
    <contour>
      <point x="201" y="714" type="qcurve" smooth="yes"/>
      <point x="215" y="714"/>
      <point x="233" y="696"/>
      <point x="233" y="681" type="qcurve" smooth="yes"/>
      <point x="233" y="660"/>
      <point x="200" y="632"/>
      <point x="184" y="632" type="qcurve" smooth="yes"/>
      <point x="170" y="632"/>
      <point x="153" y="651"/>
      <point x="153" y="665" type="qcurve" smooth="yes"/>
      <point x="153" y="687"/>
      <point x="183" y="714"/>
    </contour>
  </outline>
</glyph>
<glyph name="hungarumlautcomb" format="2">
  <advance width="298"/>
  <unicode hex="030B"/>
  <outline>
    <contour>
      <point x="381" y="760" type="line"/>
      <point x="347" y="760" type="line"/>
      <point x="203" y="600" type="line"/>
      <point x="222" y="600" type="line"/>
    </contour>
    <contour>
      <point x="218" y="760" type="line"/>
      <point x="184" y="760" type="line"/>
      <point x="40" y="600" type="line"/>
      <point x="59" y="600" type="line"/>
    </contour>
  </outline>
</glyph>
<glyph name="caroncomb" format="2">
  <advance width="302"/>
  <unicode hex="030C"/>
  <outline>
    <contour>
      <point x="88" y="720" type="line"/>
      <point x="177" y="600" type="line"/>
      <point x="213" y="600" type="line"/>
      <point x="354" y="720" type="line"/>
      <point x="335" y="720" type="line"/>
      <point x="199" y="620" type="line"/>
      <point x="107" y="720" type="line"/>
    </contour>
  </outline>
</glyph>
<glyph name="uni0311" format="2">
  <advance width="242"/>
  <unicode hex="0311"/>
  <outline>
    <contour>
      <point x="134" y="653" type="qcurve"/>
      <point x="153" y="653" type="line"/>
      <point x="158" y="676"/>
      <point x="193" y="713"/>
      <point x="219" y="713" type="qcurve" smooth="yes"/>
      <point x="239" y="713"/>
      <point x="259" y="688"/>
      <point x="259" y="665" type="qcurve" smooth="yes"/>
      <point x="259" y="662"/>
      <point x="258" y="656"/>
      <point x="258" y="653" type="qcurve"/>
      <point x="276" y="653" type="line"/>
      <point x="277" y="657"/>
      <point x="277" y="664"/>
      <point x="277" y="668" type="qcurve" smooth="yes"/>
      <point x="277" y="692"/>
      <point x="249" y="730"/>
      <point x="220" y="730" type="qcurve" smooth="yes"/>
      <point x="204" y="730"/>
      <point x="175" y="717"/>
      <point x="153" y="695"/>
      <point x="137" y="668"/>
    </contour>
  </outline>
</glyph>
<glyph name="commaturnedabovecomb" format="2">
  <advance width="120"/>
  <unicode hex="0312"/>
  <outline>
    <contour>
      <point x="86" y="613" type="line"/>
      <point x="120" y="613" type="line"/>
      <point x="224" y="728" type="line"/>
      <point x="205" y="728" type="line"/>
    </contour>
  </outline>
</glyph>
<glyph name="horncomb" format="2">
  <advance width="217"/>
  <unicode hex="031B"/>
  <outline>
    <contour>
      <point x="109" y="537" type="line"/>
      <point x="124" y="537"/>
      <point x="154" y="541"/>
      <point x="182" y="549"/>
      <point x="205" y="560"/>
      <point x="212" y="567" type="qcurve" smooth="yes"/>
      <point x="220" y="575"/>
      <point x="231" y="590"/>
      <point x="238" y="606"/>
      <point x="244" y="627"/>
      <point x="248" y="641" type="qcurve"/>
      <point x="226" y="641" type="line"/>
      <point x="221" y="618"/>
      <point x="208" y="589"/>
      <point x="198" y="580" type="qcurve" smooth="yes"/>
      <point x="186" y="569"/>
      <point x="139" y="557"/>
      <point x="113" y="557" type="qcurve"/>
    </contour>
  </outline>
</glyph>
<glyph name="dotbelowcomb" format="2">
  <advance width="120"/>
  <unicode hex="0323"/>
  <outline>
    <contour>
      <point x="-57" y="-91" type="qcurve"/>
      <point x="-60" y="-105"/>
      <point x="-45" y="-125"/>
      <point x="-31" y="-125" type="qcurve" smooth="yes"/>
      <point x="-24" y="-125"/>
      <point x="-10" y="-120"/>
      <point x="1" y="-111"/>
      <point x="10" y="-98"/>
      <point x="11" y="-91" type="qcurve" smooth="yes"/>
      <point x="13" y="-77"/>
      <point x="-2" y="-58"/>
      <point x="-16" y="-58" type="qcurve" smooth="yes"/>
      <point x="-23" y="-58"/>
      <point x="-37" y="-63"/>
      <point x="-48" y="-72"/>
      <point x="-56" y="-84"/>
    </contour>
  </outline>
</glyph>
<glyph name="uni0324" format="2">
  <advance width="236"/>
  <unicode hex="0324"/>
  <outline>
    <contour>
      <point x="11" y="-124" type="qcurve" smooth="yes"/>
      <point x="18" y="-124"/>
      <point x="32" y="-119"/>
      <point x="43" y="-110"/>
      <point x="51" y="-97"/>
      <point x="52" y="-90" type="qcurve"/>
      <point x="55" y="-76"/>
      <point x="39" y="-57"/>
      <point x="25" y="-57" type="qcurve" smooth="yes"/>
      <point x="18" y="-57"/>
      <point x="4" y="-62"/>
      <point x="-7" y="-71"/>
      <point x="-15" y="-83"/>
      <point x="-16" y="-90" type="qcurve"/>
      <point x="-19" y="-104"/>
      <point x="-3" y="-124"/>
    </contour>
    <contour>
      <point x="185" y="-124" type="qcurve" smooth="yes"/>
      <point x="192" y="-124"/>
      <point x="206" y="-119"/>
      <point x="217" y="-110"/>
      <point x="225" y="-97"/>
      <point x="226" y="-90" type="qcurve"/>
      <point x="229" y="-76"/>
      <point x="213" y="-57"/>
      <point x="199" y="-57" type="qcurve" smooth="yes"/>
      <point x="192" y="-57"/>
      <point x="178" y="-62"/>
      <point x="167" y="-71"/>
      <point x="160" y="-83"/>
      <point x="158" y="-90" type="qcurve"/>
      <point x="155" y="-104"/>
      <point x="171" y="-124"/>
    </contour>
  </outline>
</glyph>
<glyph name="commaaccentcomb" format="2">
  <advance width="120"/>
  <unicode hex="0326"/>
  <outline>
    <contour>
      <point x="39" y="-196" type="line"/>
      <point x="103" y="-51" type="line"/>
      <point x="67" y="-51" type="line"/>
      <point x="15" y="-196" type="line"/>
    </contour>
  </outline>
</glyph>
<glyph name="cedillacomb" format="2">
  <advance width="252"/>
  <unicode hex="0327"/>
  <outline>
    <contour>
      <point x="-73.3902" y="-194" type="line"/>
      <point x="18.9009" y="-39" type="line"/>
      <point x="-3.67865" y="-35" type="line"/>
      <point x="-84.0749" y="-191" type="line"/>
    </contour>
  </outline>
</glyph>
<glyph name="uni0327" format="2">
  <advance width="239"/>
  <unicode hex="0327"/>
  <outline>
    <contour>
      <point x="-39" y="-144" type="qcurve"/>
      <point x="-19" y="-153"/>
      <point x="24" y="-163"/>
      <point x="46" y="-163" type="qcurve" smooth="yes"/>
      <point x="63" y="-163"/>
      <point x="96" y="-157"/>
      <point x="122" y="-141"/>
      <point x="137" y="-114"/>
      <point x="137" y="-94" type="qcurve" smooth="yes"/>
      <point x="137" y="-69"/>
      <point x="105" y="-52"/>
      <point x="83" y="-52" type="qcurve" smooth="yes"/>
      <point x="72" y="-52"/>
      <point x="51" y="-54"/>
      <point x="41" y="-58" type="qcurve"/>
      <point x="85" y="-1" type="line"/>
      <point x="70" y="10" type="line"/>
      <point x="-1" y="-84" type="line"/>
      <point x="19" y="-77"/>
      <point x="59" y="-68"/>
      <point x="79" y="-68" type="qcurve" smooth="yes"/>
      <point x="87" y="-68"/>
      <point x="101" y="-70"/>
      <point x="111" y="-77"/>
      <point x="118" y="-88"/>
      <point x="118" y="-97" type="qcurve" smooth="yes"/>
      <point x="118" y="-111"/>
      <point x="107" y="-130"/>
      <point x="88" y="-140"/>
      <point x="65" y="-144"/>
      <point x="53" y="-144" type="qcurve" smooth="yes"/>
      <point x="43" y="-144"/>
      <point x="22" y="-142"/>
      <point x="3" y="-138"/>
      <point x="-17" y="-131"/>
      <point x="-26" y="-126" type="qcurve"/>
      <point x="-29" y="-131"/>
      <point x="-36" y="-139"/>
    </contour>
  </outline>
</glyph>
<glyph name="ogonekcomb" format="2">
  <advance width="173"/>
  <unicode hex="0328"/>
  <outline>
    <contour>
      <point x="-27" y="-113" type="qcurve" smooth="yes"/>
      <point x="-27" y="-131"/>
      <point x="-5" y="-157"/>
      <point x="21" y="-164" type="qcurve"/>
      <point x="34" y="-147" type="line"/>
      <point x="10" y="-139"/>
      <point x="-10" y="-120"/>
      <point x="-10" y="-106" type="qcurve" smooth="yes"/>
      <point x="-10" y="-84"/>
      <point x="23" y="-38"/>
      <point x="68" y="0" type="qcurve"/>
      <point x="63" y="12" type="line"/>
      <point x="59" y="12" type="line"/>
      <point x="17" y="-26"/>
      <point x="-27" y="-83"/>
    </contour>
  </outline>
</glyph>
<glyph name="brevebelowcomb" format="2">
  <advance width="223"/>
  <unicode hex="032E"/>
  <outline>
    <contour>
      <point x="31" y="-119" type="qcurve" smooth="yes"/>
      <point x="43" y="-119"/>
      <point x="68" y="-106"/>
      <point x="90" y="-85"/>
      <point x="106" y="-57"/>
      <point x="109" y="-42" type="qcurve"/>
      <point x="94" y="-42" type="line"/>
      <point x="86" y="-67"/>
      <point x="52" y="-102"/>
      <point x="35" y="-102" type="qcurve" smooth="yes"/>
      <point x="17" y="-102"/>
      <point x="-3" y="-65"/>
      <point x="2" y="-42" type="qcurve"/>
      <point x="-14" y="-42" type="line"/>
      <point x="-21" y="-73"/>
      <point x="7" y="-119"/>
    </contour>
  </outline>
</glyph>
<glyph name="uni0331" format="2">
  <advance width="355"/>
  <unicode hex="0331"/>
  <outline>
    <contour>
      <point x="230" y="-95" type="line"/>
      <point x="234" y="-75" type="line"/>
      <point x="-21" y="-75" type="line"/>
      <point x="-25" y="-95" type="line"/>
    </contour>
  </outline>
</glyph>
<glyph name="uni0335" format="2">
  <advance width="286"/>
  <unicode hex="0335"/>
  <outline>
    <contour>
      <point x="244" y="299" type="line"/>
      <point x="248" y="319" type="line"/>
      <point x="63" y="319" type="line"/>
      <point x="59" y="299" type="line"/>
    </contour>
  </outline>
</glyph>
<glyph name="dieresistonos" format="2">
  <advance width="285"/>
  <unicode hex="0385"/>
  <outline>
    <contour>
      <point x="84" y="637" type="qcurve"/>
      <point x="80" y="623"/>
      <point x="98" y="598"/>
      <point x="115" y="598" type="qcurve" smooth="yes"/>
      <point x="130" y="598"/>
      <point x="155" y="620"/>
      <point x="157" y="635" type="qcurve"/>
      <point x="162" y="652"/>
      <point x="145" y="672"/>
      <point x="128" y="672" type="qcurve" smooth="yes"/>
      <point x="111" y="672"/>
      <point x="87" y="654"/>
    </contour>
    <contour>
      <point x="301" y="637" type="qcurve"/>
      <point x="297" y="623"/>
      <point x="315" y="598"/>
      <point x="332" y="598" type="qcurve" smooth="yes"/>
      <point x="347" y="598"/>
      <point x="371" y="620"/>
      <point x="374" y="635" type="qcurve"/>
      <point x="378" y="652"/>
      <point x="362" y="672"/>
      <point x="345" y="672" type="qcurve" smooth="yes"/>
      <point x="330" y="672"/>
      <point x="304" y="654"/>
    </contour>
    <contour>
      <point x="271" y="788" type="line"/>
      <point x="202" y="597" type="line"/>
      <point x="225" y="593" type="line"/>
      <point x="290" y="786" type="line"/>
    </contour>
  </outline>
</glyph>
<glyph name="Gamma" format="2">
  <advance width="479"/>
  <unicode hex="0393"/>
  <outline>
    <contour>
      <point x="180" y="714" type="line"/>
      <point x="619" y="714" type="line"/>
      <point x="613" y="694" type="line"/>
      <point x="194" y="694" type="line"/>
      <point x="12" y="10" type="line"/>
      <point x="-8" y="10" type="line"/>
    </contour>
  </outline>
</glyph>
<glyph name="uni0394" format="2">
  <advance width="606"/>
  <unicode hex="0394"/>
  <outline>
    <contour>
      <point x="-32" y="0" type="line"/>
      <point x="523" y="0" type="line"/>
      <point x="526" y="18" type="line"/>
      <point x="412" y="714" type="line"/>
      <point x="400" y="714" type="line"/>
      <point x="-28" y="18" type="line"/>
    </contour>
    <contour>
      <point x="-3" y="19" type="line"/>
      <point x="261" y="447" type="line"/>
      <point x="398" y="675" type="line"/>
      <point x="402" y="675" type="line"/>
      <point x="437" y="447" type="line"/>
      <point x="503" y="19" type="line"/>
    </contour>
  </outline>
</glyph>
<glyph name="Eta" format="2">
  <advance width="701"/>
  <unicode hex="0397"/>
  <outline>
    <contour>
      <point x="38" y="0" type="line"/>
      <point x="58" y="0" type="line"/>
      <point x="132" y="350" type="line"/>
      <point x="595" y="350" type="line"/>
      <point x="521" y="0" type="line"/>
      <point x="540" y="0" type="line"/>
      <point x="690" y="704" type="line"/>
      <point x="670" y="704" type="line"/>
      <point x="599" y="370" type="line"/>
      <point x="136" y="370" type="line"/>
      <point x="207" y="704" type="line"/>
      <point x="187" y="704" type="line"/>
    </contour>
  </outline>
</glyph>
<glyph name="Theta" format="2">
  <advance width="726"/>
  <unicode hex="0398"/>
  <outline>
    <contour>
      <point x="133" y="348" type="line"/>
      <point x="618" y="348" type="line"/>
      <point x="622" y="366" type="line"/>
      <point x="137" y="366" type="line"/>
    </contour>
    <contour>
      <point x="302" y="-5" type="qcurve" smooth="yes"/>
      <point x="381" y="-5"/>
      <point x="522" y="64"/>
      <point x="629" y="181"/>
      <point x="691" y="335"/>
      <point x="691" y="420" type="qcurve" smooth="yes"/>
      <point x="691" y="475"/>
      <point x="662" y="579"/>
      <point x="601" y="660"/>
      <point x="506" y="709"/>
      <point x="439" y="709" type="qcurve" smooth="yes"/>
      <point x="361" y="709"/>
      <point x="220" y="640"/>
      <point x="114" y="523"/>
      <point x="52" y="368"/>
      <point x="52" y="282" type="qcurve" smooth="yes"/>
      <point x="52" y="226"/>
      <point x="80" y="123"/>
      <point x="141" y="43"/>
      <point x="236" y="-5"/>
    </contour>
    <contour>
      <point x="305" y="15" type="qcurve" smooth="yes"/>
      <point x="244" y="15"/>
      <point x="155" y="59"/>
      <point x="98" y="133"/>
      <point x="71" y="230"/>
      <point x="71" y="283" type="qcurve" smooth="yes"/>
      <point x="71" y="360"/>
      <point x="128" y="507"/>
      <point x="227" y="620"/>
      <point x="360" y="689"/>
      <point x="437" y="689" type="qcurve" smooth="yes"/>
      <point x="499" y="689"/>
      <point x="588" y="645"/>
      <point x="644" y="570"/>
      <point x="671" y="473"/>
      <point x="671" y="420" type="qcurve" smooth="yes"/>
      <point x="671" y="343"/>
      <point x="615" y="197"/>
      <point x="517" y="84"/>
      <point x="383" y="15"/>
    </contour>
  </outline>
</glyph>
<glyph name="Lambda" format="2">
  <advance width="638"/>
  <unicode hex="039B"/>
  <outline>
    <contour>
      <point x="-24" y="0" type="line"/>
      <point x="1" y="0" type="line"/>
      <point x="262" y="429" type="line"/>
      <point x="416" y="688" type="line"/>
      <point x="420" y="688" type="line"/>
      <point x="460" y="429" type="line"/>
      <point x="524" y="0" type="line"/>
      <point x="546" y="0" type="line"/>
      <point x="437" y="714" type="line"/>
      <point x="414" y="714" type="line"/>
    </contour>
  </outline>
</glyph>
<glyph name="Pi" format="2">
  <advance width="616"/>
  <unicode hex="03A0"/>
  <outline>
    <contour>
      <point x="38" y="0" type="line"/>
      <point x="60" y="0" type="line"/>
      <point x="220" y="700" type="line"/>
      <point x="601" y="700" type="line"/>
      <point x="442" y="0" type="line"/>
      <point x="463" y="0" type="line"/>
      <point x="626" y="721" type="line"/>
      <point x="200" y="721" type="line"/>
    </contour>
  </outline>
</glyph>
<glyph name="Sigma" format="2">
  <advance width="531"/>
  <unicode hex="03A3"/>
  <outline>
    <contour>
      <point x="-8" y="0" type="line"/>
      <point x="435" y="0" type="line"/>
      <point x="439" y="19" type="line"/>
      <point x="27" y="19" type="line"/>
      <point x="374" y="367" type="line"/>
      <point x="186" y="700" type="line"/>
      <point x="559" y="700" type="line"/>
      <point x="563" y="721" type="line"/>
      <point x="162" y="721" type="line"/>
      <point x="161" y="710" type="line"/>
      <point x="347" y="368" type="line"/>
      <point x="-5" y="11" type="line"/>
    </contour>
  </outline>
</glyph>
<glyph name="Upsilon" format="2">
  <advance width="603"/>
  <unicode hex="03A5"/>
  <outline>
    <contour>
      <point x="234" y="0" type="line"/>
      <point x="253" y="0" type="line"/>
      <point x="310" y="253" type="line"/>
      <point x="326" y="320"/>
      <point x="385" y="437"/>
      <point x="468" y="543"/>
      <point x="576" y="643"/>
      <point x="641" y="693" type="qcurve"/>
      <point x="630" y="711" type="line"/>
      <point x="570" y="661"/>
      <point x="484" y="585"/>
      <point x="416" y="512"/>
      <point x="360" y="429"/>
      <point x="330" y="372" type="qcurve"/>
      <point x="324" y="369" type="line"/>
      <point x="319" y="426"/>
      <point x="300" y="509"/>
      <point x="265" y="583"/>
      <point x="213" y="658"/>
      <point x="176" y="707" type="qcurve"/>
      <point x="161" y="692" type="line"/>
      <point x="198" y="648"/>
      <point x="260" y="556"/>
      <point x="299" y="451"/>
      <point x="308" y="330"/>
      <point x="292" y="256" type="qcurve" smooth="yes"/>
    </contour>
  </outline>
</glyph>
<glyph name="Phi" format="2">
  <advance width="681"/>
  <unicode hex="03A6"/>
  <outline>
    <contour>
      <point x="298" y="108" type="line"/>
      <point x="243" y="108"/>
      <point x="156" y="146"/>
      <point x="102" y="213"/>
      <point x="84" y="304"/>
      <point x="96" y="358" type="qcurve" smooth="yes"/>
      <point x="108" y="412"/>
      <point x="170" y="506"/>
      <point x="256" y="574"/>
      <point x="361" y="613"/>
      <point x="416" y="613" type="qcurve"/>
      <point x="418" y="634" type="line"/>
      <point x="358" y="634"/>
      <point x="246" y="592"/>
      <point x="153" y="519"/>
      <point x="87" y="419"/>
      <point x="74" y="360" type="qcurve" smooth="yes"/>
      <point x="61" y="303"/>
      <point x="82" y="203"/>
      <point x="142" y="129"/>
      <point x="235" y="86"/>
      <point x="295" y="86" type="qcurve"/>
    </contour>
    <contour>
      <point x="289" y="-25" type="line"/>
      <point x="464" y="746" type="line"/>
      <point x="442" y="746" type="line"/>
      <point x="268" y="-25" type="line"/>
    </contour>
    <contour>
      <point x="314" y="86" type="line"/>
      <point x="374" y="86"/>
      <point x="487" y="128"/>
      <point x="579" y="201"/>
      <point x="644" y="300"/>
      <point x="657" y="358" type="qcurve" smooth="yes"/>
      <point x="670" y="416"/>
      <point x="650" y="517"/>
      <point x="591" y="591"/>
      <point x="497" y="634"/>
      <point x="437" y="634" type="qcurve"/>
      <point x="434" y="613" type="line"/>
      <point x="490" y="613"/>
      <point x="576" y="575"/>
      <point x="629" y="508"/>
      <point x="646" y="415"/>
      <point x="633" y="360" type="qcurve" smooth="yes"/>
      <point x="621" y="307"/>
      <point x="561" y="215"/>
      <point x="476" y="147"/>
      <point x="372" y="108"/>
      <point x="316" y="108" type="qcurve"/>
    </contour>
  </outline>
</glyph>
<glyph name="Psi" format="2">
  <advance width="679"/>
  <unicode hex="03A8"/>
  <outline>
    <contour>
      <point x="272" y="0" type="line"/>
      <point x="295" y="0" type="line"/>
      <point x="458" y="714" type="line"/>
      <point x="434" y="714" type="line"/>
    </contour>
    <contour>
      <point x="123" y="428" type="line"/>
      <point x="110" y="369"/>
      <point x="124" y="279"/>
      <point x="176" y="218"/>
      <point x="261" y="187"/>
      <point x="318" y="187" type="qcurve"/>
      <point x="324" y="207" type="line"/>
      <point x="269" y="207"/>
      <point x="188" y="236"/>
      <point x="141" y="292"/>
      <point x="128" y="375"/>
      <point x="140" y="429" type="qcurve"/>
      <point x="143" y="439"/>
      <point x="153" y="475"/>
      <point x="165" y="523"/>
      <point x="177" y="578"/>
      <point x="183" y="606" type="qcurve"/>
      <point x="191" y="638"/>
      <point x="198" y="688"/>
      <point x="197" y="713" type="qcurve"/>
      <point x="179" y="716" type="line"/>
      <point x="179" y="697"/>
      <point x="176" y="667"/>
      <point x="172" y="640"/>
      <point x="167" y="614"/>
      <point x="163" y="597" type="qcurve" smooth="yes"/>
    </contour>
    <contour>
      <point x="669" y="594" type="line"/>
      <point x="673" y="610"/>
      <point x="680" y="637"/>
      <point x="689" y="664"/>
      <point x="700" y="694"/>
      <point x="708" y="713" type="qcurve"/>
      <point x="689" y="716" type="line"/>
      <point x="683" y="704"/>
      <point x="674" y="679"/>
      <point x="666" y="653"/>
      <point x="660" y="624"/>
      <point x="657" y="608" type="qcurve" smooth="yes"/>
      <point x="651" y="580"/>
      <point x="639" y="525"/>
      <point x="629" y="478"/>
      <point x="622" y="441"/>
      <point x="620" y="431" type="qcurve"/>
      <point x="607" y="377"/>
      <point x="554" y="294"/>
      <point x="481" y="237"/>
      <point x="389" y="207"/>
      <point x="335" y="207" type="qcurve"/>
      <point x="335" y="187" type="line"/>
      <point x="392" y="187"/>
      <point x="489" y="218"/>
      <point x="566" y="278"/>
      <point x="620" y="367"/>
      <point x="633" y="425" type="qcurve" smooth="yes"/>
    </contour>
  </outline>
</glyph>
<glyph name="Omega" format="2">
  <advance width="700"/>
  <unicode hex="03A9"/>
  <outline>
    <contour>
      <point x="18" y="0" type="line"/>
      <point x="247" y="0" type="line"/>
      <point x="267" y="102" type="line"/>
      <point x="224" y="115"/>
      <point x="153" y="167"/>
      <point x="109" y="244"/>
      <point x="96" y="344"/>
      <point x="109" y="404" type="qcurve" smooth="yes"/>
      <point x="123" y="468"/>
      <point x="189" y="578"/>
      <point x="280" y="657"/>
      <point x="392" y="702"/>
      <point x="453" y="702" type="qcurve" smooth="yes"/>
      <point x="512" y="702"/>
      <point x="603" y="658"/>
      <point x="660" y="580"/>
      <point x="677" y="470"/>
      <point x="661" y="405" type="qcurve"/>
      <point x="648" y="347"/>
      <point x="589" y="248"/>
      <point x="508" y="169"/>
      <point x="410" y="115"/>
      <point x="358" y="102" type="qcurve"/>
      <point x="338" y="0" type="line"/>
      <point x="568" y="0" type="line"/>
      <point x="571" y="21" type="line"/>
      <point x="360" y="21" type="line"/>
      <point x="365" y="10" type="line"/>
      <point x="383" y="94" type="line"/>
      <point x="378" y="86" type="line"/>
      <point x="431" y="102"/>
      <point x="528" y="159"/>
      <point x="608" y="238"/>
      <point x="666" y="340"/>
      <point x="679" y="401" type="qcurve" smooth="yes"/>
      <point x="694" y="466"/>
      <point x="678" y="583"/>
      <point x="620" y="671"/>
      <point x="522" y="722"/>
      <point x="456" y="722" type="qcurve" smooth="yes"/>
      <point x="397" y="722"/>
      <point x="281" y="679"/>
      <point x="181" y="599"/>
      <point x="107" y="484"/>
      <point x="90" y="412" type="qcurve" smooth="yes"/>
      <point x="76" y="350"/>
      <point x="88" y="245"/>
      <point x="132" y="162"/>
      <point x="202" y="103"/>
      <point x="247" y="88" type="qcurve"/>
      <point x="245" y="94" type="line"/>
      <point x="227" y="10" type="line"/>
      <point x="237" y="21" type="line"/>
      <point x="21" y="21" type="line"/>
    </contour>
  </outline>
</glyph>
<glyph name="upsilondieresistonos" format="2">
  <advance width="523"/>
  <unicode hex="03B0"/>
  <outline>
    <contour>
      <point x="61" y="163" type="qcurve"/>
      <point x="49" y="113"/>
      <point x="68" y="47"/>
      <point x="113" y="8"/>
      <point x="174" y="-8"/>
      <point x="204" y="-8" type="qcurve" smooth="yes"/>
      <point x="243" y="-8"/>
      <point x="317" y="19"/>
      <point x="382" y="83"/>
      <point x="435" y="187"/>
      <point x="453" y="265" type="qcurve" smooth="yes"/>
      <point x="457" y="284"/>
      <point x="467" y="343"/>
      <point x="476" y="412"/>
      <point x="482" y="484"/>
      <point x="482" y="517" type="qcurve"/>
      <point x="462" y="520" type="line"/>
      <point x="463" y="486"/>
      <point x="457" y="414"/>
      <point x="449" y="348"/>
      <point x="438" y="290"/>
      <point x="433" y="269" type="qcurve" smooth="yes"/>
      <point x="404" y="137"/>
      <point x="288" y="14"/>
      <point x="207" y="12" type="qcurve"/>
      <point x="177" y="13"/>
      <point x="123" y="29"/>
      <point x="86" y="63"/>
      <point x="70" y="119"/>
      <point x="77" y="159" type="qcurve"/>
      <point x="81" y="171"/>
      <point x="94" y="213"/>
      <point x="108" y="263"/>
      <point x="121" y="312"/>
      <point x="125" y="331" type="qcurve" smooth="yes"/>
      <point x="130" y="354"/>
      <point x="137" y="398"/>
      <point x="141" y="443"/>
      <point x="142" y="491"/>
      <point x="141" y="517" type="qcurve"/>
      <point x="123" y="520" type="line"/>
      <point x="124" y="461"/>
      <point x="113" y="364"/>
      <point x="104" y="324" type="qcurve" smooth="yes"/>
      <point x="99" y="303"/>
      <point x="86" y="257"/>
      <point x="73" y="213"/>
      <point x="63" y="176"/>
    </contour>
    <contour>
      <point x="176" y="647" type="qcurve"/>
      <point x="172" y="632"/>
      <point x="190" y="607"/>
      <point x="208" y="607" type="qcurve" smooth="yes"/>
      <point x="223" y="607"/>
      <point x="248" y="629"/>
      <point x="250" y="644" type="qcurve"/>
      <point x="255" y="661"/>
      <point x="238" y="682"/>
      <point x="221" y="682" type="qcurve" smooth="yes"/>
      <point x="204" y="682"/>
      <point x="179" y="664"/>
    </contour>
    <contour>
      <point x="396" y="647" type="qcurve"/>
      <point x="393" y="632"/>
      <point x="411" y="607"/>
      <point x="428" y="607" type="qcurve" smooth="yes"/>
      <point x="443" y="607"/>
      <point x="468" y="629"/>
      <point x="471" y="644" type="qcurve" smooth="yes"/>
      <point x="474" y="661"/>
      <point x="458" y="682"/>
      <point x="441" y="682" type="qcurve" smooth="yes"/>
      <point x="426" y="682"/>
      <point x="400" y="664"/>
    </contour>
    <contour>
      <point x="366" y="800" type="line"/>
      <point x="296" y="606" type="line"/>
      <point x="319" y="602" type="line"/>
      <point x="385" y="798" type="line"/>
    </contour>
  </outline>
</glyph>
<glyph name="alpha" format="2">
  <advance width="647"/>
  <unicode hex="03B1"/>
  <outline>
    <contour>
      <point x="484" y="254" type="line" smooth="yes"/>
      <point x="470" y="225"/>
      <point x="427" y="143"/>
      <point x="363" y="67"/>
      <point x="276" y="14"/>
      <point x="218" y="13" type="qcurve"/>
      <point x="172" y="14"/>
      <point x="108" y="52"/>
      <point x="72" y="116"/>
      <point x="65" y="202"/>
      <point x="76" y="251" type="qcurve" smooth="yes"/>
      <point x="89" y="307"/>
      <point x="137" y="401"/>
      <point x="201" y="470"/>
      <point x="278" y="508"/>
      <point x="321" y="508" type="qcurve" smooth="yes"/>
      <point x="360" y="508"/>
      <point x="409" y="472"/>
      <point x="438" y="414"/>
      <point x="450" y="340"/>
      <point x="453" y="264"/>
      <point x="450" y="194"/>
      <point x="449" y="168" type="qcurve"/>
      <point x="475" y="201" type="line"/>
      <point x="480" y="243"/>
      <point x="482" y="356"/>
      <point x="456" y="458"/>
      <point x="390" y="529"/>
      <point x="327" y="529" type="qcurve" smooth="yes"/>
      <point x="281" y="529"/>
      <point x="196" y="490"/>
      <point x="126" y="418"/>
      <point x="73" y="318"/>
      <point x="59" y="257" type="qcurve" smooth="yes"/>
      <point x="46" y="202"/>
      <point x="55" y="105"/>
      <point x="96" y="33"/>
      <point x="167" y="-8"/>
      <point x="217" y="-8" type="qcurve" smooth="yes"/>
      <point x="255" y="-8"/>
      <point x="326" y="16"/>
      <point x="391" y="65"/>
      <point x="450" y="137"/>
      <point x="474" y="185" type="qcurve" smooth="yes"/>
      <point x="647" y="519" type="line"/>
      <point x="619" y="519" type="line"/>
    </contour>
    <contour>
      <point x="532" y="14" type="line"/>
      <point x="504" y="28" type="line"/>
      <point x="493" y="35"/>
      <point x="477" y="62"/>
      <point x="466" y="97"/>
      <point x="462" y="141"/>
      <point x="464" y="166" type="qcurve"/>
      <point x="439" y="156" type="line"/>
      <point x="437" y="134"/>
      <point x="444" y="90"/>
      <point x="460" y="51"/>
      <point x="483" y="19"/>
      <point x="497" y="7" type="qcurve"/>
      <point x="519" y="-8" type="line"/>
    </contour>
  </outline>
</glyph>
<glyph name="beta" format="2">
  <advance width="616"/>
  <unicode hex="03B2"/>
  <outline>
    <contour>
      <point x="71" y="83" type="line"/>
      <point x="91" y="58"/>
      <point x="139" y="23"/>
      <point x="190" y="1"/>
      <point x="243" y="-8"/>
      <point x="267" y="-8" type="qcurve" smooth="yes"/>
      <point x="313" y="-8"/>
      <point x="403" y="28"/>
      <point x="477" y="90"/>
      <point x="529" y="172"/>
      <point x="538" y="218" type="qcurve"/>
      <point x="549" y="260"/>
      <point x="538" y="336"/>
      <point x="495" y="394"/>
      <point x="423" y="432"/>
      <point x="374" y="435" type="qcurve"/>
      <point x="376" y="439" type="line"/>
      <point x="408" y="456"/>
      <point x="462" y="492"/>
      <point x="504" y="534"/>
      <point x="533" y="583"/>
      <point x="539" y="611" type="qcurve" smooth="yes"/>
      <point x="546" y="641"/>
      <point x="538" y="699"/>
      <point x="504" y="744"/>
      <point x="443" y="772"/>
      <point x="397" y="771" type="qcurve"/>
      <point x="341" y="772"/>
      <point x="259" y="730"/>
      <point x="201" y="655"/>
      <point x="162" y="551"/>
      <point x="148" y="491" type="qcurve" smooth="yes"/>
      <point x="-11" y="-209" type="line"/>
      <point x="7" y="-211" type="line"/>
      <point x="24" y="-145"/>
      <point x="60" y="12"/>
      <point x="77" y="83" type="qcurve" smooth="yes"/>
      <point x="79" y="91" type="line"/>
      <point x="86" y="126"/>
      <point x="102" y="202"/>
      <point x="123" y="293"/>
      <point x="148" y="405"/>
      <point x="164" y="476" type="qcurve"/>
      <point x="179" y="537"/>
      <point x="219" y="638"/>
      <point x="275" y="710"/>
      <point x="350" y="750"/>
      <point x="399" y="750" type="qcurve" smooth="yes"/>
      <point x="439" y="750"/>
      <point x="490" y="727"/>
      <point x="518" y="689"/>
      <point x="524" y="643"/>
      <point x="519" y="619" type="qcurve" smooth="yes"/>
      <point x="513" y="591"/>
      <point x="476" y="533"/>
      <point x="414" y="481"/>
      <point x="325" y="438"/>
      <point x="268" y="425" type="qcurve"/>
      <point x="265" y="402" type="line"/>
      <point x="267" y="403"/>
      <point x="285" y="406"/>
      <point x="310" y="408"/>
      <point x="339" y="410"/>
      <point x="352" y="409" type="qcurve"/>
      <point x="400" y="410"/>
      <point x="472" y="381"/>
      <point x="515" y="329"/>
      <point x="530" y="259"/>
      <point x="521" y="219" type="qcurve" smooth="yes"/>
      <point x="511" y="176"/>
      <point x="461" y="101"/>
      <point x="392" y="45"/>
      <point x="310" y="12"/>
      <point x="268" y="11" type="qcurve"/>
      <point x="247" y="12"/>
      <point x="197" y="21"/>
      <point x="146" y="44"/>
      <point x="98" y="82"/>
      <point x="80" y="111" type="qcurve"/>
    </contour>
  </outline>
</glyph>
<glyph name="gamma" format="2">
  <advance width="479"/>
  <unicode hex="03B3"/>
  <outline>
    <contour>
      <point x="76" y="-211" type="line"/>
      <point x="121" y="-96"/>
      <point x="189" y="115"/>
      <point x="211" y="301"/>
      <point x="176" y="462"/>
      <point x="117" y="528" type="qcurve"/>
      <point x="99" y="516" type="line"/>
      <point x="138" y="476"/>
      <point x="178" y="377"/>
      <point x="188" y="264"/>
      <point x="170" y="140"/>
      <point x="135" y="6"/>
      <point x="86" y="-136"/>
      <point x="58" y="-208" type="qcurve"/>
    </contour>
    <contour>
      <point x="126" y="1" type="line"/>
      <point x="198" y="77"/>
      <point x="312" y="211"/>
      <point x="404" y="336"/>
      <point x="474" y="456"/>
      <point x="502" y="517" type="qcurve"/>
      <point x="479" y="520" type="line"/>
      <point x="457" y="462"/>
      <point x="382" y="340"/>
      <point x="290" y="220"/>
      <point x="190" y="104"/>
      <point x="143" y="51" type="qcurve"/>
    </contour>
  </outline>
</glyph>
<glyph name="delta" format="2">
  <advance width="608"/>
  <unicode hex="03B4"/>
  <outline>
    <contour>
      <point x="227" y="-8" type="qcurve" smooth="yes"/>
      <point x="280" y="-8"/>
      <point x="378" y="32"/>
      <point x="458" y="101"/>
      <point x="514" y="196"/>
      <point x="526" y="251" type="qcurve" smooth="yes"/>
      <point x="540" y="310"/>
      <point x="524" y="398"/>
      <point x="480" y="467"/>
      <point x="417" y="520"/>
      <point x="384" y="543" type="qcurve"/>
      <point x="362" y="563"/>
      <point x="319" y="598"/>
      <point x="289" y="631"/>
      <point x="274" y="667"/>
      <point x="279" y="688" type="qcurve" smooth="yes"/>
      <point x="287" y="720"/>
      <point x="345" y="755"/>
      <point x="391" y="755" type="qcurve" smooth="yes"/>
      <point x="423" y="755"/>
      <point x="496" y="738"/>
      <point x="564" y="711"/>
      <point x="620" y="677"/>
      <point x="633" y="659" type="qcurve"/>
      <point x="653" y="670" type="line"/>
      <point x="637" y="690"/>
      <point x="579" y="727"/>
      <point x="507" y="757"/>
      <point x="428" y="775"/>
      <point x="392" y="774" type="qcurve"/>
      <point x="338" y="776"/>
      <point x="271" y="728"/>
      <point x="261" y="690" type="qcurve" smooth="yes"/>
      <point x="255" y="665"/>
      <point x="271" y="620"/>
      <point x="304" y="581"/>
      <point x="348" y="546"/>
      <point x="370" y="529" type="qcurve"/>
      <point x="400" y="508"/>
      <point x="460" y="457"/>
      <point x="503" y="392"/>
      <point x="520" y="307"/>
      <point x="508" y="251" type="qcurve"/>
      <point x="496" y="202"/>
      <point x="443" y="116"/>
      <point x="368" y="53"/>
      <point x="276" y="16"/>
      <point x="227" y="15" type="qcurve"/>
      <point x="181" y="16"/>
      <point x="109" y="51"/>
      <point x="64" y="112"/>
      <point x="49" y="195"/>
      <point x="60" y="244" type="qcurve" smooth="yes"/>
      <point x="73" y="297"/>
      <point x="130" y="386"/>
      <point x="207" y="450"/>
      <point x="296" y="484"/>
      <point x="341" y="483" type="qcurve"/>
      <point x="382" y="485"/>
      <point x="449" y="456"/>
      <point x="478" y="432" type="qcurve"/>
      <point x="462" y="471" type="line"/>
      <point x="439" y="491"/>
      <point x="377" y="511"/>
      <point x="346" y="510" type="qcurve"/>
      <point x="297" y="510"/>
      <point x="201" y="473"/>
      <point x="118" y="405"/>
      <point x="57" y="308"/>
      <point x="43" y="248" type="qcurve" smooth="yes"/>
      <point x="31" y="195"/>
      <point x="47" y="101"/>
      <point x="96" y="32"/>
      <point x="176" y="-8"/>
    </contour>
  </outline>
</glyph>
<glyph name="epsilon" format="2">
  <advance width="455"/>
  <unicode hex="03B5"/>
  <outline>
    <contour>
      <point x="348" y="34" type="line"/>
      <point x="324" y="27"/>
      <point x="245" y="15"/>
      <point x="211" y="13" type="qcurve"/>
      <point x="132" y="15"/>
      <point x="47" y="76"/>
      <point x="59" y="132" type="qcurve"/>
      <point x="67" y="163"/>
      <point x="111" y="212"/>
      <point x="175" y="245"/>
      <point x="253" y="262"/>
      <point x="296" y="261" type="qcurve"/>
      <point x="337" y="261" type="line"/>
      <point x="340" y="284" type="line"/>
      <point x="285" y="284" type="line" smooth="yes"/>
      <point x="251" y="284"/>
      <point x="194" y="301"/>
      <point x="155" y="332"/>
      <point x="139" y="374"/>
      <point x="144" y="399" type="qcurve"/>
      <point x="149" y="417"/>
      <point x="174" y="456"/>
      <point x="216" y="488"/>
      <point x="276" y="509"/>
      <point x="316" y="509" type="qcurve" smooth="yes"/>
      <point x="331" y="509"/>
      <point x="369" y="506"/>
      <point x="406" y="500"/>
      <point x="436" y="491"/>
      <point x="444" y="485" type="qcurve"/>
      <point x="454" y="507" type="line"/>
      <point x="432" y="515"/>
      <point x="359" y="529"/>
      <point x="324" y="529" type="qcurve" smooth="yes"/>
      <point x="278" y="529"/>
      <point x="208" y="508"/>
      <point x="159" y="473"/>
      <point x="130" y="429"/>
      <point x="125" y="405" type="qcurve"/>
      <point x="120" y="384"/>
      <point x="128" y="342"/>
      <point x="151" y="307"/>
      <point x="187" y="281"/>
      <point x="211" y="275" type="qcurve"/>
      <point x="207" y="273" type="line"/>
      <point x="174" y="266"/>
      <point x="119" y="242"/>
      <point x="76" y="207"/>
      <point x="47" y="163"/>
      <point x="41" y="137" type="qcurve" smooth="yes"/>
      <point x="34" y="106"/>
      <point x="52" y="53"/>
      <point x="98" y="14"/>
      <point x="169" y="-8"/>
      <point x="216" y="-8" type="qcurve" smooth="yes"/>
      <point x="236" y="-8"/>
      <point x="273" y="-5"/>
      <point x="306" y="0"/>
      <point x="334" y="5"/>
      <point x="345" y="7" type="qcurve"/>
    </contour>
  </outline>
</glyph>
<glyph name="zeta" format="2">
  <advance width="484"/>
  <unicode hex="03B6"/>
  <outline>
    <contour>
      <point x="242" y="-145" type="qcurve" smooth="yes"/>
      <point x="271" y="-145"/>
      <point x="324" y="-131"/>
      <point x="365" y="-106"/>
      <point x="392" y="-73"/>
      <point x="395" y="-54" type="qcurve"/>
      <point x="401" y="-38"/>
      <point x="393" y="-9"/>
      <point x="371" y="11"/>
      <point x="337" y="22"/>
      <point x="315" y="21" type="qcurve"/>
      <point x="303" y="22"/>
      <point x="277" y="20"/>
      <point x="247" y="16"/>
      <point x="212" y="11"/>
      <point x="191" y="10" type="qcurve"/>
      <point x="163" y="11"/>
      <point x="114" y="24"/>
      <point x="81" y="59"/>
      <point x="71" y="122"/>
      <point x="81" y="173" type="qcurve"/>
      <point x="91" y="215"/>
      <point x="128" y="306"/>
      <point x="183" y="399"/>
      <point x="255" y="494"/>
      <point x="343" y="586"/>
      <point x="448" y="673"/>
      <point x="508" y="711" type="qcurve"/>
      <point x="513" y="732" type="line"/>
      <point x="345" y="732" type="line" smooth="yes"/>
      <point x="326" y="732"/>
      <point x="305" y="737"/>
      <point x="295" y="745"/>
      <point x="294" y="756"/>
      <point x="295" y="762" type="qcurve"/>
      <point x="298" y="766"/>
      <point x="309" y="784"/>
      <point x="314" y="789" type="qcurve"/>
      <point x="293" y="804" type="line"/>
      <point x="284" y="793"/>
      <point x="278" y="776"/>
      <point x="276" y="768" type="qcurve" smooth="yes"/>
      <point x="273" y="755"/>
      <point x="276" y="733"/>
      <point x="292" y="717"/>
      <point x="322" y="707"/>
      <point x="344" y="706" type="qcurve"/>
      <point x="471" y="706" type="line"/>
      <point x="471" y="715" type="line"/>
      <point x="427" y="690"/>
      <point x="302" y="581"/>
      <point x="180" y="436"/>
      <point x="79" y="266"/>
      <point x="59" y="179" type="qcurve" smooth="yes"/>
      <point x="44" y="113"/>
      <point x="65" y="38"/>
      <point x="112" y="1"/>
      <point x="172" y="-8"/>
      <point x="196" y="-8" type="qcurve" smooth="yes"/>
      <point x="218" y="-8"/>
      <point x="253" y="-6"/>
      <point x="281" y="-3"/>
      <point x="304" y="0"/>
      <point x="314" y="0" type="qcurve" smooth="yes"/>
      <point x="349" y="0"/>
      <point x="382" y="-27"/>
      <point x="377" y="-51" type="qcurve"/>
      <point x="373" y="-66"/>
      <point x="349" y="-94"/>
      <point x="313" y="-115"/>
      <point x="267" y="-127"/>
      <point x="243" y="-127" type="qcurve" smooth="yes"/>
      <point x="224" y="-127"/>
      <point x="173" y="-118"/>
      <point x="151" y="-109" type="qcurve"/>
      <point x="149" y="-133" type="line"/>
      <point x="177" y="-139"/>
      <point x="226" y="-145"/>
    </contour>
  </outline>
</glyph>
<glyph name="eta" format="2">
  <advance width="548"/>
  <unicode hex="03B7"/>
  <outline>
    <contour>
      <point x="54" y="-2" type="line"/>
      <point x="84" y="94"/>
      <point x="134" y="267"/>
      <point x="151" y="346" type="qcurve" smooth="yes"/>
      <point x="158" y="375"/>
      <point x="168" y="427"/>
      <point x="165" y="473"/>
      <point x="148" y="512"/>
      <point x="127" y="529" type="qcurve"/>
      <point x="112" y="509" type="line"/>
      <point x="124" y="503"/>
      <point x="141" y="486"/>
      <point x="148" y="451"/>
      <point x="140" y="389"/>
      <point x="127" y="337" type="qcurve"/>
      <point x="113" y="267"/>
      <point x="62" y="90"/>
      <point x="30" y="2" type="qcurve"/>
    </contour>
    <contour>
      <point x="298" y="-211" type="line"/>
      <point x="315" y="-177"/>
      <point x="361" y="-68"/>
      <point x="407" y="59"/>
      <point x="447" y="193"/>
      <point x="460" y="251" type="qcurve" smooth="yes"/>
      <point x="493" y="395"/>
      <point x="452" y="529"/>
      <point x="373" y="529" type="qcurve" smooth="yes"/>
      <point x="334" y="529"/>
      <point x="266" y="499"/>
      <point x="209" y="450"/>
      <point x="162" y="389"/>
      <point x="144" y="358" type="qcurve"/>
      <point x="119" y="226" type="line"/>
      <point x="129" y="271"/>
      <point x="177" y="370"/>
      <point x="245" y="453"/>
      <point x="329" y="507"/>
      <point x="376" y="507" type="qcurve" smooth="yes"/>
      <point x="441" y="507"/>
      <point x="470" y="382"/>
      <point x="438" y="245" type="qcurve" smooth="yes"/>
      <point x="428" y="199"/>
      <point x="397" y="91"/>
      <point x="357" y="-25"/>
      <point x="307" y="-145"/>
      <point x="279" y="-202" type="qcurve"/>
    </contour>
  </outline>
</glyph>
<glyph name="theta" format="2">
  <advance width="611"/>
  <unicode hex="03B8"/>
  <outline>
    <contour>
      <point x="248" y="-8" type="qcurve" smooth="yes"/>
      <point x="297" y="-8"/>
      <point x="393" y="51"/>
      <point x="477" y="155"/>
      <point x="544" y="298"/>
      <point x="564" y="383" type="qcurve" smooth="yes"/>
      <point x="584" y="470"/>
      <point x="581" y="614"/>
      <point x="543" y="716"/>
      <point x="472" y="772"/>
      <point x="422" y="771" type="qcurve"/>
      <point x="374" y="772"/>
      <point x="277" y="714"/>
      <point x="192" y="610"/>
      <point x="123" y="468"/>
      <point x="104" y="384" type="qcurve" smooth="yes"/>
      <point x="84" y="292"/>
      <point x="88" y="147"/>
      <point x="128" y="46"/>
      <point x="200" y="-8"/>
    </contour>
    <contour>
      <point x="244" y="11" type="qcurve"/>
      <point x="197" y="12"/>
      <point x="136" y="71"/>
      <point x="107" y="169"/>
      <point x="108" y="299"/>
      <point x="123" y="370" type="qcurve"/>
      <point x="143" y="455"/>
      <point x="210" y="595"/>
      <point x="293" y="695"/>
      <point x="383" y="750"/>
      <point x="425" y="750" type="qcurve" smooth="yes"/>
      <point x="473" y="750"/>
      <point x="534" y="694"/>
      <point x="563" y="596"/>
      <point x="560" y="467"/>
      <point x="544" y="393" type="qcurve" smooth="yes"/>
      <point x="525" y="308"/>
      <point x="459" y="168"/>
      <point x="378" y="68"/>
      <point x="288" y="12"/>
    </contour>
    <contour>
      <point x="549" y="375" type="line"/>
      <point x="554" y="394" type="line"/>
      <point x="119" y="394" type="line"/>
      <point x="115" y="375" type="line"/>
    </contour>
  </outline>
</glyph>
<glyph name="iota" format="2">
  <advance width="248"/>
  <unicode hex="03B9"/>
  <outline>
    <contour>
      <point x="95" y="-8" type="qcurve"/>
      <point x="95" y="-8"/>
      <point x="116" y="-7"/>
      <point x="132" y="-1" type="qcurve"/>
      <point x="124" y="17" type="line"/>
      <point x="112" y="14"/>
      <point x="101" y="12"/>
      <point x="92" y="10" type="qcurve"/>
      <point x="81" y="11"/>
      <point x="68" y="20"/>
      <point x="64" y="43"/>
      <point x="70" y="80"/>
      <point x="76" y="109" type="qcurve"/>
      <point x="82" y="134"/>
      <point x="106" y="229"/>
      <point x="135" y="343"/>
      <point x="167" y="464"/>
      <point x="181" y="517" type="qcurve"/>
      <point x="156" y="520" type="line"/>
      <point x="142" y="463"/>
      <point x="113" y="347"/>
      <point x="86" y="234"/>
      <point x="61" y="126"/>
      <point x="51" y="77" type="qcurve"/>
      <point x="44" y="52"/>
      <point x="47" y="19"/>
      <point x="60" y="-1"/>
      <point x="82" y="-8"/>
    </contour>
  </outline>
</glyph>
<glyph name="kappa" format="2">
  <advance width="533"/>
  <unicode hex="03BA"/>
  <outline>
    <contour>
      <point x="36" y="-4" type="line"/>
      <point x="87" y="104"/>
      <point x="221" y="283"/>
      <point x="361" y="415"/>
      <point x="495" y="497"/>
      <point x="546" y="510" type="qcurve"/>
      <point x="550" y="529" type="line"/>
      <point x="509" y="522"/>
      <point x="394" y="463"/>
      <point x="267" y="363"/>
      <point x="140" y="223"/>
      <point x="87" y="133" type="qcurve"/>
      <point x="87" y="129" type="line"/>
      <point x="113" y="194"/>
      <point x="144" y="304"/>
      <point x="151" y="344" type="qcurve"/>
      <point x="163" y="393"/>
      <point x="167" y="456"/>
      <point x="158" y="497"/>
      <point x="137" y="521"/>
      <point x="124" y="529" type="qcurve"/>
      <point x="108" y="509" type="line"/>
      <point x="124" y="501"/>
      <point x="142" y="477"/>
      <point x="146" y="439"/>
      <point x="137" y="386"/>
      <point x="128" y="350" type="qcurve"/>
      <point x="111" y="262"/>
      <point x="49" y="85"/>
      <point x="14" y="0" type="qcurve"/>
    </contour>
    <contour>
      <point x="416" y="13" type="line"/>
      <point x="382" y="39"/>
      <point x="332" y="114"/>
      <point x="297" y="201"/>
      <point x="277" y="293"/>
      <point x="272" y="335" type="qcurve"/>
      <point x="246" y="318" type="line"/>
      <point x="253" y="276"/>
      <point x="282" y="179"/>
      <point x="322" y="88"/>
      <point x="373" y="12"/>
      <point x="402" y="-8" type="qcurve"/>
    </contour>
  </outline>
</glyph>
<glyph name="lambda" format="2">
  <advance width="586"/>
  <unicode hex="03BB"/>
  <outline>
    <contour>
      <point x="453" y="-8" type="qcurve" smooth="yes"/>
      <point x="461" y="-8"/>
      <point x="489" y="-1"/>
      <point x="494" y="2" type="qcurve"/>
      <point x="487" y="19" type="line"/>
      <point x="474" y="17"/>
      <point x="459" y="14"/>
      <point x="451" y="12" type="qcurve"/>
      <point x="441" y="13"/>
      <point x="423" y="26"/>
      <point x="407" y="68"/>
      <point x="391" y="145"/>
      <point x="384" y="209" type="qcurve" smooth="yes"/>
      <point x="349" y="534" type="line"/>
      <point x="345" y="582"/>
      <point x="334" y="669"/>
      <point x="311" y="734"/>
      <point x="272" y="772"/>
      <point x="239" y="771" type="qcurve"/>
      <point x="221" y="773"/>
      <point x="184" y="758"/>
      <point x="173" y="753" type="qcurve"/>
      <point x="180" y="737" type="line"/>
      <point x="191" y="743"/>
      <point x="223" y="752"/>
      <point x="237" y="752" type="qcurve" smooth="yes"/>
      <point x="263" y="752"/>
      <point x="294" y="723"/>
      <point x="311" y="670"/>
      <point x="320" y="593"/>
      <point x="324" y="545" type="qcurve"/>
      <point x="330" y="519" type="line"/>
      <point x="331" y="536" type="line"/>
      <point x="-38" y="0" type="line"/>
      <point x="-13" y="0" type="line"/>
      <point x="331" y="501" type="line"/>
      <point x="335" y="501" type="line"/>
      <point x="365" y="216" type="line"/>
      <point x="373" y="155"/>
      <point x="387" y="69"/>
      <point x="406" y="16"/>
      <point x="433" y="-8"/>
    </contour>
  </outline>
</glyph>
<glyph name="uni03BC" format="2">
  <advance width="566"/>
  <unicode hex="03BC"/>
  <outline>
    <contour>
      <point x="13" y="-207" type="line"/>
      <point x="18" y="-173"/>
      <point x="33" y="-95"/>
      <point x="50" y="-17"/>
      <point x="68" y="60"/>
      <point x="75" y="93" type="qcurve"/>
      <point x="69" y="83" type="line"/>
      <point x="77" y="35"/>
      <point x="140" y="-8"/>
      <point x="193" y="-8" type="qcurve" smooth="yes"/>
      <point x="231" y="-8"/>
      <point x="298" y="13"/>
      <point x="355" y="48"/>
      <point x="401" y="94"/>
      <point x="418" y="120" type="qcurve"/>
      <point x="423" y="156" type="line"/>
      <point x="405" y="129"/>
      <point x="357" y="78"/>
      <point x="298" y="38"/>
      <point x="230" y="13"/>
      <point x="192" y="12" type="qcurve"/>
      <point x="139" y="13"/>
      <point x="94" y="65"/>
      <point x="86" y="141"/>
      <point x="103" y="225"/>
      <point x="111" y="257" type="qcurve"/>
      <point x="168" y="519" type="line"/>
      <point x="146" y="519" type="line"/>
      <point x="93" y="281" type="line" smooth="yes"/>
      <point x="79" y="221"/>
      <point x="51" y="98"/>
      <point x="24" y="-25"/>
      <point x="-1" y="-148"/>
      <point x="-11" y="-207" type="qcurve"/>
    </contour>
    <contour>
      <point x="457" y="12" type="line"/>
      <point x="451" y="15" type="line"/>
      <point x="435" y="26"/>
      <point x="422" y="72"/>
      <point x="430" y="106" type="qcurve" smooth="yes"/>
      <point x="522" y="519" type="line"/>
      <point x="503" y="519" type="line"/>
      <point x="418" y="146" type="line"/>
      <point x="407" y="111" type="line"/>
      <point x="397" y="66"/>
      <point x="415" y="12"/>
      <point x="435" y="-2" type="qcurve"/>
      <point x="442" y="-8" type="line"/>
    </contour>
  </outline>
</glyph>
<glyph name="nu" format="2">
  <advance width="468"/>
  <unicode hex="03BD"/>
  <outline>
    <contour>
      <point x="180" y="-2" type="line"/>
      <point x="238" y="75"/>
      <point x="333" y="210"/>
      <point x="410" y="335"/>
      <point x="469" y="455"/>
      <point x="492" y="517" type="qcurve"/>
      <point x="467" y="520" type="line"/>
      <point x="450" y="462"/>
      <point x="391" y="343"/>
      <point x="313" y="220"/>
      <point x="222" y="91"/>
      <point x="172" y="22" type="qcurve"/>
    </contour>
    <contour>
      <point x="180" y="-2" type="line"/>
      <point x="183" y="91"/>
      <point x="172" y="250"/>
      <point x="149" y="380"/>
      <point x="119" y="481"/>
      <point x="104" y="517" type="qcurve"/>
      <point x="77" y="520" type="line"/>
      <point x="100" y="483"/>
      <point x="133" y="367"/>
      <point x="154" y="229"/>
      <point x="162" y="76"/>
      <point x="159" y="2" type="qcurve"/>
    </contour>
  </outline>
</glyph>
<glyph name="xi" format="2">
  <advance width="472"/>
  <unicode hex="03BE"/>
  <outline>
    <contour>
      <point x="251" y="-145" type="qcurve" smooth="yes"/>
      <point x="279" y="-145"/>
      <point x="331" y="-131"/>
      <point x="372" y="-106"/>
      <point x="399" y="-73"/>
      <point x="402" y="-54" type="qcurve"/>
      <point x="408" y="-38"/>
      <point x="401" y="-9"/>
      <point x="379" y="11"/>
      <point x="344" y="22"/>
      <point x="321" y="21" type="qcurve"/>
      <point x="310" y="22"/>
      <point x="285" y="20"/>
      <point x="257" y="16"/>
      <point x="226" y="11"/>
      <point x="209" y="10" type="qcurve"/>
      <point x="166" y="11"/>
      <point x="98" y="41"/>
      <point x="55" y="90"/>
      <point x="39" y="155"/>
      <point x="47" y="192" type="qcurve"/>
      <point x="58" y="234"/>
      <point x="115" y="305"/>
      <point x="198" y="356"/>
      <point x="299" y="386"/>
      <point x="354" y="386" type="qcurve" smooth="yes"/>
      <point x="365" y="386" type="line"/>
      <point x="368" y="403" type="line"/>
      <point x="332" y="403" type="line"/>
      <point x="291" y="404"/>
      <point x="227" y="429"/>
      <point x="186" y="470"/>
      <point x="170" y="526"/>
      <point x="178" y="558" type="qcurve" smooth="yes"/>
      <point x="187" y="592"/>
      <point x="232" y="649"/>
      <point x="296" y="690"/>
      <point x="373" y="713"/>
      <point x="415" y="711" type="qcurve"/>
      <point x="447" y="713"/>
      <point x="511" y="708"/>
      <point x="542" y="705" type="qcurve"/>
      <point x="549" y="732" type="line"/>
      <point x="331" y="732" type="line" smooth="yes"/>
      <point x="312" y="732"/>
      <point x="290" y="737"/>
      <point x="281" y="745"/>
      <point x="280" y="756"/>
      <point x="280" y="762" type="qcurve"/>
      <point x="284" y="766"/>
      <point x="294" y="784"/>
      <point x="298" y="789" type="qcurve"/>
      <point x="279" y="804" type="line"/>
      <point x="270" y="793"/>
      <point x="263" y="776"/>
      <point x="261" y="768" type="qcurve" smooth="yes"/>
      <point x="258" y="755"/>
      <point x="261" y="733"/>
      <point x="277" y="716"/>
      <point x="307" y="706"/>
      <point x="329" y="705" type="qcurve"/>
      <point x="392" y="728" type="line"/>
      <point x="350" y="728"/>
      <point x="270" y="704"/>
      <point x="206" y="660"/>
      <point x="160" y="596"/>
      <point x="152" y="557" type="qcurve" smooth="yes"/>
      <point x="144" y="520"/>
      <point x="161" y="455"/>
      <point x="206" y="409"/>
      <point x="275" y="384"/>
      <point x="319" y="387" type="qcurve"/>
      <point x="319" y="400" type="line"/>
      <point x="269" y="403"/>
      <point x="174" y="377"/>
      <point x="96" y="325"/>
      <point x="41" y="251"/>
      <point x="30" y="204" type="qcurve" smooth="yes"/>
      <point x="20" y="159"/>
      <point x="37" y="82"/>
      <point x="86" y="25"/>
      <point x="164" y="-8"/>
      <point x="213" y="-8" type="qcurve" smooth="yes"/>
      <point x="242" y="-8"/>
      <point x="306" y="0"/>
      <point x="324" y="0" type="qcurve" smooth="yes"/>
      <point x="357" y="0"/>
      <point x="389" y="-27"/>
      <point x="384" y="-51" type="qcurve"/>
      <point x="376" y="-81"/>
      <point x="301" y="-127"/>
      <point x="250" y="-127" type="qcurve" smooth="yes"/>
      <point x="231" y="-127"/>
      <point x="181" y="-118"/>
      <point x="158" y="-109" type="qcurve"/>
      <point x="156" y="-133" type="line"/>
      <point x="185" y="-139"/>
      <point x="234" y="-145"/>
    </contour>
  </outline>
</glyph>
<glyph name="pi" format="2">
  <advance width="591"/>
  <unicode hex="03C0"/>
  <outline>
    <contour>
      <point x="246" y="509" type="line"/>
      <point x="231" y="438"/>
      <point x="194" y="310"/>
      <point x="150" y="188"/>
      <point x="99" y="67"/>
      <point x="70" y="2" type="qcurve"/>
      <point x="90" y="-2" type="line"/>
      <point x="120" y="65"/>
      <point x="173" y="191"/>
      <point x="218" y="316"/>
      <point x="254" y="440"/>
      <point x="267" y="505" type="qcurve"/>
    </contour>
    <contour>
      <point x="97" y="431" type="line"/>
      <point x="114" y="458"/>
      <point x="148" y="486"/>
      <point x="187" y="498"/>
      <point x="236" y="500"/>
      <point x="268" y="500" type="qcurve" smooth="yes"/>
      <point x="596" y="500" type="line"/>
      <point x="600" y="519" type="line"/>
      <point x="245" y="519" type="line" smooth="yes"/>
      <point x="217" y="519"/>
      <point x="172" y="516"/>
      <point x="133" y="501"/>
      <point x="98" y="470"/>
      <point x="79" y="443" type="qcurve"/>
    </contour>
    <contour>
      <point x="408" y="-8" type="qcurve" smooth="yes"/>
      <point x="418" y="-8"/>
      <point x="438" y="-3"/>
      <point x="448" y="3" type="qcurve"/>
      <point x="442" y="21" type="line"/>
      <point x="433" y="16"/>
      <point x="415" y="11"/>
      <point x="406" y="11" type="qcurve" smooth="yes"/>
      <point x="384" y="11"/>
      <point x="374" y="52"/>
      <point x="389" y="111" type="qcurve"/>
      <point x="499" y="508" type="line"/>
      <point x="478" y="508" type="line"/>
      <point x="372" y="116" type="line"/>
      <point x="363" y="80"/>
      <point x="357" y="33"/>
      <point x="365" y="4"/>
      <point x="389" y="-8"/>
    </contour>
  </outline>
</glyph>
<glyph name="rho" format="2">
  <advance width="586"/>
  <unicode hex="03C1"/>
  <outline>
    <contour>
      <point x="11" y="-207" type="line"/>
      <point x="18" y="-134"/>
      <point x="27" y="-33"/>
      <point x="39" y="57"/>
      <point x="59" y="155"/>
      <point x="76" y="224" type="qcurve"/>
      <point x="95" y="295"/>
      <point x="151" y="402"/>
      <point x="222" y="474"/>
      <point x="306" y="510"/>
      <point x="353" y="510" type="qcurve" smooth="yes"/>
      <point x="406" y="510"/>
      <point x="475" y="469"/>
      <point x="512" y="402"/>
      <point x="518" y="315"/>
      <point x="508" y="269" type="qcurve" smooth="yes"/>
      <point x="495" y="214"/>
      <point x="438" y="118"/>
      <point x="361" y="46"/>
      <point x="270" y="5"/>
      <point x="225" y="5" type="qcurve" smooth="yes"/>
      <point x="200" y="5"/>
      <point x="152" y="20"/>
      <point x="108" y="59"/>
      <point x="71" y="125"/>
      <point x="57" y="175" type="qcurve"/>
      <point x="45" y="125" type="line"/>
      <point x="60" y="88"/>
      <point x="97" y="37"/>
      <point x="142" y="6"/>
      <point x="193" y="-8"/>
      <point x="221" y="-8" type="qcurve" smooth="yes"/>
      <point x="267" y="-8"/>
      <point x="363" y="27"/>
      <point x="448" y="96"/>
      <point x="514" y="199"/>
      <point x="529" y="267" type="qcurve" smooth="yes"/>
      <point x="541" y="322"/>
      <point x="533" y="418"/>
      <point x="490" y="488"/>
      <point x="410" y="529"/>
      <point x="349" y="529" type="qcurve" smooth="yes"/>
      <point x="293" y="529"/>
      <point x="199" y="488"/>
      <point x="124" y="401"/>
      <point x="65" y="264"/>
      <point x="43" y="167" type="qcurve" smooth="yes"/>
      <point x="31" y="115"/>
      <point x="12" y="7"/>
      <point x="0" y="-93"/>
      <point x="-8" y="-178"/>
      <point x="-10" y="-208" type="qcurve"/>
    </contour>
  </outline>
</glyph>
<glyph name="uni03C2" format="2">
  <advance width="534"/>
  <unicode hex="03C2"/>
  <outline>
    <contour>
      <point x="249" y="-145" type="qcurve" smooth="yes"/>
      <point x="278" y="-145"/>
      <point x="330" y="-131"/>
      <point x="372" y="-106"/>
      <point x="400" y="-73"/>
      <point x="403" y="-53" type="qcurve"/>
      <point x="408" y="-37"/>
      <point x="401" y="-9"/>
      <point x="379" y="11"/>
      <point x="344" y="22"/>
      <point x="321" y="21" type="qcurve"/>
      <point x="300" y="23"/>
      <point x="241" y="13"/>
      <point x="215" y="11" type="qcurve"/>
      <point x="173" y="12"/>
      <point x="111" y="50"/>
      <point x="74" y="114"/>
      <point x="64" y="201"/>
      <point x="75" y="251" type="qcurve" smooth="yes"/>
      <point x="88" y="307"/>
      <point x="144" y="402"/>
      <point x="221" y="470"/>
      <point x="313" y="508"/>
      <point x="361" y="508" type="qcurve" smooth="yes"/>
      <point x="388" y="508"/>
      <point x="437" y="497"/>
      <point x="478" y="478"/>
      <point x="508" y="454"/>
      <point x="515" y="441" type="qcurve"/>
      <point x="528" y="455" type="line"/>
      <point x="521" y="472"/>
      <point x="486" y="499"/>
      <point x="439" y="518"/>
      <point x="385" y="529"/>
      <point x="358" y="529" type="qcurve" smooth="yes"/>
      <point x="306" y="529"/>
      <point x="210" y="489"/>
      <point x="130" y="417"/>
      <point x="72" y="316"/>
      <point x="59" y="255" type="qcurve" smooth="yes"/>
      <point x="47" y="202"/>
      <point x="56" y="107"/>
      <point x="96" y="35"/>
      <point x="168" y="-8"/>
      <point x="217" y="-8" type="qcurve" smooth="yes"/>
      <point x="229" y="-8"/>
      <point x="258" y="-6"/>
      <point x="287" y="-3"/>
      <point x="314" y="0"/>
      <point x="323" y="0" type="qcurve" smooth="yes"/>
      <point x="357" y="0"/>
      <point x="388" y="-29"/>
      <point x="383" y="-52" type="qcurve"/>
      <point x="379" y="-66"/>
      <point x="355" y="-93"/>
      <point x="319" y="-113"/>
      <point x="274" y="-125"/>
      <point x="250" y="-125" type="qcurve" smooth="yes"/>
      <point x="232" y="-125"/>
      <point x="182" y="-116"/>
      <point x="159" y="-107" type="qcurve"/>
      <point x="156" y="-133" type="line"/>
      <point x="184" y="-139"/>
      <point x="232" y="-145"/>
    </contour>
  </outline>
</glyph>
<glyph name="sigma" format="2">
  <advance width="655"/>
  <unicode hex="03C3"/>
  <outline>
    <contour>
      <point x="422" y="511" type="line"/>
      <point x="490" y="507"/>
      <point x="557" y="502"/>
      <point x="594" y="497"/>
      <point x="622" y="492"/>
      <point x="649" y="489" type="qcurve"/>
      <point x="652" y="514" type="line"/>
      <point x="611" y="517"/>
      <point x="542" y="523"/>
      <point x="476" y="527"/>
      <point x="408" y="529"/>
      <point x="368" y="529" type="qcurve"/>
    </contour>
    <contour>
      <point x="249" y="-8" type="qcurve" smooth="yes"/>
      <point x="304" y="-8"/>
      <point x="405" y="32"/>
      <point x="487" y="104"/>
      <point x="545" y="201"/>
      <point x="557" y="259" type="qcurve"/>
      <point x="572" y="318"/>
      <point x="558" y="417"/>
      <point x="507" y="489"/>
      <point x="423" y="529"/>
      <point x="367" y="529" type="qcurve" smooth="yes"/>
      <point x="313" y="529"/>
      <point x="213" y="490"/>
      <point x="131" y="419"/>
      <point x="72" y="320"/>
      <point x="59" y="260" type="qcurve" smooth="yes"/>
      <point x="46" y="203"/>
      <point x="61" y="105"/>
      <point x="111" y="33"/>
      <point x="194" y="-8"/>
    </contour>
    <contour>
      <point x="250" y="13" type="qcurve"/>
      <point x="202" y="14"/>
      <point x="126" y="50"/>
      <point x="80" y="114"/>
      <point x="65" y="204"/>
      <point x="78" y="259" type="qcurve" smooth="yes"/>
      <point x="91" y="315"/>
      <point x="147" y="406"/>
      <point x="224" y="472"/>
      <point x="317" y="507"/>
      <point x="366" y="507" type="qcurve" smooth="yes"/>
      <point x="416" y="507"/>
      <point x="491" y="473"/>
      <point x="537" y="408"/>
      <point x="551" y="317"/>
      <point x="538" y="260" type="qcurve" smooth="yes"/>
      <point x="525" y="206"/>
      <point x="470" y="116"/>
      <point x="394" y="51"/>
      <point x="301" y="14"/>
    </contour>
  </outline>
</glyph>
<glyph name="tau" format="2">
  <advance width="448"/>
  <unicode hex="03C4"/>
  <outline>
    <contour>
      <point x="87" y="434" type="line"/>
      <point x="102" y="460"/>
      <point x="133" y="487"/>
      <point x="174" y="499"/>
      <point x="227" y="500"/>
      <point x="264" y="500" type="qcurve" smooth="yes"/>
      <point x="480" y="500" type="line"/>
      <point x="484" y="519" type="line"/>
      <point x="247" y="519" type="line" smooth="yes"/>
      <point x="213" y="519"/>
      <point x="160" y="515"/>
      <point x="118" y="500"/>
      <point x="82" y="469"/>
      <point x="63" y="442" type="qcurve"/>
    </contour>
    <contour>
      <point x="219" y="-8" type="qcurve"/>
      <point x="220" y="-8"/>
      <point x="239" y="-6"/>
      <point x="255" y="-1" type="qcurve"/>
      <point x="247" y="17" type="line"/>
      <point x="236" y="14"/>
      <point x="225" y="12"/>
      <point x="216" y="10" type="qcurve"/>
      <point x="205" y="11"/>
      <point x="193" y="21"/>
      <point x="189" y="43"/>
      <point x="194" y="81"/>
      <point x="200" y="109" type="qcurve" smooth="yes"/>
      <point x="205" y="134"/>
      <point x="230" y="227"/>
      <point x="261" y="338"/>
      <point x="294" y="453"/>
      <point x="307" y="499" type="qcurve"/>
      <point x="286" y="502" type="line"/>
      <point x="271" y="452"/>
      <point x="241" y="344"/>
      <point x="212" y="234"/>
      <point x="185" y="126"/>
      <point x="174" y="76" type="qcurve" smooth="yes"/>
      <point x="168" y="51"/>
      <point x="171" y="19"/>
      <point x="186" y="0"/>
      <point x="207" y="-8"/>
    </contour>
  </outline>
</glyph>
